<?xml version="1.0" standalone="no"?>
<!DOCTYPE svg PUBLIC "-//W3C//DTD SVG 20010904//EN"
 "http://www.w3.org/TR/2001/REC-SVG-20010904/DTD/svg10.dtd">
<svg version="1.0" xmlns="http://www.w3.org/2000/svg"
 width="1104.000000pt" height="1104.000000pt" viewBox="0 0 1104.000000 1104.000000"
 preserveAspectRatio="xMidYMid meet">
<metadata>
Created by potrace 1.11, written by Peter Selinger 2001-2013
</metadata>
<g transform="translate(0.000000,1104.000000) scale(0.100000,-0.100000)"
fill="#000000" stroke="none">
<path d="M3489 10065 c-2 -2 -49 -6 -104 -10 -55 -3 -118 -8 -140 -11 -22 -2
-65 -6 -95 -9 -30 -3 -71 -8 -90 -11 -19 -3 -50 -7 -69 -10 -39 -5 -84 -12
-121 -19 -14 -3 -40 -7 -59 -10 -19 -3 -37 -8 -40 -10 -4 -2 -28 -6 -55 -9
-26 -3 -52 -9 -57 -12 -6 -3 -25 -8 -42 -11 -18 -3 -85 -20 -150 -39 -65 -19
-127 -34 -137 -34 -10 0 -20 -3 -22 -8 -1 -4 -30 -16 -63 -26 -33 -10 -71 -23
-85 -29 -14 -6 -28 -10 -32 -9 -5 1 -8 -3 -8 -10 0 -6 -3 -9 -6 -5 -3 3 -32
-6 -63 -19 -70 -32 -105 -47 -111 -49 -15 -3 -206 -99 -210 -105 -3 -4 -20
-13 -37 -21 -18 -8 -33 -18 -33 -22 0 -5 -4 -5 -10 -2 -5 3 -10 2 -10 -3 0 -5
-18 -17 -40 -27 -22 -10 -40 -21 -40 -25 0 -4 -11 -12 -25 -18 -14 -7 -31 -16
-38 -22 -7 -5 -55 -41 -107 -79 -52 -39 -115 -87 -140 -108 -68 -57 -310 -300
-366 -368 -27 -33 -51 -62 -54 -65 -3 -3 -34 -43 -68 -90 -92 -126 -95 -130
-106 -150 -6 -10 -27 -45 -46 -77 -53 -89 -150 -274 -150 -286 0 -2 -10 -26
-22 -53 -12 -27 -23 -51 -23 -54 -3 -19 -49 -147 -56 -156 -5 -6 -6 -14 -2
-17 3 -4 1 -13 -5 -20 -7 -8 -9 -17 -5 -20 3 -4 1 -7 -4 -7 -6 0 -10 -8 -8
-17 1 -10 -1 -25 -6 -34 -4 -9 -11 -31 -14 -50 -3 -19 -8 -41 -10 -49 -2 -8
-7 -28 -10 -45 -2 -16 -7 -41 -10 -55 -3 -14 -8 -43 -11 -65 -3 -22 -7 -49 -9
-60 -26 -127 -26 -578 0 -755 3 -19 8 -55 11 -79 3 -25 9 -52 13 -60 5 -9 7
-21 4 -27 -2 -5 6 -46 17 -90 12 -43 22 -86 24 -94 13 -52 64 -188 99 -265 43
-95 133 -248 148 -253 5 -2 9 -8 9 -14 0 -28 174 -219 275 -303 26 -22 53 -45
59 -50 18 -17 264 -185 270 -185 2 0 43 -23 92 -51 102 -59 328 -169 424 -206
36 -15 70 -29 75 -33 6 -4 28 -13 50 -20 22 -7 58 -21 80 -30 22 -10 65 -26
95 -35 30 -10 61 -23 69 -29 8 -6 15 -9 15 -6 1 2 21 -3 46 -12 65 -24 231
-78 256 -83 12 -3 53 -14 90 -26 37 -12 79 -23 93 -26 13 -2 32 -8 41 -13 10
-5 32 -12 51 -15 19 -3 72 -17 119 -30 47 -13 96 -26 110 -29 14 -3 50 -12 81
-20 30 -8 66 -17 80 -19 13 -2 31 -6 39 -10 20 -7 190 -48 216 -51 11 -2 25
-5 30 -8 5 -4 25 -9 44 -12 19 -3 58 -12 85 -20 28 -8 61 -17 75 -19 14 -2 32
-6 40 -10 20 -7 71 -20 93 -22 9 -2 18 -3 20 -5 1 -1 9 -3 17 -5 8 -2 78 -20
155 -40 77 -20 147 -38 155 -40 87 -22 148 -37 160 -42 18 -7 27 -10 62 -16
15 -3 32 -8 38 -12 5 -3 20 -8 31 -10 12 -3 63 -16 113 -31 50 -14 96 -27 101
-29 52 -12 73 -18 90 -26 11 -5 29 -11 40 -12 11 -2 27 -7 35 -10 8 -3 65 -21
125 -40 161 -52 265 -91 375 -141 79 -36 198 -137 247 -210 15 -22 30 -43 33
-46 11 -11 50 -108 67 -165 17 -60 24 -259 11 -316 -19 -81 -42 -149 -51 -149
-6 0 -8 -3 -4 -6 8 -8 -68 -121 -104 -154 -87 -82 -149 -123 -254 -170 -57
-26 -175 -69 -207 -76 -5 -1 -9 -2 -10 -4 -4 -2 -25 -7 -63 -15 -16 -3 -38 -8
-47 -11 -37 -11 -156 -34 -208 -40 -25 -3 -56 -7 -70 -10 -161 -28 -761 -22
-980 11 -25 3 -61 8 -80 11 -19 3 -60 10 -90 16 -30 7 -63 13 -72 14 -10 1
-19 2 -20 4 -2 1 -10 3 -18 5 -14 3 -90 22 -115 28 -23 7 -122 39 -140 47 -11
4 -42 18 -70 30 -27 12 -59 26 -70 31 -11 5 -29 15 -39 21 -11 7 -44 28 -74
46 -152 95 -280 246 -357 421 -38 88 -96 274 -100 326 -1 6 -4 20 -9 32 -4 12
-8 37 -10 55 -4 34 -16 111 -21 138 -2 8 -4 22 -4 30 -1 13 -131 15 -1137 15
l-1136 0 7 -140 c4 -77 7 -147 7 -155 0 -8 7 -62 15 -120 8 -58 16 -118 18
-135 3 -16 7 -41 10 -55 3 -14 7 -36 10 -50 9 -50 29 -126 46 -184 10 -32 16
-62 13 -67 -3 -5 0 -9 5 -9 6 0 10 -3 9 -7 -2 -9 8 -46 22 -78 4 -11 23 -58
41 -105 39 -102 90 -213 102 -221 5 -3 9 -10 8 -15 -1 -28 202 -351 258 -411
12 -12 21 -25 21 -28 0 -3 8 -13 18 -23 9 -11 44 -50 77 -88 114 -131 284
-292 395 -374 18 -14 39 -31 46 -37 7 -7 15 -13 18 -13 3 0 25 -15 49 -33 73
-55 263 -166 395 -230 70 -34 129 -62 132 -63 3 0 16 -5 30 -11 77 -33 185
-74 260 -98 47 -15 92 -30 100 -33 26 -9 45 -14 63 -15 9 -1 17 -4 17 -8 0 -5
34 -13 85 -20 6 0 18 -5 27 -10 9 -5 34 -12 55 -15 21 -3 41 -8 45 -10 8 -5
182 -43 228 -49 19 -3 49 -8 65 -12 17 -3 40 -8 53 -9 12 -2 32 -6 45 -8 12
-2 45 -7 72 -11 28 -3 57 -8 66 -11 15 -4 131 -16 177 -17 12 -1 22 -3 22 -6
0 -4 21 -6 48 -7 26 0 80 -3 121 -7 307 -29 992 -30 1323 -3 165 14 231 21
393 42 41 5 268 42 302 49 139 28 193 40 278 62 55 14 105 26 110 27 6 1 15 5
21 8 6 4 23 9 38 12 37 7 156 45 178 57 10 5 22 9 28 9 37 0 385 155 530 236
70 39 244 151 276 177 17 14 122 98 152 122 24 18 266 260 298 295 161 185
327 452 418 673 41 98 99 268 116 337 6 25 13 53 15 62 9 32 16 62 20 88 33
192 43 265 51 370 5 64 5 387 -1 440 -10 104 -24 209 -32 245 -2 11 -6 29 -8
40 -2 11 -9 38 -14 60 -5 22 -12 51 -15 64 -12 51 -50 167 -58 176 -4 5 -8 16
-8 24 0 28 -125 287 -181 374 -32 50 -151 213 -186 256 -63 76 -213 222 -288
280 -44 34 -89 70 -100 78 -39 33 -176 123 -185 123 -6 0 -10 5 -10 10 0 6 -7
10 -15 10 -8 0 -15 3 -15 8 0 4 -15 13 -32 21 -18 8 -40 20 -48 27 -22 19
-225 124 -330 172 -115 52 -133 60 -232 100 -53 22 -99 38 -102 35 -3 -4 -6 0
-6 7 0 7 -3 10 -7 7 -3 -4 -11 -3 -17 2 -6 4 -36 16 -66 25 -30 9 -62 20 -70
23 -8 3 -17 7 -20 8 -3 0 -50 16 -105 34 -55 18 -111 35 -125 37 -13 3 -30 10
-37 16 -7 6 -13 8 -13 5 0 -3 -24 1 -52 9 -109 30 -204 56 -223 60 -11 2 -31
7 -45 10 -71 17 -97 23 -120 28 -174 39 -217 49 -230 54 -18 6 -25 8 -65 16
-16 3 -48 10 -70 15 -22 6 -71 17 -110 26 -38 9 -79 19 -90 22 -27 7 -95 22
-125 28 -14 3 -32 8 -40 11 -8 3 -24 8 -36 10 -11 2 -56 13 -100 24 -43 12
-88 23 -99 24 -11 2 -20 4 -20 5 0 2 -11 4 -24 7 -13 2 -60 14 -105 25 -45 12
-85 22 -91 23 -5 1 -16 5 -23 10 -7 4 -16 5 -19 2 -3 -3 -12 -1 -20 5 -7 6
-13 9 -13 5 0 -3 -11 -1 -25 4 -14 5 -36 12 -48 15 -53 11 -176 44 -219 58
-27 8 -48 13 -48 12 0 -2 -26 5 -57 16 -32 11 -60 19 -63 19 -7 0 -108 29
-142 42 -15 6 -31 10 -35 10 -4 1 -62 20 -129 43 -133 47 -243 98 -273 126
-11 11 -23 19 -27 19 -9 0 -74 68 -110 115 -25 33 -64 103 -69 125 -1 3 -4 12
-8 20 -6 18 -19 67 -24 95 -2 11 -6 61 -8 110 -4 102 12 189 52 275 28 60 108
170 124 170 5 0 9 6 9 13 0 6 16 23 35 36 19 13 35 27 35 32 0 5 6 9 13 9 8 0
21 8 31 19 9 10 34 26 56 36 22 10 40 22 40 27 0 4 6 8 14 8 7 0 39 11 70 25
32 14 67 27 79 29 12 3 23 5 25 7 1 1 5 2 10 4 4 1 14 5 22 8 8 4 26 9 40 11
14 3 56 12 93 21 37 8 71 14 75 14 4 -1 9 0 12 1 3 1 19 4 35 6 17 2 44 5 60
8 75 12 256 20 430 19 158 -1 320 -8 320 -13 0 -1 16 -3 35 -5 70 -6 134 -18
224 -41 50 -13 102 -26 116 -29 14 -3 34 -9 45 -14 19 -9 55 -23 65 -26 31 -9
152 -72 210 -111 111 -72 290 -260 290 -303 0 -6 5 -11 11 -11 5 0 7 -4 4 -10
-3 -5 -3 -10 2 -10 4 0 14 -15 22 -32 7 -18 20 -46 28 -63 15 -30 60 -163 69
-200 12 -56 34 -184 36 -213 1 -19 9 -34 18 -37 8 -2 509 -4 1113 -4 l1097 0
-6 57 c-3 31 -8 73 -9 92 -2 19 -4 35 -5 35 -1 0 -3 14 -6 30 -6 46 -12 90
-14 90 -1 0 -3 16 -5 35 -2 19 -6 49 -9 65 -3 17 -8 44 -11 60 -4 17 -17 77
-31 135 -31 129 -32 135 -34 135 -1 0 -3 10 -6 22 -2 12 -20 68 -39 125 -20
57 -37 108 -38 113 -8 30 -43 113 -56 135 -9 13 -15 27 -14 30 4 9 -56 131
-118 240 -80 141 -80 141 -116 184 -7 8 -13 18 -13 21 0 14 -143 185 -225 269
-123 125 -327 296 -354 296 -5 0 -11 4 -13 9 -7 19 -436 259 -478 267 -3 0
-22 8 -42 18 -21 9 -40 16 -43 15 -4 0 -16 6 -28 13 -19 12 -127 54 -232 90
-16 5 -39 13 -50 18 -36 13 -170 53 -190 56 -5 0 -17 3 -25 7 -24 9 -172 46
-210 52 -19 3 -53 10 -75 16 -22 5 -52 11 -67 14 -15 2 -53 8 -85 14 -32 5
-76 12 -98 16 -22 3 -51 7 -65 10 -14 3 -45 7 -70 10 -25 2 -61 7 -80 9 -19 3
-62 8 -95 11 -58 6 -79 8 -250 21 -88 7 -781 15 -786 9z"/>
<path d="M8665 3600 c-4 -7 -8 -537 -8 -1179 l0 -1166 1192 -3 1191 -2 0 1176
0 1176 -25 -4 c-14 -3 -28 -1 -31 3 -3 5 -13 5 -23 0 -9 -5 -23 -6 -30 -2 -7
5 -30 5 -51 1 -21 -4 -44 -4 -51 1 -7 4 -20 4 -29 -1 -9 -5 -22 -5 -29 -1 -7
5 -30 5 -51 1 -21 -4 -44 -4 -51 1 -7 4 -20 4 -29 -1 -9 -5 -22 -5 -28 -1 -7
4 -33 5 -58 1 -24 -4 -47 -3 -50 2 -3 4 -13 4 -23 -2 -10 -5 -21 -7 -25 -3 -5
5 -76 8 -91 3 -15 -4 -96 -2 -102 3 -3 4 -13 2 -23 -3 -10 -5 -20 -7 -24 -3
-5 5 -76 8 -91 3 -15 -4 -96 -2 -102 3 -3 4 -13 2 -22 -3 -10 -5 -23 -5 -30
-1 -7 5 -30 5 -51 1 -21 -4 -44 -4 -51 1 -7 4 -20 4 -29 -1 -9 -5 -22 -5 -29
-1 -7 5 -30 5 -51 1 -21 -4 -44 -4 -51 1 -7 4 -20 4 -29 -1 -9 -5 -22 -5 -28
-1 -7 4 -33 5 -58 1 -24 -4 -47 -3 -50 2 -3 4 -13 4 -23 -2 -10 -5 -21 -7 -25
-3 -5 5 -76 8 -91 3 -15 -4 -96 -2 -102 3 -3 4 -13 2 -23 -3 -10 -5 -20 -7
-24 -3 -5 5 -76 8 -91 3 -15 -4 -96 -2 -102 3 -3 4 -13 2 -22 -3 -10 -5 -23
-5 -30 -1 -7 5 -30 5 -51 1 -21 -4 -44 -4 -51 1 -7 4 -20 4 -29 -1 -9 -5 -22
-5 -29 -1 -7 5 -30 5 -51 1 -21 -4 -44 -4 -51 1 -7 4 -22 3 -34 -1 -14 -5 -27
-4 -33 2 -6 6 -12 6 -17 -2z"/>
</g>
</svg>
