<?xml version="1.0" encoding="utf-8"?>
<!-- Generator: Adobe Illustrator 23.0.6, SVG Export Plug-In . SVG Version: 6.00 Build 0)  -->
<svg version="1.1" id="Layer_1" xmlns="http://www.w3.org/2000/svg" xmlns:xlink="http://www.w3.org/1999/xlink" x="0px" y="0px"
	 viewBox="0 0 182.6 91.2" style="enable-background:new 0 0 182.6 91.2;" xml:space="preserve">
<style type="text/css">
	.st0{fill:#61C9D6;}
	.st1{fill:#90ECFF;}
	.st2{fill:#76D8E5;}
	.st3{fill:#FFFFFF;}
	.st4{fill:#002C40;}
	.st5{fill:#231F20;}
	.st6{fill:#FF4F54;}
</style>
<g id="Alien" transform="translate(0)">
	
		<rect id="Rechteck_94" x="69.9" y="0.8" transform="matrix(0.8523 -0.5231 0.5231 0.8523 3.2935 39.5801)" class="st0" width="3.7" height="26.3"/>
	<path id="Pfad_433" class="st1" d="M68.9,1.9c1.2,1.8,0.5,4.3-1.3,5.4S63.3,7.8,62.2,6s-0.5-4.3,1.3-5.4C65.4-0.6,67.9,0,68.9,1.9z
		"/>
	
		<rect id="Rechteck_95" x="97.8" y="12.1" transform="matrix(0.5231 -0.8523 0.8523 0.5231 41.0552 101.1874)" class="st0" width="26.3" height="3.7"/>
	<path id="Pfad_434" class="st1" d="M113.7,1.9c-1.2,1.8-0.5,4.3,1.3,5.4s4.3,0.5,5.4-1.3s0.5-4.3-1.3-5.4
		C117.3-0.6,114.9,0,113.7,1.9z"/>
	<ellipse id="Ellipse_35" class="st1" cx="91.1" cy="40.8" rx="29.2" ry="29.2"/>
	<rect id="Rechteck_96" x="61.8" y="40.8" class="st1" width="58.5" height="50.4"/>
	<circle id="Ellipse_36" class="st2" cx="90.9" cy="35" r="14.5"/>
	<ellipse id="Ellipse_37" class="st3" cx="90.9" cy="35" rx="12.5" ry="12.5"/>
	<path id="Pfad_435" class="st4" d="M99.2,35c0,4.6-3.7,8.3-8.3,8.3s-8.3-3.7-8.3-8.3s3.7-8.3,8.3-8.3S99.2,30.5,99.2,35z"/>
	<path id="Pfad_436" class="st2" d="M100.8,61.7c0,5.4-4.5,9.9-9.9,9.9S81,67.1,81,61.7s4.5-9.9,9.9-9.9S100.8,56.2,100.8,61.7
		L100.8,61.7z"/>
	<path id="Pfad_437" class="st3" d="M99.4,61.7c0,4.7-3.8,8.5-8.5,8.5s-8.5-3.8-8.5-8.5s3.8-8.5,8.5-8.5l0,0
		C95.6,53.3,99.4,57,99.4,61.7z"/>
	<path id="Pfad_438" class="st4" d="M96.5,61.7c0,3.1-2.6,5.6-5.6,5.6s-5.6-2.6-5.6-5.6s2.6-5.6,5.6-5.6l0,0
		C94,56,96.5,58.6,96.5,61.7z"/>
	<g id="Gruppe_196" transform="translate(35.821 103.975)">
		<path id="Pfad_439" class="st5" d="M55.1-19c3.6,0,6.5-2.9,6.5-6.5l0,0H48.5C48.5-21.9,51.5-19,55.1-19L55.1-19z"/>
	</g>
	<path id="Pfad_440" class="st6" d="M86.9,83.6c2.3,1.8,5.5,1.8,7.9,0c-0.7-2.2-3.1-3.4-5.3-2.7C88.3,81.5,87.4,82.5,86.9,83.6z"/>
	<path id="Pfad_441" class="st2" d="M70.2,39.2c0,0.3-0.3,0.6-0.6,0.6c-0.3,0-0.6-0.3-0.6-0.6s0.3-0.6,0.6-0.6S70.2,38.9,70.2,39.2
		L70.2,39.2z"/>
	<path id="Pfad_442" class="st2" d="M75,75.4c0,0.3-0.3,0.6-0.6,0.6c-0.3,0-0.6-0.3-0.6-0.6c0-0.3,0.3-0.6,0.6-0.6l0,0
		C74.7,74.8,75,75.1,75,75.4L75,75.4z"/>
	<path id="Pfad_443" class="st2" d="M65.9,72.2c0,0.3-0.3,0.6-0.6,0.6s-0.6-0.3-0.6-0.6c0-0.3,0.3-0.6,0.6-0.6S65.9,71.9,65.9,72.2
		L65.9,72.2z"/>
	<path id="Pfad_444" class="st2" d="M69.1,48c0,1.6-1.3,2.8-2.8,2.8c-1.6,0-2.8-1.3-2.8-2.8c0-1.6,1.3-2.8,2.8-2.8l0,0
		C67.9,45.2,69.1,46.4,69.1,48z"/>
	<path id="Pfad_445" class="st2" d="M110.1,74c0,1.6-1.3,2.8-2.8,2.8c-1.6,0-2.8-1.3-2.8-2.8c0-1.6,1.3-2.8,2.8-2.8l0,0
		C108.8,71.3,110.1,72.4,110.1,74z"/>
	<path id="Pfad_446" class="st2" d="M76.4,52.8c0,0.9-0.7,1.6-1.6,1.6s-1.6-0.7-1.6-1.6c0-0.9,0.7-1.6,1.6-1.6l0,0
		C75.6,51.1,76.4,51.9,76.4,52.8z"/>
	<path id="Pfad_447" class="st2" d="M111.7,46.3c0,0.9-0.7,1.6-1.6,1.6s-1.6-0.7-1.6-1.6s0.7-1.6,1.6-1.6l0,0
		C110.9,44.7,111.7,45.5,111.7,46.3L111.7,46.3z"/>
	<path id="Pfad_448" class="st2" d="M112.6,38.3c0,0.5-0.4,0.9-1,0.9s-0.9-0.4-0.9-1c0-0.5,0.4-0.9,0.9-0.9
		C112.2,37.4,112.6,37.8,112.6,38.3L112.6,38.3z"/>
	<path id="Pfad_449" class="st2" d="M115.7,54.4c0,0.4-0.3,0.7-0.7,0.7c-0.4,0-0.7-0.3-0.7-0.7s0.3-0.7,0.7-0.7l0,0
		C115.4,53.6,115.7,54,115.7,54.4z"/>
	<path id="Pfad_450" class="st2" d="M108.5,52.8c0,0.9-0.7,1.6-1.6,1.6s-1.6-0.7-1.6-1.6c0-0.9,0.7-1.6,1.6-1.6l0,0
		C107.7,51.1,108.5,51.9,108.5,52.8z"/>
	<path id="Pfad_451" class="st2" d="M67.9,60.6c0,0.9-0.7,1.6-1.6,1.6s-1.6-0.7-1.6-1.6s0.7-1.6,1.6-1.6l0,0
		C67.2,59,67.9,59.8,67.9,60.6z"/>
	<path id="Pfad_452" class="st2" d="M78,82.9c0,0.9-0.7,1.6-1.6,1.6s-1.6-0.7-1.6-1.6s0.7-1.6,1.6-1.6l0,0C77.2,81.3,78,82,78,82.9z
		"/>
	<path id="Pfad_453" class="st2" d="M112.5,85.6c0,0.9-0.7,1.6-1.6,1.6s-1.6-0.7-1.6-1.6s0.7-1.6,1.6-1.6l0,0
		C111.8,84,112.5,84.6,112.5,85.6z"/>
	<path id="Pfad_454" class="st2" d="M110.1,60.6c0,0.9-0.7,1.6-1.6,1.6s-1.6-0.7-1.6-1.6s0.7-1.6,1.6-1.6l0,0
		C109.3,59,110.1,59.8,110.1,60.6z"/>
	<path id="Pfad_455" class="st2" d="M116.6,66.8c0,0.9-0.7,1.6-1.6,1.6s-1.6-0.7-1.6-1.6s0.7-1.6,1.6-1.6l0,0
		C115.8,65.1,116.6,65.8,116.6,66.8z"/>
	<path id="Pfad_456" class="st2" d="M74.4,67.4c0,0.9-0.7,1.6-1.6,1.6s-1.6-0.7-1.6-1.6s0.7-1.6,1.6-1.6
		C73.6,65.7,74.4,66.5,74.4,67.4L74.4,67.4z"/>
	<path id="Pfad_457" class="st2" d="M70,78.5c0,0.9-0.7,1.6-1.6,1.6s-1.6-0.7-1.6-1.6s0.7-1.6,1.6-1.6l0,0
		C69.2,76.9,70,77.6,70,78.5z"/>
	<path id="Pfad_458" class="st2" d="M80,19.5c0,0.9-0.7,1.6-1.6,1.6s-1.6-0.7-1.6-1.6s0.7-1.6,1.6-1.6l0,0
		C79.4,17.9,80,18.6,80,19.5z"/>
	<path id="Pfad_459" class="st2" d="M100,19.5c0,0.9-0.7,1.6-1.6,1.6s-1.6-0.7-1.6-1.6s0.7-1.6,1.6-1.6l0,0
		C99.3,17.9,100,18.6,100,19.5z"/>
	<path id="Pfad_460" class="st2" d="M110.1,27.3c0,0.9-0.7,1.6-1.6,1.6s-1.6-0.7-1.6-1.6s0.7-1.6,1.6-1.6l0,0
		C109.3,25.7,110.1,26.4,110.1,27.3z"/>
	<path id="Pfad_461" class="st2" d="M73.4,30c0,0.9-0.7,1.6-1.6,1.6s-1.6-0.7-1.6-1.6s0.7-1.6,1.6-1.6l0,0
		C72.7,28.4,73.4,29.1,73.4,30L73.4,30z"/>
	<path id="Pfad_462" class="st3" d="M91.2,33.7c0,1.7-1.4,3-3,3c-1.7,0-3-1.4-3-3c0-1.7,1.4-3,3-3l0,0
		C89.8,30.6,91.2,31.9,91.2,33.7z"/>
	<path id="Pfad_463" class="st3" d="M91.2,60.6c0,1.1-0.9,2-2,2s-2-0.9-2-2s0.9-2,2-2C90.2,58.7,91.2,59.5,91.2,60.6z"/>
</g>
</svg>
