<?xml version="1.0" encoding="utf-8"?>
<!-- Generator: Adobe Illustrator 23.0.6, SVG Export Plug-In . SVG Version: 6.00 Build 0)  -->
<svg version="1.1" id="Layer_1" xmlns="http://www.w3.org/2000/svg" xmlns:xlink="http://www.w3.org/1999/xlink" x="0px" y="0px"
	 viewBox="0 0 153 123" style="enable-background:new 0 0 153 123;" xml:space="preserve">
<style type="text/css">
	.st0{fill:#BCBEC0;}
	.st1{fill:#939598;}
	.st2{fill:#F1F2F2;}
	.st3{fill:#53A2D3;}
	.st4{opacity:0.1;enable-background:new    ;}
	.st5{fill:#CCEFFF;}
	.st6{fill:#E6E7E8;}
	.st7{fill:#6D6E71;}
	.st8{fill:#3C3B3D;}
	.st9{fill:#FFFFFF;}
</style>
<g id="Astronaut_1_">
	<g>
		<path class="st0" d="M88.7,26.8c-0.6,0-1-0.4-1-1v-7.2h-4.8c-0.6,0-1-0.4-1-1s0.4-1,1-1h5.8c0.6,0,1,0.4,1,1v8.2
			C89.7,26.4,89.3,26.8,88.7,26.8z"/>
	</g>
	<path class="st1" d="M95.8,82.2c0,1.4-1.1,2.5-2.5,2.5h-46c-1.4,0-2.5-1.1-2.5-2.5v-56c0-1.4,1.1-2.5,2.5-2.5h46
		c1.4,0,2.5,1.1,2.5,2.5V82.2z"/>
	<path class="st2" d="M83.9,13.6c0,7.5-6.1,13.6-13.6,13.6s-13.6-6.1-13.6-13.6S62.8,0,70.3,0S83.9,6.1,83.9,13.6z"/>
	<rect x="56.7" y="13.6" class="st2" width="27.2" height="15.6"/>
	<path class="st3" d="M82.2,14c0,5.4-5.3,9.7-11.9,9.7S58.4,19.3,58.4,14c0-5.4,5.3-9.7,11.9-9.7C76.9,4.2,82.2,8.6,82.2,14z"/>
	<path class="st4" d="M74.2,4.7c1.1,1.5,1.7,3.2,1.7,5c0,5.4-5.3,9.7-11.9,9.7c-1.4,0-2.7-0.2-3.9-0.5c2.1,2.8,5.9,4.7,10.3,4.7
		c6.6,0,11.9-4.4,11.9-9.7C82.2,9.7,78.8,6.1,74.2,4.7z"/>
	<path class="st5" d="M66.8,10.7c0,1.6-1.3,2.9-2.9,2.9S61,12.3,61,10.7s1.3-2.9,2.9-2.9C65.5,7.8,66.8,9.1,66.8,10.7z"/>
	<path class="st5" d="M65.8,17c0,0.8-0.7,1.5-1.5,1.5s-1.5-0.7-1.5-1.5s0.7-1.5,1.5-1.5S65.8,16.2,65.8,17z"/>
	<rect x="34" y="29.2" class="st6" width="24.3" height="9.4"/>
	<path class="st6" d="M39.2,12.3c0,2.6-2.1,4.7-4.7,4.7c-2.6,0-4.7-2.1-4.7-4.7s2.1-4.7,4.7-4.7C37.1,7.6,39.2,9.7,39.2,12.3z"/>
	<path class="st6" d="M40.5,13.8c0,0.7-0.6,1.3-1.3,1.3s-1.3-0.6-1.3-1.3s0.6-1.3,1.3-1.3C40,12.5,40.5,13,40.5,13.8z"/>
	<rect x="88.1" y="29.2" class="st6" width="19.1" height="9.4"/>
	<path class="st6" d="M110.8,55.6c0-2.6-2.1-4.7-4.7-4.7c-2.6,0-4.7,2.1-4.7,4.7c0,2.6,2.1,4.7,4.7,4.7
		C108.7,60.3,110.8,58.2,110.8,55.6z"/>
	<path class="st6" d="M102.7,54.2c0-0.7-0.6-1.3-1.3-1.3c-0.7,0-1.3,0.6-1.3,1.3s0.6,1.3,1.3,1.3S102.7,54.9,102.7,54.2z"/>
	<rect x="49.6" y="72.7" class="st6" width="14.6" height="48.1"/>
	<rect x="76.3" y="72.7" class="st6" width="14.6" height="48.1"/>
	<g>
		<path class="st0" d="M57,112.7c-4.7,0-8.6,3.8-8.6,8.6h17.1C65.5,116.6,61.7,112.7,57,112.7z"/>
	</g>
	<rect x="48.4" y="121.3" class="st7" width="17.1" height="1.7"/>
	<g>
		<path class="st0" d="M83.6,112.7c-4.7,0-8.6,3.8-8.6,8.6h17.1C92.1,116.6,88.3,112.7,83.6,112.7z"/>
	</g>
	<rect x="75" y="121.3" class="st7" width="17.1" height="1.7"/>
	<path class="st6" d="M110.7,41.8V30.2c0-0.5-0.4-1-1-1h-7.4c-0.5,0-1,0.4-1,1v11.6l0,0v13.8h1h7.4h1V41.8L110.7,41.8z"/>
	<path class="st6" d="M29.9,26v11.6c0,0.5,0.4,1,1,1h7.3c0.5,0,1-0.4,1-1V26l0,0V12.3h-1h-7.4h-1L29.9,26L29.9,26z"/>
	<path class="st6" d="M90.9,73.6c0,1.4-1.1,2.5-2.5,2.5H52.1c-1.4,0-2.5-1.1-2.5-2.5V31.7c0-1.4,1.1-2.5,2.5-2.5h36.3
		c1.4,0,2.5,1.1,2.5,2.5V73.6z"/>
	<rect x="69.5" y="29.2" class="st0" width="1.5" height="46.8"/>
	<rect x="49.6" y="66.4" class="st8" width="41.3" height="4.2"/>
	<rect x="66.3" y="64.7" class="st8" width="8" height="7.5"/>
	<rect x="68.9" y="67.2" class="st6" width="2.8" height="2.6"/>
</g>
<path id="Pfad_259" class="st9" d="M147.3,12.3l1,2.4c0.2,0.5,0.6,0.8,1.1,1.1l2.4,1c1,0.4,1.4,1.4,1.1,2.4
	c-0.2,0.5-0.6,0.8-1.1,1.1l-2.4,1c-0.5,0.2-0.8,0.6-1.1,1.1l-1,2.4c-0.4,1-1.4,1.4-2.4,1.1c-0.5-0.2-0.8-0.6-1.1-1.1l-1-2.4
	c-0.2-0.5-0.6-0.8-1.1-1.1l-2.4-1c-1-0.4-1.4-1.4-1.1-2.4c0.2-0.5,0.6-0.8,1.1-1.1l2.4-1c0.5-0.2,0.8-0.6,1.1-1.1l1-2.4
	c0.4-1,1.4-1.4,2.4-1.1C146.7,11.5,147.2,11.9,147.3,12.3z"/>
<path id="Pfad_254" class="st9" d="M4.7,21.2l0.5,1.2c0.1,0.2,0.3,0.4,0.5,0.5l1.2,0.5c0.5,0.2,0.7,0.7,0.5,1.2
	c-0.1,0.2-0.3,0.4-0.5,0.5l-1.2,0.5c-0.2,0.1-0.4,0.3-0.5,0.5l-0.5,1.2C4.5,27.8,4,28,3.5,27.8c-0.2-0.1-0.4-0.3-0.5-0.5l-0.5-1.2
	c-0.1-0.2-0.3-0.4-0.5-0.5l-1.2-0.5c-0.5-0.2-0.7-0.7-0.5-1.2c0.1-0.2,0.3-0.4,0.5-0.5L2,22.9c0.2-0.1,0.4-0.3,0.5-0.5L3,21.2
	c0.2-0.5,0.7-0.7,1.2-0.5C4.4,20.8,4.6,21,4.7,21.2z"/>
<path id="Pfad_255" class="st9" d="M11.9,70.4l1.3,3.2c0.2,0.6,0.7,1.1,1.4,1.4l3.1,1.2c0.9,0.4,1.6,1.2,1.6,2.2
	c0,1.1-0.6,2-1.5,2.4l-3.2,1.3c-0.6,0.2-1.1,0.7-1.4,1.4L12,86.6c-0.4,0.9-1.2,1.6-2.2,1.6c-1.1,0-2-0.6-2.4-1.5l-1.3-3.2
	c-0.2-0.6-0.7-1.1-1.4-1.4l-3.1-1.2C0.7,80.5,0,79.7,0,78.7c0-1.1,0.6-2,1.5-2.4L4.7,75c0.6-0.2,1.1-0.7,1.4-1.4l1.2-3.1
	c0.4-0.9,1.2-1.6,2.2-1.6C10.6,68.9,11.5,69.5,11.9,70.4z"/>
<path id="Pfad_255_1_" class="st9" d="M130.9,62.7l0.9,2.2c0.1,0.4,0.5,0.8,1,1l2.1,0.8c0.6,0.3,1.1,0.8,1.1,1.5
	c0,0.8-0.4,1.4-1,1.6l-2.2,0.9c-0.4,0.1-0.8,0.5-1,1l-0.8,2.1c-0.3,0.6-0.8,1.1-1.5,1.1c-0.8,0-1.4-0.4-1.6-1l-0.9-2.2
	c-0.1-0.4-0.5-0.8-1-1l-2.1-0.8c-0.6-0.3-1.1-0.8-1.1-1.5c0-0.8,0.4-1.4,1-1.6l2.2-0.9c0.4-0.1,0.8-0.5,1-1l0.8-2.1
	c0.3-0.6,0.8-1.1,1.5-1.1C130,61.7,130.6,62.1,130.9,62.7z"/>
</svg>
