<svg xmlns="http://www.w3.org/2000/svg" width="424.425" height="181.974" viewBox="0 0 424.425 181.974">
  <g id="Gruppe_148" data-name="Gruppe 148" transform="translate(-36.066 -267.488)">
    <path id="Pfad_120" data-name="Pfad 120" d="M94.627,387.618s60.342-62.313,107.93-22.865,76.873,99.015,152.461,81.9,93.538-98.321,76.6-130.924" transform="translate(-1.38 -1.124)" fill="none" stroke="#ddd" stroke-miterlimit="10" stroke-width="2"/>
    <g id="Gruppe_77" data-name="Gruppe 77" transform="translate(396.648 268.036)">
      <path id="Pfad_121" data-name="Pfad 121" d="M452.2,307.177l-27.253-16.914a5.051,5.051,0,0,0-6.959,1.628l-4.776,7.692a5.055,5.055,0,0,0,1.63,6.96l27.252,16.916Z" transform="translate(-405.515 -268.542)" fill="#f4f2ed"/>
      <path id="Pfad_122" data-name="Pfad 122" d="M416.5,294.477a5.05,5.05,0,0,1,6.958-1.628l27.175,16.866,1.575-2.539-27.253-16.914a5.051,5.051,0,0,0-6.959,1.628l-4.776,7.692a5.028,5.028,0,0,0-.408.833Z" transform="translate(-405.523 -268.542)" fill="#230753" opacity="0.1"/>
      <path id="Pfad_123" data-name="Pfad 123" d="M447.722,315.967h0l-4.915,7.917,9.673,1.826,3.041-4.9h0l3.043-4.9-5.652-8.3Z" transform="translate(-406.23 -268.968)" fill="#ddd"/>
      <rect id="Rechteck_21" data-name="Rechteck 21" width="11.523" height="2.952" transform="matrix(0.527, -0.85, 0.85, 0.527, 46.248, 56.742)" fill="#ff0e00"/>
      <path id="Pfad_124" data-name="Pfad 124" d="M468.243,319.125l-6.882-1.415-2.892,4.659-.147.235-3.042,4.9,4.323,5.537,4.318-6.954-.145-.1.148.093Z" transform="translate(-406.524 -269.206)" fill="#ddd"/>
      <g id="Gruppe_66" data-name="Gruppe 66" transform="translate(36.576 38.635)" opacity="0.1">
        <g id="Gruppe_65" data-name="Gruppe 65">
          <path id="Pfad_125" data-name="Pfad 125" d="M446.159,318.5h0l5.192-8.364,5.6,8.234,2.548,1.64,0-.006,6.873,1.414,1.571-2.531-6.882-1.415,0,0-2.549-1.639-5.6-8.235-5.19,8.364h0l-4.915,7.917h.009Z" transform="translate(-442.806 -307.603)" fill="#230753"/>
          <path id="Pfad_126" data-name="Pfad 126" d="M462.382,328.782l.137.094,0-.006Z" transform="translate(-443.267 -308.102)" fill="#230753"/>
        </g>
      </g>
      <path id="Pfad_127" data-name="Pfad 127" d="M429.418,290.847a1.283,1.283,0,0,1,.414,1.765l-10.721,17.271a1.28,1.28,0,0,1-1.763.413h0a1.283,1.283,0,0,1-.414-1.765l10.721-17.27a1.28,1.28,0,0,1,1.763-.414Z" transform="translate(-405.616 -268.569)" fill="#ff0e00"/>
      <path id="Pfad_128" data-name="Pfad 128" d="M429.441,290.848a1.267,1.267,0,0,0-1.3-.008,1.251,1.251,0,0,1,.342.127,1.281,1.281,0,0,1,.412,1.765L418.171,310a1.256,1.256,0,0,1-.461.423,1.267,1.267,0,0,0,1.424-.541l10.721-17.271A1.283,1.283,0,0,0,429.441,290.848Z" transform="translate(-405.639 -268.569)" fill="#230753" opacity="0.1"/>
      <g id="Gruppe_71" data-name="Gruppe 71" transform="translate(0 45.963)">
        <g id="Gruppe_70" data-name="Gruppe 70">
          <path id="Pfad_129" data-name="Pfad 129" d="M436.454,325.722a.447.447,0,0,1,.2.594l-13.471,21.7a.445.445,0,0,1-.617.088L405.6,337.575a.447.447,0,0,1-.2-.594l13.472-21.7a.442.442,0,0,1,.619-.088Z" transform="translate(-405.348 -315.108)" fill="none" stroke="#ff0e00" stroke-miterlimit="10" stroke-width="1"/>
          <g id="Gruppe_69" data-name="Gruppe 69" transform="translate(2.201 1.811)">
            <g id="Gruppe_67" data-name="Gruppe 67" transform="translate(0.83)">
              <line id="Linie_1" data-name="Linie 1" y1="22.383" x2="13.893" fill="none" stroke="#ff0e00" stroke-miterlimit="10" stroke-width="1"/>
              <line id="Linie_2" data-name="Linie 2" y1="22.382" x2="13.892" transform="translate(3.527 2.19)" fill="none" stroke="#ff0e00" stroke-miterlimit="10" stroke-width="1"/>
              <line id="Linie_3" data-name="Linie 3" y1="22.383" x2="13.894" transform="translate(7.052 4.378)" fill="none" stroke="#ff0e00" stroke-miterlimit="10" stroke-width="1"/>
              <line id="Linie_4" data-name="Linie 4" y1="22.384" x2="13.893" transform="translate(10.58 6.566)" fill="none" stroke="#ff0e00" stroke-miterlimit="10" stroke-width="1"/>
            </g>
            <g id="Gruppe_68" data-name="Gruppe 68" transform="translate(0 1.702)">
              <line id="Linie_5" data-name="Linie 5" x2="17.78" y2="11.036" transform="translate(0 14.897)" fill="none" stroke="#ff0e00" stroke-miterlimit="10" stroke-width="1"/>
              <line id="Linie_6" data-name="Linie 6" x2="17.78" y2="11.036" transform="translate(2.312 11.174)" fill="none" stroke="#ff0e00" stroke-miterlimit="10" stroke-width="1"/>
              <line id="Linie_7" data-name="Linie 7" x2="17.782" y2="11.036" transform="translate(4.623 7.448)" fill="none" stroke="#ff0e00" stroke-miterlimit="10" stroke-width="1"/>
              <line id="Linie_8" data-name="Linie 8" x2="17.78" y2="11.036" transform="translate(6.936 3.723)" fill="none" stroke="#ff0e00" stroke-miterlimit="10" stroke-width="1"/>
              <line id="Linie_9" data-name="Linie 9" x2="17.781" y2="11.034" transform="translate(9.248)" fill="none" stroke="#ff0e00" stroke-miterlimit="10" stroke-width="1"/>
            </g>
          </g>
        </g>
        <line id="Linie_10" data-name="Linie 10" y1="3.651" x2="2.266" transform="translate(21.824 1.202)" fill="none" stroke="#ff0e00" stroke-miterlimit="10" stroke-width="1"/>
      </g>
      <g id="Gruppe_76" data-name="Gruppe 76" transform="translate(28.531)">
        <g id="Gruppe_75" data-name="Gruppe 75">
          <path id="Pfad_130" data-name="Pfad 130" d="M451.778,301.033a.446.446,0,0,0,.619-.088l13.472-21.7a.442.442,0,0,0-.2-.59l-16.965-10.532a.447.447,0,0,0-.617.086l-13.47,21.7a.446.446,0,0,0,.194.595Z" transform="translate(-434.567 -268.036)" fill="none" stroke="#ff0e00" stroke-miterlimit="10" stroke-width="1"/>
          <g id="Gruppe_74" data-name="Gruppe 74" transform="translate(2.125 1.811)">
            <g id="Gruppe_72" data-name="Gruppe 72" transform="translate(0.905)">
              <line id="Linie_11" data-name="Linie 11" x1="13.892" y2="22.382" fill="none" stroke="#ff0e00" stroke-miterlimit="10" stroke-width="1"/>
              <line id="Linie_12" data-name="Linie 12" x1="13.89" y2="22.384" transform="translate(3.527 2.188)" fill="none" stroke="#ff0e00" stroke-miterlimit="10" stroke-width="1"/>
              <line id="Linie_13" data-name="Linie 13" x1="13.893" y2="22.382" transform="translate(7.053 4.378)" fill="none" stroke="#ff0e00" stroke-miterlimit="10" stroke-width="1"/>
              <line id="Linie_14" data-name="Linie 14" x1="13.893" y2="22.382" transform="translate(10.579 6.567)" fill="none" stroke="#ff0e00" stroke-miterlimit="10" stroke-width="1"/>
            </g>
            <g id="Gruppe_73" data-name="Gruppe 73" transform="translate(0 1.821)">
              <line id="Linie_15" data-name="Linie 15" x2="17.779" y2="11.036" transform="translate(9.248)" fill="none" stroke="#ff0e00" stroke-miterlimit="10" stroke-width="1"/>
              <line id="Linie_16" data-name="Linie 16" x2="17.78" y2="11.036" transform="translate(6.935 3.726)" fill="none" stroke="#ff0e00" stroke-miterlimit="10" stroke-width="1"/>
              <line id="Linie_17" data-name="Linie 17" x2="17.782" y2="11.035" transform="translate(4.622 7.451)" fill="none" stroke="#ff0e00" stroke-miterlimit="10" stroke-width="1"/>
              <line id="Linie_18" data-name="Linie 18" x2="17.781" y2="11.035" transform="translate(2.31 11.176)" fill="none" stroke="#ff0e00" stroke-miterlimit="10" stroke-width="1"/>
              <line id="Linie_19" data-name="Linie 19" x2="17.778" y2="11.036" transform="translate(0 14.9)" fill="none" stroke="#ff0e00" stroke-miterlimit="10" stroke-width="1"/>
            </g>
          </g>
        </g>
        <line id="Linie_20" data-name="Linie 20" x1="2.266" y2="3.648" transform="translate(5.665 27.235)" fill="none" stroke="#ff0e00" stroke-miterlimit="10" stroke-width="1"/>
      </g>
      <line id="Linie_21" data-name="Linie 21" x2="5.291" y2="3.282" transform="translate(57.401 56.876)" fill="none" stroke="#72727c" stroke-miterlimit="10" stroke-width="1"/>
      <path id="Pfad_131" data-name="Pfad 131" d="M469.885,327.9a1.626,1.626,0,1,1-2.239.523A1.627,1.627,0,0,1,469.885,327.9Z" transform="translate(-406.81 -269.44)" fill="#ff0e00"/>
      <path id="Pfad_132" data-name="Pfad 132" d="M469.91,327.9a1.621,1.621,0,0,0-1.289-.182,1.558,1.558,0,0,1,.268.132,1.621,1.621,0,0,1-.426,2.944,1.625,1.625,0,0,0,1.446-2.894Z" transform="translate(-406.835 -269.44)" fill="#230753" opacity="0.1"/>
      <path id="Pfad_133" data-name="Pfad 133" d="M433.219,314.5a.547.547,0,0,1,.179.756h0a.551.551,0,0,1-.757.177l-9.309-5.779a.548.548,0,0,1-.177-.756h0a.546.546,0,0,1,.756-.177Z" transform="translate(-405.765 -268.992)" fill="#72727c"/>
    </g>
    <g id="Gruppe_100" data-name="Gruppe 100" transform="translate(36.066 291.098)">
      <g id="Gruppe_99" data-name="Gruppe 99">
        <g id="Gruppe_97" data-name="Gruppe 97">
          <path id="Pfad_134" data-name="Pfad 134" d="M61.381,367.448s-10.55-1.13-9.489-13.14l-4.353-3.962s-4.566,9.091,2.383,17.2,14.394,5.043,14.394,5.043Z" transform="translate(-36.301 -293.037)" fill="#00b8e2"/>
          <path id="Pfad_135" data-name="Pfad 135" d="M47.538,350.346l.765.7a15.88,15.88,0,0,0,3.16,15.1c4.707,5.492,9.63,5.855,12.322,5.518l.531.931s-7.438,3.072-14.394-5.043S47.538,350.346,47.538,350.346Z" transform="translate(-36.301 -293.037)" fill="#230753" opacity="0.1"/>
          <path id="Pfad_136" data-name="Pfad 136" d="M87.478,403.138a13.173,13.173,0,0,0,18.559,1.619l11.779-9.885a13.173,13.173,0,0,0,1.621-18.56L95.058,347.278a13.163,13.163,0,0,0-18.552-1.623l-11.782,9.89A13.171,13.171,0,0,0,63.1,374.105Z" transform="translate(-36.63 -292.854)" fill="#ddd"/>
          <path id="Pfad_137" data-name="Pfad 137" d="M61.276,360.469a13.143,13.143,0,0,0,2.879,10.777l24.372,29.032a13.175,13.175,0,0,0,18.56,1.619l11.778-9.885a13.129,13.129,0,0,0,3.449-4.5,13.125,13.125,0,0,1-4.5,7.784l-11.779,9.885a13.173,13.173,0,0,1-18.559-1.619L63.1,374.527A13.163,13.163,0,0,1,61.276,360.469Z" transform="translate(-36.63 -293.275)" fill="#230753" opacity="0.1"/>
          <path id="Pfad_138" data-name="Pfad 138" d="M36.675,319.868c-1.408,17.06,12.711,32.152,31.527,33.706s35.217-11.023,36.621-28.083S92.117,293.335,73.3,291.784,38.083,302.805,36.675,319.868Z" transform="translate(-36.078 -291.654)" fill="#ddd"/>
          <path id="Pfad_139" data-name="Pfad 139" d="M42.94,324.559c-1.316,15.944,10.986,29.978,27.477,31.335s30.926-10.464,32.24-26.407S91.668,299.51,75.179,298.151,44.254,308.614,42.94,324.559Z" transform="translate(-36.225 -291.805)" fill="#040028"/>
          <path id="Pfad_140" data-name="Pfad 140" d="M98.075,342.686c-5.93,11.155-18.506,19.275-37.15,15.135-17.733-3.94-26.2-17.117-24.687-35.437a34.305,34.305,0,0,1,4.871-15.047s-6.487,35.655,21.6,42.217C88.281,355.536,98.075,342.686,98.075,342.686Z" transform="translate(-36.066 -292.024)" fill="#fff"/>
          <g id="Gruppe_78" data-name="Gruppe 78" transform="translate(1.955 49.513)">
            <path id="Pfad_141" data-name="Pfad 141" d="M48.956,353.559l1.919-2.579c1.133-1.572-.329-4.564-3.265-6.686s-6.234-2.563-7.368-.992l-1.78,2.414Z" transform="translate(-38.077 -342.362)" fill="#ddd"/>
            <path id="Pfad_142" data-name="Pfad 142" d="M38.452,345.774c-1.134,1.571.326,4.566,3.262,6.686s6.238,2.565,7.373.991-.325-4.565-3.266-6.683S39.586,344.2,38.452,345.774Z" transform="translate(-38.068 -342.42)" fill="#fff"/>
          </g>
          <path id="Pfad_143" data-name="Pfad 143" d="M89.887,307.923s-3.476-4.319-11.418-5.8c0,0-6.234-1.292-6.431.9,0,0-.583,2.482,4.526,2.11C76.564,305.135,84.491,304.438,89.887,307.923Z" transform="translate(-36.913 -291.892)" fill="#fff"/>
          <g id="Gruppe_83" data-name="Gruppe 83" transform="translate(76.368 24.052)">
            <g id="Gruppe_79" data-name="Gruppe 79" transform="translate(23.741)">
              <path id="Pfad_144" data-name="Pfad 144" d="M142.507,324.61a7.451,7.451,0,0,0-3.036,10.091l1.772,3.352a7.446,7.446,0,0,0,10.042,3.19h0a7.451,7.451,0,0,0,3.032-10.092l-1.77-3.352a7.447,7.447,0,0,0-10.04-3.189Z" transform="translate(-138.59 -316.462)" fill="#fff"/>
              <path id="Pfad_145" data-name="Pfad 145" d="M152.29,330.309a2.451,2.451,0,0,0-1.356,3.2h0a2.452,2.452,0,0,0,3.195,1.354l6.832-2.763a2.45,2.45,0,0,0,1.36-3.2h0a2.454,2.454,0,0,0-3.2-1.357Z" transform="translate(-138.876 -316.547)" fill="#fff"/>
              <path id="Pfad_146" data-name="Pfad 146" d="M150.8,325.6a2.587,2.587,0,0,0-.921,3.535h0a2.593,2.593,0,0,0,3.6.584l6.788-4.418a2.587,2.587,0,0,0,.922-3.533h0a2.583,2.583,0,0,0-3.6-.583Z" transform="translate(-138.847 -316.39)" fill="#fff"/>
              <path id="Pfad_147" data-name="Pfad 147" d="M145.91,323.893a2.586,2.586,0,0,0,.345,3.633h0a2.582,2.582,0,0,0,3.581-.678l4.871-6.469a2.586,2.586,0,0,0-.336-3.636h0a2.588,2.588,0,0,0-3.589.681Z" transform="translate(-138.749 -316.286)" fill="#fff"/>
              <path id="Pfad_148" data-name="Pfad 148" d="M140.816,327.87a2.4,2.4,0,0,0,2.162,2.626h0a2.406,2.406,0,0,0,2.719-2.036l.844-7a2.4,2.4,0,0,0-2.156-2.631h0a2.407,2.407,0,0,0-2.722,2.038Z" transform="translate(-138.642 -316.345)" fill="#fff"/>
              <path id="Pfad_149" data-name="Pfad 149" d="M150.982,334.186a2.412,2.412,0,0,0-2.454,2.359h0a2.4,2.4,0,0,0,2.238,2.554l7.041.307a2.4,2.4,0,0,0,2.457-2.345h0a2.4,2.4,0,0,0-2.234-2.558Z" transform="translate(-138.824 -316.708)" fill="#fff"/>
            </g>
            <g id="Gruppe_81" data-name="Gruppe 81" transform="translate(26.764 0.516)" opacity="0.1">
              <g id="Gruppe_80" data-name="Gruppe 80">
                <path id="Pfad_150" data-name="Pfad 150" d="M151.128,325.326l3.083-5.757a3.136,3.136,0,0,0,.357-2.754,2.587,2.587,0,0,1,.275,3.578l-3.715,4.933Z" transform="translate(-141.908 -316.815)" fill="#230753"/>
                <path id="Pfad_151" data-name="Pfad 151" d="M146.425,323.269l-.413-2.631c-.048-.559-.207-1.45-.848-1.628,2.272.9,1.3,3.51,1.261,4.258Z" transform="translate(-141.768 -316.867)" fill="#230753"/>
                <path id="Pfad_152" data-name="Pfad 152" d="M150.726,340.685a7.25,7.25,0,0,0,2.55-2.248l3.741.163a2.4,2.4,0,0,0,2.457-2.345,2.521,2.521,0,0,0-.253-1.2,2.477,2.477,0,0,1,.882,2.023,2.4,2.4,0,0,1-2.457,2.345l-3.739-.164a7.235,7.235,0,0,1-2.549,2.247,7.432,7.432,0,0,1-9.672-2.565A7.412,7.412,0,0,0,150.726,340.685Z" transform="translate(-141.686 -317.245)" fill="#230753"/>
                <path id="Pfad_153" data-name="Pfad 153" d="M153.865,329.555h0l5.876-5.063c1.1-1.118,1.573-2.11,1.085-3.212a2.329,2.329,0,0,1,.471.5,2.587,2.587,0,0,1-.922,3.533Z" transform="translate(-141.973 -316.92)" fill="#230753"/>
                <path id="Pfad_154" data-name="Pfad 154" d="M157.574,333.533s-1.765.716-1.77.716h0l4.646-2.961c1.2-.8,1.867-1.941,1.36-3.2-.02-.04-.046-.077-.063-.118a2.4,2.4,0,0,1,.693.944,2.451,2.451,0,0,1-1.36,3.2Z" transform="translate(-142.019 -317.078)" fill="#230753"/>
              </g>
            </g>
            <path id="Pfad_155" data-name="Pfad 155" d="M140.948,343.99s-19.694,14-26.672,8.063l.809-16.947s8.539,1.891,19.233-3.959c0,0-.613.918,3.619,8.179Z" transform="translate(-114.276 -316.636)" fill="#fff"/>
            <g id="Gruppe_82" data-name="Gruppe 82" transform="translate(0 14.51)">
              <path id="Pfad_156" data-name="Pfad 156" d="M139.313,341.7l1.635,2.537s-19.694,14-26.672,8.063l.109-2.236C121.287,353.494,136.139,343.855,139.313,341.7Z" transform="translate(-114.276 -331.395)" fill="#230753" opacity="0.1"/>
              <path id="Pfad_157" data-name="Pfad 157" d="M134.663,331.214c.049-.026.091-.042.136-.068a.585.585,0,0,0-.024.31C134.737,331.375,134.7,331.29,134.663,331.214Z" transform="translate(-114.756 -331.146)" fill="#fff"/>
            </g>
            <path id="Pfad_158" data-name="Pfad 158" d="M135.963,329.493a2.84,2.84,0,0,0-.811,3.914l5.226,9.394a2.846,2.846,0,0,0,3.752,1.372h0a2.84,2.84,0,0,0,.815-3.914l-5.231-9.4a2.845,2.845,0,0,0-3.752-1.367Z" transform="translate(-114.758 -316.59)" fill="#00b8e2"/>
            <path id="Pfad_159" data-name="Pfad 159" d="M142.651,344.257a2.842,2.842,0,0,0,.813-3.914l-5.228-9.4a3.211,3.211,0,0,0-1.975-1.56,2.89,2.89,0,0,1,3.49,1.474l5.231,9.4a2.84,2.84,0,0,1-.815,3.914,2.416,2.416,0,0,1-1.777.192C142.476,344.328,142.565,344.3,142.651,344.257Z" transform="translate(-114.794 -316.591)" fill="#230753" opacity="0.1"/>
          </g>
          <path id="Pfad_160" data-name="Pfad 160" d="M105.041,331.994s-2.374-1.232-6.264.176-18.16,6.65-18.16,6.65a13.483,13.483,0,0,0-7.061,6.478c-2.611,5.042-7.859,13.822-7.859,13.822a4.676,4.676,0,0,0,.63,5.232c2.154,2.686,21.116,23.8,21.116,23.8s3.426,2.863,3.1,5.958a2.4,2.4,0,0,0,2.546,2.927s2.138-.435,2.32,2.3,10.143,16.091,16.876,8.545,27.2-28.564,27.2-28.564,3.882-3.855-.645-8.2-5.437-1.166-5.821-6.388c0,0-.072-2.822-2.116-3.192s-1.177-1.728-1.177-1.728a2.382,2.382,0,0,0,.009-3.019c-1.273-1.427,1.235-4.278-3.919-4.7Z" transform="translate(-36.752 -292.593)" fill="#fff"/>
          <g id="Gruppe_85" data-name="Gruppe 85" transform="translate(28.422 38.902)" opacity="0.1">
            <g id="Gruppe_84" data-name="Gruppe 84">
              <path id="Pfad_161" data-name="Pfad 161" d="M129.729,359.806a1.249,1.249,0,0,0-.093.2c-.464-1.51.93-3.759-3.606-4.127l-20.776-20.1s-2.376-1.23-6.264.178S80.83,342.6,80.83,342.6a13.48,13.48,0,0,0-7.061,6.477c-2.612,5.044-7.86,13.824-7.86,13.824a3.254,3.254,0,0,0-.217.471,4.6,4.6,0,0,1,0-4.255s5.248-8.779,7.859-13.822a13.483,13.483,0,0,1,7.061-6.478s14.279-5.236,18.16-6.65,6.264-.176,6.264-.176l20.777,20.094c5.155.421,2.646,3.272,3.919,4.7A2.382,2.382,0,0,1,129.729,359.806Z" transform="translate(-65.173 -331.495)" fill="#230753"/>
              <path id="Pfad_162" data-name="Pfad 162" d="M140.612,375.62c-4.53-4.345-5.435-1.165-5.821-6.387,0,0-.072-2.823-2.115-3.193s-1.177-1.727-1.177-1.727a2.672,2.672,0,0,0,.467-2.19,3.242,3.242,0,0,0,.5.133c2.044.37,2.116,3.192,2.116,3.192.384,5.222,1.291,2.043,5.821,6.388,2.446,2.343,2.434,4.541,1.91,6.071A7.687,7.687,0,0,0,140.612,375.62Z" transform="translate(-66.732 -332.216)" fill="#230753"/>
            </g>
          </g>
          <path id="Pfad_163" data-name="Pfad 163" d="M94.213,341.562l-1.328,6.971a3.585,3.585,0,0,0,.685,2.67l12.572,18.184c1.136,1.527,2.8,1.5,4.59.878l16.825-7.076a3.068,3.068,0,0,0,1.2-2.628l.605-4.729" transform="translate(-37.403 -292.83)" fill="#cfcfcf"/>
          <path id="Pfad_164" data-name="Pfad 164" d="M95.619,367.907c-1.034,1.02-.716,3.016.708,4.46s3.417,1.782,4.454.762.71-3.016-.711-4.457S96.652,366.889,95.619,367.907Z" transform="translate(-37.454 -293.437)" fill="#cfcfcf"/>
          <path id="Pfad_165" data-name="Pfad 165" d="M88.166,355.4c-.864.851-.592,2.518.589,3.718s2.852,1.489,3.712.639.595-2.515-.592-3.714S89.03,354.552,88.166,355.4Z" transform="translate(-37.281 -293.144)" fill="#cfcfcf"/>
          <path id="Pfad_166" data-name="Pfad 166" d="M99.814,369.465c-1.425-1.441-3.417-1.785-4.452-.767a1.98,1.98,0,0,0-.308.4,2.043,2.043,0,0,1,.565-1.2c1.033-1.018,3.025-.675,4.451.766,1.254,1.269,1.646,2.971,1.015,4.057A4.032,4.032,0,0,0,99.814,369.465Z" transform="translate(-37.455 -293.437)" fill="#230753" opacity="0.1"/>
          <path id="Pfad_167" data-name="Pfad 167" d="M91.619,356.833c-1.188-1.2-2.845-1.489-3.708-.641a1.5,1.5,0,0,0-.228.3,1.739,1.739,0,0,1,.483-1.092c.864-.847,2.521-.56,3.71.642a2.934,2.934,0,0,1,.819,3.415A3.409,3.409,0,0,0,91.619,356.833Z" transform="translate(-37.282 -293.144)" fill="#230753" opacity="0.1"/>
          <path id="Pfad_168" data-name="Pfad 168" d="M108.525,362.794c1.021,1.369,2.534,1.385,4,.886l15.839-6.27a2.9,2.9,0,0,0,.293-4.078L114.862,334.79a2.965,2.965,0,0,0-3.99-.886L95.03,340.175a2.9,2.9,0,0,0-.3,4.079Z" transform="translate(-37.432 -292.64)" fill="#ddd"/>
          <path id="Pfad_169" data-name="Pfad 169" d="M97.77,368.643a1.735,1.735,0,0,0,.117,2.455h0a1.728,1.728,0,0,0,2.447,0l5.18-5.408a1.739,1.739,0,0,0-.115-2.456h0a1.736,1.736,0,0,0-2.456,0Z" transform="translate(-37.509 -293.328)" fill="#ddd"/>
          <path id="Pfad_170" data-name="Pfad 170" d="M97.77,368.643l5.173-5.407a1.736,1.736,0,0,1,2.456,0,1.846,1.846,0,0,1,.41.58,1.719,1.719,0,0,0-2.274.141l-5.172,5.409a1.686,1.686,0,0,0-.3,1.87,1.674,1.674,0,0,1-.18-.14A1.735,1.735,0,0,1,97.77,368.643Z" transform="translate(-37.509 -293.328)" fill="#230753" opacity="0.1"/>
          <path id="Pfad_171" data-name="Pfad 171" d="M103.981,349.1a1.8,1.8,0,0,0,2.523.229l9.689-3.977a1.8,1.8,0,0,0,.55-2.475l-3.751-5.142c-.546-.748-1.3-.785-2.526-.231l-9.686,3.978a1.8,1.8,0,0,0-.55,2.475Z" transform="translate(-37.571 -292.725)" fill="#040028"/>
          <g id="Gruppe_89" data-name="Gruppe 89" transform="translate(55.517 89.739)">
            <path id="Pfad_172" data-name="Pfad 172" d="M127.14,399.056s1.162-1.741-2.71-5.8-13.484-19.236-31.509-.7l24.835,20.715s2.807,1.311,4.4-.724S127.14,399.056,127.14,399.056Z" transform="translate(-92.922 -383.558)" fill="#fff"/>
            <g id="Gruppe_86" data-name="Gruppe 86" transform="translate(17.118 0.287)">
              <path id="Pfad_173" data-name="Pfad 173" d="M117.919,395.01l-5.943-4.341a4.119,4.119,0,0,1-.637-5.778,4.7,4.7,0,0,1,1.071-1.039c5.74,1.237,9.559,6.18,11.836,8.758a4.8,4.8,0,0,1-.63,1.243A4.123,4.123,0,0,1,117.919,395.01Z" transform="translate(-110.453 -383.852)" fill="#00b8e2"/>
            </g>
            <path id="Pfad_174" data-name="Pfad 174" d="M125.747,402.168s1.161-1.743-2.708-5.8c-3.7-3.87-13.623-18.691-30.117-3.81h0c18.025-18.538,27.636-3.355,31.509.7s2.71,5.8,2.71,5.8.284.264-1.393,3.112Z" transform="translate(-92.922 -383.558)" fill="#230753" opacity="0.1"/>
            <path id="Pfad_175" data-name="Pfad 175" d="M147.551,421.633s-3.752,2.707-12.382-3.761c0,0-6.35-4.754-12.125-4.18,0,0-2.548.794-2.508-2.157s6.429-13.113,6.429-13.113.435-1.184,2.964-.128a26.694,26.694,0,0,1,10.811,7.09s.979-1.528,4.235-8.284,7.341-1.411,7.341-1.411Z" transform="translate(-93.573 -383.796)" fill="#00b8e2"/>
            <path id="Pfad_176" data-name="Pfad 176" d="M147.551,421.633s-3.752,2.707-12.382-3.761c0,0-6.35-4.754-12.125-4.18,0,0-2.548.794-2.508-2.157s6.429-13.113,6.429-13.113.435-1.184,2.964-.128a26.694,26.694,0,0,1,10.811,7.09s.979-1.528,4.235-8.284,7.341-1.411,7.341-1.411Z" transform="translate(-93.573 -383.796)" fill="#00b8e2"/>
            <g id="Gruppe_88" data-name="Gruppe 88" transform="translate(32.349 9.889)" opacity="0.1">
              <g id="Gruppe_87" data-name="Gruppe 87">
                <path id="Pfad_177" data-name="Pfad 177" d="M151.293,397.878s-2.74-3.584-5.521-1.171c3.221-6.144,7.139-1.018,7.139-1.018l-4.765,25.944a3.55,3.55,0,0,1-1.3.456Z" transform="translate(-126.516 -393.685)" fill="#230753"/>
                <path id="Pfad_178" data-name="Pfad 178" d="M139.253,407.672a26.77,26.77,0,0,0-10.814-7.091,3.382,3.382,0,0,0-2.387-.341c.624-1.045,1.045-1.718,1.045-1.718s.435-1.185,2.964-.128a26.838,26.838,0,0,1,10.541,6.8C139.611,407.108,139.253,407.672,139.253,407.672Z" transform="translate(-126.051 -393.786)" fill="#230753"/>
              </g>
            </g>
            <path id="Pfad_179" data-name="Pfad 179" d="M145.086,415.135c-.521,3.306.579,6.23,2.466,6.532h0c1.882.3,3.836-2.138,4.362-5.447l2.32-14.529c.521-3.306-.583-6.229-2.464-6.529h0c-1.885-.3-3.835,2.137-4.364,5.443Z" transform="translate(-94.148 -383.831)" fill="#ddd"/>
            <path id="Pfad_180" data-name="Pfad 180" d="M153.118,397.134c-1.882-.3-3.835,2.133-4.362,5.441l-2.32,14.531a8.938,8.938,0,0,0,.273,4.2c-1.35-.918-2.059-3.4-1.624-6.167l2.32-14.531c.528-3.306,2.479-5.743,4.364-5.443a3.107,3.107,0,0,1,2.191,2.335A2.072,2.072,0,0,0,153.118,397.134Z" transform="translate(-94.148 -383.831)" fill="#230753" opacity="0.1"/>
          </g>
          <g id="Gruppe_94" data-name="Gruppe 94" transform="translate(23.172 63.864)">
            <g id="Gruppe_90" data-name="Gruppe 90" transform="translate(0 38.449)">
              <path id="Pfad_181" data-name="Pfad 181" d="M80.987,404.824a7.6,7.6,0,0,0-7.083-8.082l-3.858-.285a7.606,7.606,0,0,0-8.194,6.961h0a7.6,7.6,0,0,0,7.09,8.082l3.853.281a7.6,7.6,0,0,0,8.192-6.957Z" transform="translate(-59.845 -396.436)" fill="#fff"/>
              <path id="Pfad_182" data-name="Pfad 182" d="M71.069,410.256a2.508,2.508,0,0,0-2.038-2.9h0a2.5,2.5,0,0,0-2.9,2.032l-1.3,7.4a2.5,2.5,0,0,0,2.029,2.9h0a2.511,2.511,0,0,0,2.906-2.032Z" transform="translate(-59.914 -396.692)" fill="#fff"/>
              <path id="Pfad_183" data-name="Pfad 183" d="M75.927,411.488a2.629,2.629,0,0,0-2.558-2.7h0a2.633,2.633,0,0,0-2.451,2.794l.152,8.258a2.629,2.629,0,0,0,2.551,2.706h0a2.641,2.641,0,0,0,2.458-2.795Z" transform="translate(-60.059 -396.727)" fill="#fff"/>
              <path id="Pfad_184" data-name="Pfad 184" d="M80.009,408.158a2.638,2.638,0,0,0-3.329-1.669h0a2.628,2.628,0,0,0-1.348,3.462l2.959,7.713a2.638,2.638,0,0,0,3.327,1.672h0a2.632,2.632,0,0,0,1.349-3.466Z" transform="translate(-60.158 -396.669)" fill="#fff"/>
              <path id="Pfad_185" data-name="Pfad 185" d="M79.329,401.6a2.459,2.459,0,0,0-3.443.445h0a2.461,2.461,0,0,0,.289,3.455l5.6,4.513a2.448,2.448,0,0,0,3.438-.441h0a2.455,2.455,0,0,0-.287-3.455Z" transform="translate(-60.162 -396.545)" fill="#fff"/>
              <path id="Pfad_186" data-name="Pfad 186" d="M68.405,407.064a2.45,2.45,0,0,0-.706-3.394h0a2.453,2.453,0,0,0-3.421.553L60.2,410.146a2.455,2.455,0,0,0,.706,3.394h0a2.45,2.45,0,0,0,3.422-.557Z" transform="translate(-59.797 -396.595)" fill="#fff"/>
            </g>
            <g id="Gruppe_92" data-name="Gruppe 92" transform="translate(0.977 38.92)" opacity="0.1">
              <g id="Gruppe_91" data-name="Gruppe 91">
                <path id="Pfad_187" data-name="Pfad 187" d="M83.529,408.919a2.459,2.459,0,0,0-.286-3.457l-3.716-3a7.587,7.587,0,0,0-4.266-5.544,7.61,7.61,0,0,1,5.948,6.1l3.713,3a2.508,2.508,0,0,1-3.151,3.9l-.071-.058A2.551,2.551,0,0,0,83.529,408.919Z" transform="translate(-61.138 -396.918)" fill="#230753"/>
                <path id="Pfad_188" data-name="Pfad 188" d="M80.035,418.838c1.294-.5,1.589-1.29,1.351-3.465l-.965-6.334h0c.186.15-.21-.084,0,0l2.643,6.895a2.632,2.632,0,0,1-1.349,3.466,2.463,2.463,0,0,1-2.414-.425A2.208,2.208,0,0,0,80.035,418.838Z" transform="translate(-61.233 -397.203)" fill="#230753"/>
                <path id="Pfad_189" data-name="Pfad 189" d="M68.344,417.72l2.461-5.6-1.064,5.857a2.5,2.5,0,0,1-2.86,1.83,2.476,2.476,0,0,1-1.132-.527A3.021,3.021,0,0,0,68.344,417.72Z" transform="translate(-60.914 -397.276)" fill="#230753"/>
                <path id="Pfad_190" data-name="Pfad 190" d="M63.551,412.829l2.191-1.672-1.52,2.19a2.483,2.483,0,0,1-3.289.38c-.05-.034-.09-.078-.136-.114A3.534,3.534,0,0,0,63.551,412.829Z" transform="translate(-60.797 -397.254)" fill="#230753"/>
                <path id="Pfad_191" data-name="Pfad 191" d="M74.427,419.264l1.534-7.353h0l.146,7.913a2.641,2.641,0,0,1-2.458,2.794,2.347,2.347,0,0,1-1.56-.575C73.417,421.949,73.954,421.442,74.427,419.264Z" transform="translate(-61.063 -397.271)" fill="#230753"/>
              </g>
            </g>
            <path id="Pfad_192" data-name="Pfad 192" d="M76.982,392.746l-12.086.825s-3.181-4.035-2.45-20.029l.795-8.355a8.975,8.975,0,0,1,9.784-8.087h0a8.983,8.983,0,0,1,8.091,9.786S81.459,377.726,76.982,392.746Z" transform="translate(-59.857 -357.059)" fill="#fff"/>
            <path id="Pfad_193" data-name="Pfad 193" d="M77.251,367.646a8.984,8.984,0,0,0-8.091-9.787c-.16-.016-.32-.014-.481-.021a8.972,8.972,0,0,1,12.585,9.048s.344,10.84-4.133,25.86l-3.868.266C77.586,378.251,77.251,367.646,77.251,367.646Z" transform="translate(-60.006 -357.059)" fill="#230753" opacity="0.1"/>
            <g id="Gruppe_93" data-name="Gruppe 93" transform="translate(2.481 11.451)">
              <path id="Pfad_194" data-name="Pfad 194" d="M62.839,369.667a4.511,4.511,0,0,1,2.675-.88,4.122,4.122,0,0,1,4.3,3.911l.016,7.355a4.114,4.114,0,0,1-4.282,3.929,4.458,4.458,0,0,1-3.082-1.184,84.583,84.583,0,0,1-.022-8.978Z" transform="translate(-62.338 -368.787)" fill="#00b8e2"/>
            </g>
            <path id="Pfad_195" data-name="Pfad 195" d="M62.342,397.247a2.844,2.844,0,0,0,3.224,2.356l10.717-.885a2.837,2.837,0,0,0,2.8-2.848h0a2.841,2.841,0,0,0-3.225-2.36l-10.719.884a2.834,2.834,0,0,0-2.793,2.853Z" transform="translate(-59.857 -357.918)" fill="#00b8e2"/>
            <path id="Pfad_196" data-name="Pfad 196" d="M78.164,397.024a2.84,2.84,0,0,0-3.223-2.358l-10.719.884a3.335,3.335,0,0,0-1.712.637,3.06,3.06,0,0,1,2.629-1.793l10.719-.884a2.841,2.841,0,0,1,3.225,2.36A2.509,2.509,0,0,1,78,398.077,2.276,2.276,0,0,0,78.164,397.024Z" transform="translate(-59.861 -357.918)" fill="#230753" opacity="0.1"/>
          </g>
          <g id="Gruppe_96" data-name="Gruppe 96" transform="translate(82.791 71.141)">
            <path id="Pfad_197" data-name="Pfad 197" d="M163.367,373.91s-15.774-16.369-33.65-5.9c-6.446,3.772-8.863,6.167-8.863,6.167l8.183,15.162S145.12,385.3,156.2,389.2c0,0,2.529.682,3.674-.918Z" transform="translate(-120.854 -364.512)" fill="#fff"/>
            <g id="Gruppe_95" data-name="Gruppe 95" transform="translate(24.555 0.248)">
              <path id="Pfad_198" data-name="Pfad 198" d="M155.445,372.222l-6.932-2.463a4.066,4.066,0,0,1-2.351-4.994,32.03,32.03,0,0,1,13.819,5.835A3.97,3.97,0,0,1,155.445,372.222Z" transform="translate(-146.001 -364.766)" fill="#00b8e2"/>
            </g>
            <path id="Pfad_199" data-name="Pfad 199" d="M130.671,369.731c-4.853,2.235-8.507,3.393-9.817,4.445h0s2.418-2.4,8.863-6.167c17.876-10.467,33.65,5.9,33.65,5.9l-.647,2.666C159.856,373.9,146.366,362.491,130.671,369.731Z" transform="translate(-120.854 -364.512)" fill="#230753" opacity="0.1"/>
            <path id="Pfad_200" data-name="Pfad 200" d="M185.43,395.986s-3.753,2.7-12.382-3.759a21.115,21.115,0,0,0-10.934-2.257s-2.489.131-2.445-2.818,3.711-13.371,3.711-13.371.438-1.186,2.97-.127,8,1.455,12.266,6.081c0,0,.982-1.527,4.238-8.284s7.342-1.407,7.342-1.407Z" transform="translate(-121.768 -364.595)" fill="#00b8e2"/>
            <path id="Pfad_201" data-name="Pfad 201" d="M189.476,371.954s-4.084-5.348-7.341,1.409-3.46,7.761-3.46,7.761c-4.267-4.629-10.519-4.5-13.046-5.559-1.647-.688-2.4-.428-2.727-.163.335-.99.555-1.621.555-1.621s.438-1.186,2.97-.127,8,1.455,12.266,6.081c0,0,.982-1.527,4.238-8.284s7.342-1.407,7.342-1.407l-4.766,25.942a2.517,2.517,0,0,1-.489.237Z" transform="translate(-121.845 -364.595)" fill="#230753" opacity="0.1"/>
            <path id="Pfad_202" data-name="Pfad 202" d="M182.931,389.488c-.521,3.308.581,6.229,2.459,6.533h0c1.891.3,3.847-2.138,4.37-5.449l2.316-14.525c.527-3.312-.577-6.233-2.458-6.53h0c-1.887-.3-3.837,2.135-4.367,5.44Z" transform="translate(-122.313 -364.629)" fill="#ddd"/>
            <path id="Pfad_203" data-name="Pfad 203" d="M190.793,371.655c-1.885-.3-3.836,2.135-4.367,5.442l-2.32,14.529a9.248,9.248,0,0,0,.161,3.81c-1.157-1.056-1.741-3.377-1.337-5.949l2.32-14.531c.529-3.305,2.479-5.741,4.367-5.44,1.083.171,1.9,1.231,2.3,2.721A2.181,2.181,0,0,0,190.793,371.655Z" transform="translate(-122.313 -364.629)" fill="#230753" opacity="0.1"/>
          </g>
          <path id="Pfad_204" data-name="Pfad 204" d="M89.758,355.885a1.457,1.457,0,0,0,.1,2.049h0a1.452,1.452,0,0,0,2.046,0l4.311-4.512a1.443,1.443,0,0,0-.095-2.044h0a1.449,1.449,0,0,0-2.045,0Z" transform="translate(-37.322 -293.051)" fill="#ddd"/>
          <path id="Pfad_205" data-name="Pfad 205" d="M96.379,352.271a1.445,1.445,0,0,0-2.046,0l-4.312,4.509a1.367,1.367,0,0,0-.355.891,1.418,1.418,0,0,1,.093-1.781l4.313-4.509a1.449,1.449,0,0,1,2.045,0,1.491,1.491,0,0,1,.454,1.16A1.432,1.432,0,0,0,96.379,352.271Z" transform="translate(-37.322 -293.051)" fill="#230753" opacity="0.1"/>
        </g>
        <g id="Gruppe_98" data-name="Gruppe 98" transform="translate(68.312 54.235)">
          <path id="Pfad_206" data-name="Pfad 206" d="M106.039,354.169a2.315,2.315,0,1,0,4.6.49l.026-.9-4.611-.175Z" transform="translate(-106.026 -347.348)" fill="#00add4"/>
          <path id="Pfad_207" data-name="Pfad 207" d="M106.06,353.546a2.334,2.334,0,1,0,2.519-1.783A2.194,2.194,0,0,0,106.06,353.546Z" transform="translate(-106.026 -347.304)" fill="#00b8e2"/>
          <path id="Pfad_208" data-name="Pfad 208" d="M112.98,360.145a1.808,1.808,0,1,0,3.6.386l.022-.7-3.6-.139Z" transform="translate(-106.189 -347.492)" fill="#b5052f"/>
          <path id="Pfad_209" data-name="Pfad 209" d="M113,359.658a1.823,1.823,0,1,0,1.965-1.392A1.713,1.713,0,0,0,113,359.658Z" transform="translate(-106.19 -347.458)" fill="#ce0636"/>
          <path id="Pfad_210" data-name="Pfad 210" d="M120.327,357.084a1.809,1.809,0,0,0,3.6.386l.02-.7-3.6-.139Z" transform="translate(-106.362 -347.419)" fill="#b5052f"/>
          <path id="Pfad_211" data-name="Pfad 211" d="M120.344,356.6a1.824,1.824,0,1,0,1.966-1.392A1.712,1.712,0,0,0,120.344,356.6Z" transform="translate(-106.363 -347.386)" fill="#ce0636"/>
          <path id="Pfad_212" data-name="Pfad 212" d="M117.312,349.619a2.316,2.316,0,1,0,4.607.489l.026-.893-4.612-.177Z" transform="translate(-106.291 -347.241)" fill="#00add4"/>
          <path id="Pfad_213" data-name="Pfad 213" d="M117.334,348.995a2.335,2.335,0,1,0,2.517-1.782A2.2,2.2,0,0,0,117.334,348.995Z" transform="translate(-106.292 -347.197)" fill="#00b8e2"/>
          <path id="Pfad_214" data-name="Pfad 214" d="M111.895,351.8a2.315,2.315,0,1,0,4.6.49l.028-.9-4.612-.176Z" transform="translate(-106.164 -347.292)" fill="#00add4"/>
          <path id="Pfad_215" data-name="Pfad 215" d="M111.917,351.178a2.335,2.335,0,1,0,2.519-1.782A2.2,2.2,0,0,0,111.917,351.178Z" transform="translate(-106.164 -347.249)" fill="#00b8e2"/>
        </g>
      </g>
      <path id="Pfad_216" data-name="Pfad 216" d="M69.186,304.371a1.728,1.728,0,1,1-1.728-1.728A1.729,1.729,0,0,1,69.186,304.371Z" transform="translate(-36.765 -291.913)" fill="#fff"/>
    </g>
  </g>
</svg>
