<?xml version="1.0" encoding="utf-8"?>
<!-- Generator: Adobe Illustrator 23.0.6, SVG Export Plug-In . SVG Version: 6.00 Build 0)  -->
<svg version="1.1" id="Layer_1" xmlns="http://www.w3.org/2000/svg" xmlns:xlink="http://www.w3.org/1999/xlink" x="0px" y="0px"
	 viewBox="0 0 42.1 47.3" style="enable-background:new 0 0 42.1 47.3;" xml:space="preserve">
<style type="text/css">
	.st0{fill:#FFFFFF;}
</style>
<path class="st0" d="M30.6,13.6L22,0.8c-0.8-1.1-2-1.1-2.7,0l-8,12.7c-0.7,1.1-0.2,2.1,1.1,2.1h2.3V20c0,1.4,1.1,2.5,2.5,2.5h7.5
	c1.4,0,2.5-1.1,2.5-2.5v-4.4h2.4C30.9,15.6,31.4,14.7,30.6,13.6"/>
<g>
	<path class="st0" d="M7.9,32.3V47H4V32.3H0v-3.2h11.9v3.2H7.9z"/>
	<path class="st0" d="M20.6,47.3c-4.3,0-7.7-3.7-7.7-9.3c0-5.6,3.4-9.3,7.7-9.3c4.2,0,7.7,3.7,7.7,9.3
		C28.3,43.7,24.9,47.3,20.6,47.3z M20.6,32.2c-2,0-3.7,2.2-3.7,5.8c0,3.6,1.7,5.8,3.7,5.8c2,0,3.7-2.2,3.7-5.8
		C24.4,34.4,22.6,32.2,20.6,32.2z"/>
	<path class="st0" d="M37,39.7h-2V47h-3.8V29.1H37c2.7,0,5.1,2.1,5.1,5.3S39.7,39.7,37,39.7z M36.5,32.2H35v4.4h1.5
		c0.9,0,1.8-0.8,1.8-2.2C38.3,33,37.4,32.2,36.5,32.2z"/>
</g>
</svg>
