<?xml version="1.0" encoding="utf-8"?>
<!-- Generator: Adobe Illustrator 23.0.6, SVG Export Plug-In . SVG Version: 6.00 Build 0)  -->
<svg version="1.1" id="Layer_1" xmlns="http://www.w3.org/2000/svg" xmlns:xlink="http://www.w3.org/1999/xlink" x="0px" y="0px"
	 viewBox="0 0 495.8 471.5" style="enable-background:new 0 0 495.8 471.5;" xml:space="preserve">
<style type="text/css">
	.st0{fill:none;stroke:#FFFFFF;stroke-width:1.5;stroke-linecap:round;stroke-linejoin:round;stroke-miterlimit:10;}
	.st1{fill:#FFFFFF;}
</style>
<line class="st0" x1="39.8" y1="134.9" x2="75.9" y2="43.4"/>
<path class="st1" d="M109.6,18.1c0,10-8.1,18.1-18.1,18.1s-18.1-8.1-18.1-18.1S81.5,0,91.5,0S109.6,8.1,109.6,18.1z"/>
<line class="st0" x1="112" y1="37.3" x2="150.6" y2="340.8"/>
<line class="st0" x1="179.5" y1="363.7" x2="261.4" y2="199.9"/>
<path class="st1" d="M293.3,171c0,10.3-8.4,18.7-18.7,18.7c-10.3,0-18.7-8.4-18.7-18.7s8.4-18.7,18.7-18.7
	C284.9,152.4,293.3,160.7,293.3,171z"/>
<line class="st0" x1="305.9" y1="172.2" x2="377" y2="181.9"/>
<path class="st1" d="M405.9,185.5c0,5.3-4.3,9.6-9.6,9.6c-5.3,0-9.6-4.3-9.6-9.6s4.3-9.6,9.6-9.6
	C401.6,175.8,405.9,180.1,405.9,185.5z"/>
<line class="st0" x1="407.1" y1="198.7" x2="449.3" y2="266.2"/>
<path class="st1" d="M473.3,292.7c0,8.6-7,15.7-15.7,15.7c-8.6,0-15.7-7-15.7-15.7s7-15.7,15.7-15.7S473.3,284,473.3,292.7z"/>
<line class="st0" x1="458.9" y1="317.9" x2="448" y2="391.4"/>
<line class="st0" x1="346.9" y1="450.4" x2="417.9" y2="422.7"/>
<path class="st1" d="M335.4,455.2c0,9-7.3,16.3-16.3,16.3s-16.3-7.3-16.3-16.3s7.3-16.3,16.3-16.3
	C328.2,439,335.4,446.3,335.4,455.2z"/>
<line class="st0" x1="381.8" y1="162.6" x2="340.9" y2="112"/>
<path class="st1" d="M344.5,92.7c0,9.3-7.5,16.9-16.9,16.9c-9.3,0-16.9-7.5-16.9-16.9c0-9.3,7.6-16.9,16.9-16.9
	C336.9,75.9,344.5,83.4,344.5,92.7z"/>
<line class="st0" x1="422.8" y1="179.4" x2="474.5" y2="144.5"/>
<line class="st0" x1="461.3" y1="61.8" x2="474.1" y2="112.4"/>
<path class="st1" d="M465.3,45.4c0,5.1-4.1,9.2-9.2,9.2c-5.1,0-9.2-4.1-9.2-9.2s4.1-9.2,9.2-9.2C461.2,36.1,465.3,40.3,465.3,45.4z"
	/>
<line class="st0" x1="376.2" y1="27.3" x2="441.2" y2="38.5"/>
<path class="st1" d="M368.2,27.3c0,4-3.2,7.2-7.2,7.2s-7.2-3.2-7.2-7.2s3.2-7.2,7.2-7.2C364.9,20.1,368.2,23.3,368.2,27.3z"/>
<line class="st0" x1="328" y1="68.2" x2="348.9" y2="40.1"/>
<g>
	<path class="st1" d="M54,141.3L38,143c-1,0.1-2-0.3-2.6-1.2L27,129.3c-1.4-2.1-4.6-1.4-5,1l-2.8,14.8c-0.1,1-1,1.9-1.9,2.1
		l-15.4,4.7c-2.3,0.7-2.6,3.8-0.6,5l14,7.9c0.9,0.6,1.4,1.4,1.4,2.5l-0.6,15.3c-0.1,2.4,2.8,3.8,4.6,2.1l11.5-10.4
		c0.8-0.7,1.8-0.9,2.8-0.6l14.7,5c2.3,0.8,4.4-1.6,3.4-3.8L46.6,161c-0.4-1-0.3-2,0.3-2.8l9.7-12.8C58,143.8,56.3,141.1,54,141.3z"
		/>
</g>
<g>
	<path class="st1" d="M162.7,346l-13.8,9.4c-0.9,0.6-2,0.7-3,0.2l-13.8-7.3c-2.3-1.2-4.9,0.9-4.1,3.4l4.7,14.9c0.3,1,0,2.1-0.7,2.9
		l-11.8,11.8c-1.8,1.8-0.6,4.8,1.9,4.9l16.7,0.5c1.1,0,2,0.6,2.5,1.6l6.9,14.3c1.1,2.2,4.4,2.1,5.3-0.3l5.5-15.1
		c0.4-1,1.2-1.7,2.2-1.9l15.9-2.6c2.5-0.4,3.3-3.6,1.3-5.1l-12.7-9.5c-0.9-0.7-1.3-1.7-1.1-2.7l2.7-16.5
		C167.5,346.3,164.7,344.6,162.7,346z"/>
</g>
<g>
	<path class="st1" d="M439.5,389.1l-9,6.1c-0.6,0.4-1.3,0.4-1.9,0.1l-9-4.8c-1.5-0.8-3.2,0.6-2.7,2.2l3,9.7c0.2,0.7,0,1.4-0.5,1.9
		l-7.7,7.7c-1.2,1.2-0.4,3.1,1.3,3.2l10.9,0.3c0.7,0,1.3,0.4,1.6,1l4.5,9.4c0.7,1.5,2.9,1.4,3.5-0.2l3.6-9.9
		c0.2-0.6,0.8-1.1,1.5-1.2l10.4-1.7c1.6-0.3,2.1-2.3,0.8-3.4l-8.3-6.2c-0.6-0.4-0.8-1.1-0.7-1.8l1.7-10.8
		C442.7,389.3,440.8,388.2,439.5,389.1z"/>
</g>
<g>
	<path class="st1" d="M483.7,114.2l-6.1,6.2c-0.4,0.4-0.9,0.5-1.5,0.4l-7.8-2.3c-1.3-0.4-2.4,1-1.7,2.1l3.9,7.1
		c0.3,0.5,0.2,1.1-0.1,1.5l-4.8,7.3c-0.7,1.1,0.2,2.5,1.5,2.3l8.6-1.5c0.6-0.1,1.1,0.1,1.4,0.6l5,6.6c0.8,1,2.5,0.6,2.7-0.7l1.2-8.3
		c0.1-0.5,0.4-1,1-1.2l7.8-3c1.2-0.5,1.3-2.2,0.1-2.8l-7.5-3.6c-0.5-0.2-0.8-0.7-0.8-1.3l-0.4-8.7
		C486.2,113.9,484.6,113.3,483.7,114.2z"/>
</g>
</svg>
