<svg xmlns="http://www.w3.org/2000/svg" xmlns:xlink="http://www.w3.org/1999/xlink" width="427.521" height="342.664" viewBox="0 0 427.521 342.664">
  <defs>
    <linearGradient id="linear-gradient" x1="0.048" y1="0.044" x2="0.866" y2="0.871" gradientUnits="objectBoundingBox">
      <stop offset="0" stop-color="#000c54"/>
      <stop offset="0.127" stop-color="#0d105a"/>
      <stop offset="0.364" stop-color="#301d6a"/>
      <stop offset="0.682" stop-color="#693285"/>
      <stop offset="1" stop-color="#a949a3"/>
    </linearGradient>
    <linearGradient id="linear-gradient-2" x1="-0.227" y1="-0.052" x2="0.702" y2="0.674" gradientUnits="objectBoundingBox">
      <stop offset="0" stop-color="#60308b"/>
      <stop offset="1" stop-color="#a949a3"/>
    </linearGradient>
  </defs>
  <g id="Gruppe_43" data-name="Gruppe 43" transform="translate(125.114)">
    <g id="Gruppe_42" data-name="Gruppe 42" transform="translate(-125.114)">
      <path id="Pfad_41" data-name="Pfad 41" d="M302.406,12.291A35.433,35.433,0,0,0,300.219,0H-124.631V125.315l-.483,127.464v88.868a30.6,30.6,0,0,0,7.832,1.017A30.563,30.563,0,0,0-86.718,312.1a30.419,30.419,0,0,0-5.86-17.99,17.5,17.5,0,0,0,3.415.339,17.4,17.4,0,0,0,17.4-17.4,17.318,17.318,0,0,0-1.5-7.04,17.451,17.451,0,0,0,2.31.17,17.38,17.38,0,0,0,14.418-7.658,22.248,22.248,0,0,0,16.374,7.182,22.328,22.328,0,0,0,22.324-22.182,22.324,22.324,0,0,0,16.462-11.21,30.55,30.55,0,0,0,46.661-8.252A22.226,22.226,0,0,0,73.406,232.3a17.377,17.377,0,0,0,29.856.854,17.378,17.378,0,0,0,30.98-15.333,17.391,17.391,0,0,0,11.833-16.394,17.344,17.344,0,0,0,23.079-5.064A22.314,22.314,0,0,0,208,174.617a22.334,22.334,0,0,0,19.509-17.3A22.319,22.319,0,0,0,259.586,127.1,16.84,16.84,0,0,0,254.9,95.807a16.938,16.938,0,0,0,.227-2.646A16.765,16.765,0,0,0,250.5,81.592a16.765,16.765,0,0,0,4.625-11.568,17.187,17.187,0,0,0-.086-1.719,18.153,18.153,0,0,0,15.316.683,10.191,10.191,0,1,0,11.281-16.871,18.172,18.172,0,0,0-1.383-6.931A35.5,35.5,0,0,0,302.406,12.291Z" transform="translate(125.114)" fill="url(#linear-gradient)"/>
    </g>
    <path id="Pfad_42" data-name="Pfad 42" d="M173.559,43.86A26.164,26.164,0,0,0,158.6,20.229a25.9,25.9,0,0,0,.69-20.2H-124.631V171.675c-.164.047-.321.11-.483.16v38.732a20.313,20.313,0,0,0,6.127.944,20.323,20.323,0,0,0,20.324-20.323,20.235,20.235,0,0,0-1.455-7.523,26.173,26.173,0,0,0,5.574.608,26.168,26.168,0,0,0,23.812-15.336,37.1,37.1,0,0,0,24.839,9.5,37.049,37.049,0,0,0,20.175-5.947A20.306,20.306,0,0,0-5.453,191.636a20.257,20.257,0,0,0,14.462-6.052,26.167,26.167,0,1,0,44.556-27.421,26.186,26.186,0,0,0,15.363-20.032,26.146,26.146,0,0,0,37.1-23.782,26.352,26.352,0,0,0-.168-2.892,37.234,37.234,0,0,0,50.6-43.065A26.172,26.172,0,0,0,173.559,43.86Z" transform="translate(0 0.007)" fill="url(#linear-gradient-2)"/>
  </g>
</svg>
