<svg xmlns="http://www.w3.org/2000/svg" xmlns:xlink="http://www.w3.org/1999/xlink" width="406.68" height="798.9" viewBox="0 0 406.68 798.9">
  <defs>
    <linearGradient id="linear-gradient" x1="0.278" y1="0.762" x2="1.501" y2="0.26" gradientUnits="objectBoundingBox">
      <stop offset="0" stop-color="#000c54"/>
      <stop offset="0.152" stop-color="#0d1058"/>
      <stop offset="0.437" stop-color="#301d65"/>
      <stop offset="0.82" stop-color="#693078"/>
      <stop offset="1" stop-color="#873b83"/>
    </linearGradient>
  </defs>
  <path id="Pfad_217" data-name="Pfad 217" d="M667.753,776.988a36.909,36.909,0,0,0-21.29,47.468,36.9,36.9,0,0,0-18.753,27.062,50.5,50.5,0,0,0-67.1,40.41,36.743,36.743,0,0,0-45.9,10.142,28.727,28.727,0,0,0-46.576,16.392A28.728,28.728,0,0,0,429.422,960.5a28.749,28.749,0,0,0-8.534,32.313,28.675,28.675,0,0,0-32.608,21.5,36.887,36.887,0,0,0-47.045,56.6,36.92,36.92,0,0,0-19.842,38.269,36.877,36.877,0,0,0-32.68,64.812,36.876,36.876,0,0,0,32.68,64.814,36.92,36.92,0,0,0,19.842,38.269,36.891,36.891,0,0,0,47.045,56.6,28.675,28.675,0,0,0,32.608,21.5,28.749,28.749,0,0,0,8.534,32.313,28.732,28.732,0,0,0,38.709,42.035,28.728,28.728,0,0,0,46.576,16.391,36.743,36.743,0,0,0,45.9,10.142,50.5,50.5,0,0,0,67.1,40.41,36.9,36.9,0,0,0,18.753,27.062,36.878,36.878,0,0,0,34.232,49.913v-798.9A36.634,36.634,0,0,0,667.753,776.988Z" transform="translate(-274.014 -774.542)" fill="url(#linear-gradient)"/>
</svg>
