<?xml version="1.0" encoding="utf-8"?>
<!-- Generator: Adobe Illustrator 23.0.6, SVG Export Plug-In . SVG Version: 6.00 Build 0)  -->
<svg version="1.1" id="Layer_1" xmlns="http://www.w3.org/2000/svg" xmlns:xlink="http://www.w3.org/1999/xlink" x="0px" y="0px"
	 viewBox="0 0 182.7 90.8" style="enable-background:new 0 0 182.7 90.8;" xml:space="preserve">
<style type="text/css">
	.st0{fill:#FFDF3C;}
	.st1{fill:#FF8948;}
	.st2{fill:#0096AF;}
	.st3{fill:#047D89;}
	.st4{fill:#036166;}
</style>
<g id="Gruppe_197" transform="translate(0)">
	<path id="Pfad_376" class="st0" d="M122.8,68.4c0,0-2.9,3.5-5.3,5.1c0,0,9.8-17,19.1-24c0,0-8.3,1.7-14.1,7.2
		c2.6-2.5,20.8-20.5,22.1-23.9c-3.5,1.3-21.5,19.5-24,22.1c5.6-5.8,7.2-14.1,7.2-14.1c-7,9.3-24,19.1-24,19.1
		c1.5-2.4,5.1-5.3,5.1-5.3c-6.2,2.5-19.3,18.6-19.3,18.6l7.3,7.3l7.3,7.3C104.2,87.7,120.3,74.6,122.8,68.4z"/>
	<path id="Pfad_377" class="st1" d="M109.7,74.4c-0.7,1-1.6,1.7-2.5,2.4c0,0,4.8-8.2,9.2-11.5c-2.5,0.5-4.9,1.8-6.8,3.5
		c1.3-1.3,10-9.8,10.7-11.5c-1.7,0.6-10.4,9.4-11.5,10.7c1.7-1.9,3-4.2,3.5-6.8c-3.4,4.5-11.5,9.2-11.5,9.2c0.7-1,1.5-1.8,2.4-2.5
		c-3,1.3-9.3,9-9.3,9l3.5,3.5l3.5,3.5C100.7,83.7,108.5,77.4,109.7,74.4z"/>
	<g id="Gruppe_159" transform="translate(67.912 97.986)">
		<path id="Pfad_378" class="st2" d="M39.2-16.8c-1.1,0.3-2.1-0.3-2.3-1.4c-0.2-1,0.3-2,1.3-2.3c-0.1-0.4,0-1,0.3-1.3
			c-2.3-5.2-8.3-7.5-13.6-5.2c-4,1.8-6.4,5.9-6,10.4c0.3,0.1,0.5,0.4,0.5,0.8c0,0.1,0,0.2,0,0.3c0.2,0.2,0.3,0.5,0.1,0.8
			c-0.1,0.1-0.1,0.1-0.2,0.2C20.9-9,26.7-6,32.1-7.7C36.1-8.9,39-12.6,39.2-16.8L39.2-16.8z"/>
		<path id="Pfad_379" class="st3" d="M23.7-20.9c0-1,0.8-1.8,1.8-1.8s1.8,0.8,1.8,1.8s-0.8,1.8-1.8,1.8l0,0
			C24.5-19.1,23.7-19.8,23.7-20.9z"/>
		<path id="Pfad_380" class="st4" d="M24.7-19.2C24-19.8,24-21,24.6-21.7c0.5-0.5,1.4-0.7,2.1-0.4c-0.7-0.6-1.9-0.6-2.5,0.1
			s-0.6,1.9,0.1,2.5C24.4-19.4,24.5-19.3,24.7-19.2z"/>
		<path id="Pfad_381" class="st3" d="M24.5-12c0-0.6,0.5-1.3,1.3-1.3c0.7,0,1.3,0.5,1.3,1.3c0,0.6-0.5,1.3-1.3,1.3l0,0
			C25-10.8,24.5-11.4,24.5-12z"/>
		<path id="Pfad_382" class="st4" d="M25.2-10.9c-0.5-0.4-0.5-1.3-0.1-1.7c0.3-0.4,1-0.5,1.4-0.3c-0.5-0.4-1.3-0.4-1.7,0.1
			c-0.4,0.5-0.4,1.3,0.1,1.7C24.9-11,25-10.9,25.2-10.9z"/>
		<path id="Pfad_383" class="st3" d="M30.6-14.2c0-0.5,0.4-1,1-1s1,0.4,1,1c0,0.5-0.4,1-1,1S30.6-13.7,30.6-14.2z"/>
		<path id="Pfad_384" class="st4" d="M31.2-13.4c-0.4-0.3-0.4-1-0.1-1.3c0.2-0.2,0.4-0.3,0.7-0.3c0.1,0,0.3,0,0.4,0.1
			c-0.4-0.3-1-0.3-1.3,0.1c-0.3,0.4-0.3,1,0.1,1.3C31-13.4,31.2-13.4,31.2-13.4z"/>
	</g>
	<path id="Pfad_385" class="st0" d="M88.9,50.2c0,0-4.1,5-7.5,7.1c0,0,13.8-24,26.9-33.7c0,0-11.7,2.3-19.8,10.1
		C92.3,30.1,118,4.9,119.7,0C114.8,1.7,89.5,27.5,86,31.1c7.8-8.1,10.1-19.9,10.1-19.9c-9.7,13.1-33.7,26.9-33.7,26.9
		c2.1-3.4,7.1-7.5,7.1-7.5c-8.7,3.6-27.3,26.2-27.3,26.2l10.3,10.3l10.3,10.3C62.7,77.5,85.3,58.9,88.9,50.2z"/>
	<path id="Pfad_386" class="st1" d="M70.4,58.6c-1.1,1.3-2.2,2.4-3.6,3.4c0,0,6.7-11.5,13-16.3c0,0-5.6,1.2-9.5,4.9
		c1.8-1.7,14.2-13.8,15-16.2C83,35.3,70.7,47.7,69,49.5c3.8-3.9,4.9-9.5,4.9-9.5c-4.8,6.3-16.3,13-16.3,13c1-1.4,2.1-2.5,3.4-3.6
		C56.9,51,48,61.9,48,61.9l5,5l5,5C57.8,71.8,68.7,62.8,70.4,58.6z"/>
	<g id="Gruppe_160" transform="translate(0 73.611)">
		<path id="Pfad_387" class="st2" d="M66.8-5.4c-1.5,0.4-3-0.5-3.3-1.9s0.4-2.7,1.7-3.2c-0.2-0.6,0-1.3,0.5-1.7
			c-3.3-7.3-11.8-10.6-19.1-7.3C41-17,37.7-11.1,38.2-5c0.6,0.2,1,1,0.7,1.6c0.3,0.2,0.3,0.7,0.1,1.1c-0.1,0.1-0.2,0.2-0.3,0.3
			c2.4,7.6,10.5,11.8,18.1,9.5C62.5,5.7,66.5,0.6,66.8-5.4C66.9-5.4,66.8-5.4,66.8-5.4z"/>
		<path id="Pfad_388" class="st3" d="M44.9-11.1c0-1.4,1.2-2.5,2.5-2.5c1.4,0,2.5,1.2,2.5,2.5s-1.2,2.5-2.5,2.5
			C46.1-8.5,44.9-9.7,44.9-11.1z"/>
		<path id="Pfad_389" class="st4" d="M46.4-8.8c-1.1-1-1.1-2.5-0.1-3.6c0.7-0.8,1.9-1.1,3-0.6c-1.1-1-2.6-0.8-3.6,0.1
			c-1,1.1-0.8,2.6,0.1,3.6C46-9,46.2-8.9,46.4-8.8z"/>
		<circle id="Ellipse_32" class="st3" cx="47.8" cy="1.3" r="1.7"/>
		<path id="Pfad_390" class="st4" d="M47.2,2.9c-0.7-0.6-0.7-1.7-0.1-2.4c0.5-0.5,1.3-0.7,2-0.4c-0.7-0.6-1.8-0.6-2.4,0.1
			C46,0.9,46,2,46.7,2.6C46.9,2.7,47,2.8,47.2,2.9z"/>
		<path id="Pfad_391" class="st3" d="M54.8-1.7C54.8-2.5,55.4-3,56-3c0.7,0,1.3,0.6,1.3,1.3S56.7-0.4,56-0.4l0,0
			C55.4-0.4,54.8-1,54.8-1.7z"/>
		<path id="Pfad_392" class="st4" d="M55.5-0.5C55-1,55-1.7,55.4-2.4c0.4-0.4,1-0.5,1.5-0.3c-0.4-0.5-1.3-0.4-1.8,0.1
			s-0.4,1.4,0.1,1.9C55.3-0.7,55.4-0.6,55.5-0.5z"/>
	</g>
</g>
</svg>
