<?xml version="1.0" encoding="utf-8"?>
<!-- Generator: Adobe Illustrator 23.0.6, SVG Export Plug-In . SVG Version: 6.00 Build 0)  -->
<svg version="1.1" id="Layer_1" xmlns="http://www.w3.org/2000/svg" xmlns:xlink="http://www.w3.org/1999/xlink" x="0px" y="0px"
	 viewBox="0 0 182.6 91" style="enable-background:new 0 0 182.6 91;" xml:space="preserve">
<style type="text/css">
	.st0{fill:#FFFFFF;}
	.st1{fill:#FF886E;}
	.st2{fill:#FFBD66;}
	.st3{fill:#FF5B74;}
</style>
<g id="Constellations" transform="translate(0)">
	<g id="Gruppe_153" transform="translate(4.477 2.454)">
		<path id="Pfad_365" class="st0" d="M173.6,44.6l-44.4,39.2l-41-25l0.5-0.8l-30.5,0.4l-32.5,0.9L3.2,82.6L0,79.5L23.8,55l34.3-1
			l30.3-0.4L143.3,0L173.6,44.6z M128.7,78.3l39-34.4l-25-36.9L92.3,56.1L128.7,78.3z"/>
	</g>
	<path id="Pfad_366" class="st1" d="M9.5,77.3l-3.8,2.9l-4.5-1.5l1.6,4.5L0,87.1l4.7-0.1l2.8,3.8l1.3-4.5l4.5-1.5l-3.9-2.7L9.5,77.3
		z"/>
	<path id="Pfad_367" class="st2" d="M32.6,53.5l-3.8,2.9l-4.5-1.5l1.6,4.5l-2.8,3.8l4.7-0.1l2.8,3.8l1.3-4.5l4.5-1.5l-3.9-2.7
		L32.6,53.5z"/>
	<path id="Pfad_368" class="st3" d="M65.9,52.1L62.1,55l-4.5-1.5l1.6,4.5l-2.8,3.8l4.7-0.1l2.8,3.8l1.3-4.5l4.5-1.5l-3.9-2.7
		L65.9,52.1z"/>
	<path id="Pfad_369" class="st2" d="M97.5,52.3l-3.8,2.9l-4.5-1.5l1.6,4.5L88,62l4.7-0.1l2.8,3.8l1.3-4.5l4.5-1.5L97.5,57L97.5,52.3
		z"/>
	<path id="Pfad_370" class="st1" d="M151.1,0l-3.8,2.9l-4.5-1.5l1.6,4.5l-2.8,3.8l4.7-0.1l2.8,3.8l1.3-4.5l4.5-1.5l-3.9-2.7L151.1,0
		z"/>
	<path id="Pfad_371" class="st3" d="M178.7,40.8l-3.8,2.9l-4.5-1.5l1.6,4.5l-2.8,3.8l4.7-0.1l2.8,3.8l1.3-4.5l4.5-1.5l-3.9-2.7
		L178.7,40.8z"/>
	<path id="Pfad_372" class="st2" d="M137,77.6l-3.8,2.9l-4.5-1.5l1.6,4.5l-2.8,3.8l4.7-0.1l2.8,3.8l1.3-4.5L141,85l-3.9-2.7
		L137,77.6z"/>
</g>
</svg>
