<?xml version="1.0" encoding="utf-8"?>
<!-- Generator: Adobe Illustrator 23.0.6, SVG Export Plug-In . SVG Version: 6.00 Build 0)  -->
<svg version="1.1" id="Layer_1" xmlns="http://www.w3.org/2000/svg" xmlns:xlink="http://www.w3.org/1999/xlink" x="0px" y="0px"
	 viewBox="0 0 589.1 293.7" style="enable-background:new 0 0 589.1 293.7;" xml:space="preserve">
<style type="text/css">
	.st0{fill:#FFFFFF;}
	.st1{fill:#FF886E;}
	.st2{fill:#FFBD66;}
	.st3{fill:#FF5B74;}
</style>
<g id="Constellations" transform="translate(0)">
	<g id="Gruppe_153" transform="translate(4.477 2.454)">
		<path id="Pfad_365" class="st0" d="M570.3,149.4L427,276l-132.3-80.7l1.6-2.6l-98.4,1.3L93,196.9l-72.6,75.2l-10.3-10L86.8,183
			l110.7-3.2l97.8-1.3l177.2-173L570.3,149.4z M425.4,258.2l125.9-111L470.6,28.1L307.9,186.5L425.4,258.2z"/>
	</g>
	<path id="Pfad_366" class="st1" d="M30.7,249.5l-12.3,9.4L3.9,254L9,268.5l-9,12.6l15.2-0.3l9,12.3l4.2-14.5l14.5-4.8L30.3,265
		L30.7,249.5z"/>
	<path id="Pfad_367" class="st2" d="M105.2,172.7L93,182l-14.5-4.8l5.2,14.5l-9,12.3l15.2-0.3l9,12.3l4.2-14.5l14.5-4.8L105,188
		L105.2,172.7z"/>
	<path id="Pfad_368" class="st3" d="M212.7,168.2l-12.3,9.4l-14.5-4.8l5.2,14.5l-9,12.3l15.2-0.3l9,12.3l4.2-14.5l14.5-4.8
		l-12.6-8.7L212.7,168.2z"/>
	<path id="Pfad_369" class="st2" d="M314.7,168.8l-12.3,9.4l-14.5-4.8l5.2,14.5l-9,12.3l15.2-0.3l9,12.3l4.2-14.5l14.5-4.8
		l-12.3-8.7L314.7,168.8L314.7,168.8z"/>
	<path id="Pfad_370" class="st1" d="M487.7,0l-12.3,9.4l-14.5-4.8l5.2,14.5l-9,12.3l15.2-0.3l9,12.3l4.2-14.5l14.5-4.8l-12.6-8.7
		L487.7,0z"/>
	<path id="Pfad_371" class="st3" d="M576.8,131.7l-12.3,9.4l-14.5-4.8l5.2,14.5l-9,12.3l15.2-0.3l9,12.3l4.2-14.5l14.5-4.8
		l-12.6-8.7L576.8,131.7z"/>
	<path id="Pfad_372" class="st2" d="M442.2,250.5l-12.3,9.4l-14.5-4.8l5.2,14.5l-9,12.3l15.2-0.3l9,12.3l4.2-14.5l15.2-4.8
		l-12.6-8.7L442.2,250.5z"/>
</g>
</svg>
