<?xml version="1.0" encoding="utf-8"?>
<!-- Generator: Adobe Illustrator 23.0.6, SVG Export Plug-In . SVG Version: 6.00 Build 0)  -->
<svg version="1.1" id="Layer_1" xmlns="http://www.w3.org/2000/svg" xmlns:xlink="http://www.w3.org/1999/xlink" x="0px" y="0px"
	 viewBox="0 0 204.8 162.4" style="enable-background:new 0 0 204.8 162.4;" xml:space="preserve">
<style type="text/css">
	.st0{fill:url(#Rechteck_48_1_);}
	.st1{fill:#FFFFFF;}
	.st2{fill:#0091C8;}
	.st3{fill:#0073AA;}
	.st4{clip-path:url(#SVGID_2_);}
	.st5{fill:#2BE279;}
</style>
<g id="Gruppe_204" transform="translate(-503.281 -850.969)">
	
		<linearGradient id="Rechteck_48_1_" gradientUnits="userSpaceOnUse" x1="406.6167" y1="1231.4287" x2="408.2726" y2="1230.6442" gradientTransform="matrix(204.828 0 0 -162.385 -82811.4453 200848.625)">
		<stop  offset="0" style="stop-color:#000C54"/>
		<stop  offset="0.127" style="stop-color:#0D105A"/>
		<stop  offset="0.364" style="stop-color:#301D6A"/>
		<stop  offset="0.682" style="stop-color:#693285"/>
		<stop  offset="1" style="stop-color:#A949A3"/>
	</linearGradient>
	<path id="Rechteck_48" class="st0" d="M503.3,851h204.8v162.4l0,0H503.3l0,0V851z"/>
	<path id="Pfad_299" class="st1" d="M545.6,890.4l0.6,1.5c0.1,0.3,0.4,0.5,0.6,0.6l1.5,0.6c0.6,0.2,0.9,0.9,0.6,1.5
		c-0.1,0.3-0.4,0.5-0.6,0.6l-1.5,0.6c-0.3,0.1-0.5,0.4-0.6,0.6l-0.6,1.5c-0.2,0.6-0.9,0.9-1.5,0.6c-0.3-0.1-0.5-0.4-0.6-0.6
		l-0.6-1.5c-0.1-0.3-0.4-0.5-0.7-0.7l-1.5-0.6c-0.6-0.2-0.9-0.9-0.6-1.5c0.1-0.3,0.4-0.5,0.6-0.6l1.5-0.6c0.3-0.1,0.5-0.4,0.6-0.6
		l0.6-1.5c0.2-0.6,0.9-0.9,1.5-0.6C545.3,889.9,545.5,890.1,545.6,890.4z"/>
	<path id="Pfad_296" class="st1" d="M681.7,868.1l1.4,3.5c0.3,0.7,0.8,1.2,1.5,1.5l3.4,1.4c1,0.4,1.7,1.3,1.8,2.4
		c0,1.2-0.7,2.2-1.7,2.6l-3.5,1.4c-0.7,0.3-1.2,0.8-1.5,1.5l-1.4,3.4c-0.4,1-1.3,1.7-2.4,1.8c-1.2,0-2.2-0.7-2.6-1.7l-1.4-3.5
		c-0.3-0.7-0.8-1.2-1.5-1.5l-3.4-1.4c-1-0.4-1.7-1.3-1.8-2.4c0-1.2,0.7-2.2,1.7-2.6l3.5-1.4c0.7-0.3,1.2-0.8,1.5-1.5l1.4-3.4
		c0.4-1,1.3-1.7,2.4-1.8C680.2,866.4,681.3,867.1,681.7,868.1z"/>
	<path id="Pfad_297" class="st1" d="M684.9,975.4l0.6,1.5c0.1,0.3,0.3,0.5,0.6,0.6l1.5,0.6c0.6,0.2,0.8,0.9,0.6,1.4
		c-0.1,0.3-0.3,0.5-0.6,0.6l-1.5,0.6c-0.3,0.1-0.5,0.3-0.6,0.6l-0.6,1.5c-0.2,0.6-0.9,0.8-1.4,0.6c-0.3-0.1-0.5-0.3-0.6-0.6
		l-0.6-1.5c-0.1-0.3-0.3-0.5-0.6-0.6l-1.5-0.6c-0.6-0.2-0.8-0.9-0.6-1.4c0.1-0.3,0.3-0.5,0.6-0.6l1.5-0.6c0.3-0.1,0.5-0.3,0.6-0.6
		l0.6-1.5c0.2-0.6,0.9-0.8,1.4-0.6C684.6,974.9,684.8,975.1,684.9,975.4z"/>
	<path id="Pfad_308" class="st1" d="M526.3,937.3l0.3,0.8c0.1,0.2,0.2,0.3,0.4,0.4l0.8,0.3c0.3,0.1,0.5,0.5,0.4,0.8
		c-0.1,0.2-0.2,0.3-0.4,0.4l-0.8,0.3c-0.2,0.1-0.3,0.2-0.4,0.4l-0.3,0.8c-0.1,0.3-0.5,0.5-0.8,0.4c-0.2-0.1-0.3-0.2-0.4-0.4
		l-0.3-0.8c-0.1-0.2-0.2-0.3-0.4-0.4l-0.8-0.3c-0.3-0.1-0.5-0.5-0.4-0.8c0.1-0.2,0.2-0.3,0.4-0.4l0.8-0.3c0.2-0.1,0.3-0.2,0.4-0.4
		l0.3-0.8c0.1-0.3,0.5-0.5,0.8-0.4C526.1,937,526.3,937.1,526.3,937.3z"/>
	<g id="Gruppe_133" transform="translate(558.171 870.538)">
		<circle id="Ellipse_17" class="st2" cx="49.2" cy="49.2" r="41"/>
		<path id="Pfad_304" class="st3" d="M49.2,8.2c-1.5,0-3,0.1-4.4,0.2c18.4,2.2,31.5,19.4,28.3,37.9C70.5,62,56.8,73.6,41,73.6
			c-16.8,0-30.6-12.5-32.5-28.8c-0.2,1.5-0.2,2.9-0.2,4.4c0,23.6,20,42.6,43.9,40.9c20.2-1.4,36.6-17.8,38-38
			C91.8,28.2,72.9,8.2,49.2,8.2C49.2,8.2,49.2,8.2,49.2,8.2L49.2,8.2z"/>
	</g>
	<g id="Gruppe_136" transform="translate(558.171 870.538)">
		<g>
			<defs>
				<circle id="SVGID_1_" cx="49.2" cy="49.2" r="41"/>
			</defs>
			<clipPath id="SVGID_2_">
				<use xlink:href="#SVGID_1_"  style="overflow:visible;"/>
			</clipPath>
			<g id="Gruppe_135" transform="translate(0)" class="st4">
				<g id="Gruppe_134" transform="translate(8.119 13.496)">
					<path id="Pfad_305" class="st5" d="M29,33.9l-1.4-1.2c-0.5-0.4-1.3-0.5-1.9-0.1l-2.6,1.5c-0.4,0.2-0.9,0.3-1.3,0.2l-3.2-0.9
						c-0.6-0.2-1-0.6-1.1-1.2l-0.2-1c-0.1-0.6-0.6-1-1.2-1.2L13,29c-0.8-0.2-1.4-1.1-1.2-2l0-0.1c0.2-0.9,1.1-1.4,2-1.2
						c0.1,0,0.1,0,0.2,0.1l6,2.2c0.4,0.1,0.8,0.1,1.2,0l2.5-1.1c0.4-0.2,0.7-0.5,0.8-0.9c0.6-1.3,1.1-2.7,1.5-4.1
						c0.5-0.9,1-1.6,1.7-2.3c0.2-0.2,0.4-0.3,0.6-0.4l1.9-0.8c0.7-0.3,1.6,0,2,0.7l0.1,0.1c0.5,0.8,1.5,1,2.2,0.6
						c0.2-0.1,0.3-0.3,0.5-0.4l0.8-1c0.3-0.4,0.4-0.8,0.3-1.3l-0.6-3.3c0-0.2-0.1-0.4-0.2-0.6l-1.2-1.8c-0.3-0.5-0.9-0.8-1.6-0.7
						l-6,0.8c-0.4,0-0.8,0-1.1-0.3l-0.7-0.5l3.4-1.7c0.1-0.1,0.2-0.1,0.4-0.1L31,8.1c0.9-0.2,1.4-1.1,1.2-2c0-0.1-0.1-0.3-0.1-0.4
						l-0.4-0.7c-0.3-0.6-0.9-0.9-1.5-0.9l-4.4,0.2c-0.5,0-0.9-0.2-1.3-0.5l-3.2-3.4c-0.5-0.5-1.1-0.6-1.8-0.4L4.1,5.9
						c-0.5,0.2-0.9,0.6-1,1.2L0,21c0,0.2,0,0.3,0,0.5l0.7,6.6c0.1,0.6,0.4,1,0.9,1.3L5,31.1l4.9,2.3c0.3,0.1,0.6,0.4,0.7,0.7
						l2.1,3.7c0.1,0.2,0.2,0.4,0.2,0.5l1,6.2c0,0.3,0.2,0.5,0.3,0.7l3,3.9c0,0.1,0.1,0.1,0.1,0.2L21,53c0.2,0.2,0.3,0.4,0.4,0.6
						l3.6,9.9c0,0.1,0,0.1,0.1,0.2l1.6,3.1c0.2,0.4,0.6,0.7,1,0.8l1.5,0.4c0.9,0.2,1.8-0.3,2-1.1c0,0,0-0.1,0-0.1l0,0
						c0-0.1,0-0.2,0-0.3l0.3-3.6c0-0.2,0-0.3,0.1-0.5l2.6-6.6c0.1-0.2,0.2-0.4,0.4-0.6l3.9-3.9c0.3-0.3,0.5-0.7,0.5-1.1l0.1-7.8
						c0-0.3-0.1-0.6-0.2-0.9l-2.5-4c-0.2-0.3-0.4-0.5-0.7-0.6l-6.2-2.9C29.2,34,29.1,34,29,33.9z"/>
					<path id="Pfad_306" class="st5" d="M79.2,25.3l-1.8-0.7c-0.2-0.1-0.4-0.1-0.6-0.1H63.9c0,0-0.1,0-0.1,0L58,24
						c-0.5,0-1,0.1-1.3,0.5l-1.3,1.4c-0.1,0.1-0.1,0.1-0.2,0.2L52,30.8c-0.2,0.3-0.3,0.6-0.3,1l0.2,6.6c0,0.4,0.1,0.7,0.4,1l2.8,3.3
						c0.3,0.3,0.7,0.5,1.1,0.6l4.8,0.4c0.1,0,0.1,0,0.2,0l2,0.4c0.6,0.1,1.1,0.5,1.2,1.1l1.4,4.1c0.1,0.4,0.1,0.9-0.1,1.3l-0.9,1.6
						c-0.2,0.3-0.2,0.7-0.2,1.1c0.3,1.5,1.1,5.3,1.1,5.6c0,0.3,0.2,5.6,0.4,8c0,0.7,0.6,1.3,1.3,1.5l2.7,0.6c0.6,0.1,1.1,0,1.5-0.4
						l8.8-8.9c0.3-0.3,0.4-0.7,0.5-1l0.8-12.9l0.5-9.6c0-0.1,0-0.3,0-0.4l-2-9.3C80.1,25.9,79.7,25.5,79.2,25.3z"/>
					<path id="Pfad_307" class="st5" d="M62.9,18.3l0.5-0.3c0.6-0.4,1.3-0.3,1.8,0l0.7,0.5c0.2,0.2,0.4,0.4,0.5,0.6l0.9,1.9
						c0.3,0.5,0.8,0.9,1.4,0.9l4.2,0.2c0.9,0,1.7-0.6,1.7-1.5c0-0.3,0-0.5-0.1-0.8l-1.1-2.4l3.2,3.8c0.5,0.5,1.2,0.7,1.9,0.4
						l0.2-0.1c0.6-0.3,1-0.9,1-1.6l-0.2-3.4c0-0.3-0.1-0.6-0.3-0.8C77.9,14,71.9,5.3,66.9,2.6c-0.8-0.4-1.8-0.1-2.2,0.7
						c-0.1,0.2-0.2,0.5-0.2,0.7l-0.2,4.9c0,0.1,0,0.2,0,0.2L64,10.7c-0.1,0.3-0.2,0.6-0.4,0.8l-1.8,2c-0.1,0.1-0.3,0.2-0.4,0.3
						l-3.6,1.9c-0.5,0.3-0.8,0.8-0.8,1.3l-0.2,2.1c0,0.5,0.2,1,0.5,1.3l0.4,0.4c0.6,0.6,1.5,0.6,2.2,0l2.8-2.4
						C62.7,18.4,62.8,18.4,62.9,18.3z"/>
				</g>
			</g>
		</g>
	</g>
</g>
</svg>
