<?xml version="1.0" encoding="utf-8"?>
<!-- Generator: Adobe Illustrator 23.0.6, SVG Export Plug-In . SVG Version: 6.00 Build 0)  -->
<svg version="1.1" id="Layer_1" xmlns="http://www.w3.org/2000/svg" xmlns:xlink="http://www.w3.org/1999/xlink" x="0px" y="0px"
	 viewBox="0 0 166.6 117.1" style="enable-background:new 0 0 166.6 117.1;" xml:space="preserve">
<style type="text/css">
	.st0{fill:#FFFFFF;}
	.st1{fill:#0091C8;}
	.st2{fill:#0073AA;}
	.st3{clip-path:url(#SVGID_2_);}
	.st4{fill:#2BE279;}
</style>
<path id="Pfad_299" class="st0" d="M22.4,24l0.6,1.5c0.1,0.3,0.4,0.5,0.6,0.6l1.5,0.6c0.6,0.2,0.9,0.9,0.6,1.5
	c-0.1,0.3-0.4,0.5-0.6,0.6l-1.5,0.6c-0.3,0.1-0.5,0.4-0.6,0.6l-0.6,1.5c-0.2,0.6-0.9,0.9-1.5,0.6c-0.3-0.1-0.5-0.4-0.6-0.6L19.7,30
	c-0.1-0.3-0.4-0.5-0.7-0.7l-1.5-0.6c-0.6-0.2-0.9-0.9-0.6-1.5c0.1-0.3,0.4-0.5,0.6-0.6L19,26c0.3-0.1,0.5-0.4,0.6-0.6l0.6-1.5
	c0.2-0.6,0.9-0.9,1.5-0.6C22.1,23.5,22.3,23.7,22.4,24z"/>
<path id="Pfad_296" class="st0" d="M158.5,1.7l1.4,3.5c0.3,0.7,0.8,1.2,1.5,1.5l3.4,1.4c1,0.4,1.7,1.3,1.8,2.4
	c0,1.2-0.7,2.2-1.7,2.6l-3.5,1.4c-0.7,0.3-1.2,0.8-1.5,1.5l-1.4,3.4c-0.4,1-1.3,1.7-2.4,1.8c-1.2,0-2.2-0.7-2.6-1.7l-1.4-3.5
	c-0.3-0.7-0.8-1.2-1.5-1.5l-3.4-1.4c-1-0.4-1.7-1.3-1.8-2.4c0-1.2,0.7-2.2,1.7-2.6l3.5-1.4c0.7-0.3,1.2-0.8,1.5-1.5l1.4-3.4
	c0.4-1,1.3-1.7,2.4-1.8C157,0,158.1,0.7,158.5,1.7z"/>
<path id="Pfad_297" class="st0" d="M161.7,109l0.6,1.5c0.1,0.3,0.3,0.5,0.6,0.6l1.5,0.6c0.6,0.2,0.8,0.9,0.6,1.4
	c-0.1,0.3-0.3,0.5-0.6,0.6l-1.5,0.6c-0.3,0.1-0.5,0.3-0.6,0.6l-0.6,1.5c-0.2,0.6-0.9,0.8-1.4,0.6c-0.3-0.1-0.5-0.3-0.6-0.6l-0.6-1.5
	c-0.1-0.3-0.3-0.5-0.6-0.6l-1.5-0.6c-0.6-0.2-0.8-0.9-0.6-1.4c0.1-0.3,0.3-0.5,0.6-0.6l1.5-0.6c0.3-0.1,0.5-0.3,0.6-0.6l0.6-1.5
	c0.2-0.6,0.9-0.8,1.4-0.6C161.4,108.5,161.6,108.7,161.7,109z"/>
<path id="Pfad_308" class="st0" d="M3.1,70.9l0.3,0.8c0.1,0.2,0.2,0.3,0.4,0.4l0.8,0.3c0.3,0.1,0.5,0.5,0.4,0.8
	c-0.1,0.2-0.2,0.3-0.4,0.4l-0.8,0.3c-0.2,0.1-0.3,0.2-0.4,0.4l-0.3,0.8c-0.1,0.3-0.5,0.5-0.8,0.4c-0.2-0.1-0.3-0.2-0.4-0.4l-0.3-0.8
	c-0.1-0.2-0.2-0.3-0.4-0.4l-0.8-0.3c-0.3-0.1-0.5-0.5-0.4-0.8c0.1-0.2,0.2-0.3,0.4-0.4l0.8-0.3c0.2-0.1,0.3-0.2,0.4-0.4l0.3-0.8
	c0.1-0.3,0.5-0.5,0.8-0.4C2.9,70.6,3.1,70.7,3.1,70.9z"/>
<circle id="Ellipse_17" class="st1" cx="84.2" cy="53.3" r="41"/>
<path id="Pfad_304" class="st2" d="M84.2,12.3c-1.5,0-3,0.1-4.4,0.2c18.4,2.2,31.5,19.4,28.3,37.9C105.5,66.1,91.8,77.7,76,77.7
	c-16.8,0-30.6-12.5-32.5-28.8c-0.2,1.5-0.2,2.9-0.2,4.4c0,23.6,20,42.6,43.9,40.9c20.2-1.4,36.6-17.8,38-38
	C126.8,32.3,107.9,12.3,84.2,12.3L84.2,12.3L84.2,12.3z"/>
<g>
	<g>
		<defs>
			<circle id="SVGID_1_" cx="84.2" cy="53.3" r="41"/>
		</defs>
		<clipPath id="SVGID_2_">
			<use xlink:href="#SVGID_1_"  style="overflow:visible;"/>
		</clipPath>
		<g id="Gruppe_135" transform="translate(0)" class="st3">
			<g id="Gruppe_134" transform="translate(8.119 13.496)">
				<path id="Pfad_305" class="st4" d="M64,38l-1.4-1.2c-0.5-0.4-1.3-0.5-1.9-0.1l-2.6,1.5c-0.4,0.2-0.9,0.3-1.3,0.2l-3.2-0.9
					c-0.6-0.2-1-0.6-1.1-1.2l-0.2-1c-0.1-0.6-0.6-1-1.2-1.2l-3.1-1c-0.8-0.2-1.4-1.1-1.2-2V31c0.2-0.9,1.1-1.4,2-1.2
					c0.1,0,0.1,0,0.2,0.1l6,2.2c0.4,0.1,0.8,0.1,1.2,0l2.5-1.1c0.4-0.2,0.7-0.5,0.8-0.9c0.6-1.3,1.1-2.7,1.5-4.1
					c0.5-0.9,1-1.6,1.7-2.3c0.2-0.2,0.4-0.3,0.6-0.4l1.9-0.8c0.7-0.3,1.6,0,2,0.7l0.1,0.1c0.5,0.8,1.5,1,2.2,0.6
					c0.2-0.1,0.3-0.3,0.5-0.4l0.8-1c0.3-0.4,0.4-0.8,0.3-1.3l-0.6-3.3c0-0.2-0.1-0.4-0.2-0.6l-1.2-1.8c-0.3-0.5-0.9-0.8-1.6-0.7
					l-6,0.8c-0.4,0-0.8,0-1.1-0.3l-0.7-0.5l3.4-1.7c0.1-0.1,0.2-0.1,0.4-0.1l2.5-0.8c0.9-0.2,1.4-1.1,1.2-2c0-0.1-0.1-0.3-0.1-0.4
					l-0.4-0.7c-0.3-0.6-0.9-0.9-1.5-0.9l-4.4,0.2c-0.5,0-0.9-0.2-1.3-0.5l-3.2-3.4c-0.5-0.5-1.1-0.6-1.8-0.4L39.1,10
					c-0.5,0.2-0.9,0.6-1,1.2L35,25.1c0,0.2,0,0.3,0,0.5l0.7,6.6c0.1,0.6,0.4,1,0.9,1.3l3.4,1.7l4.9,2.3c0.3,0.1,0.6,0.4,0.7,0.7
					l2.1,3.7c0.1,0.2,0.2,0.4,0.2,0.5l1,6.2c0,0.3,0.2,0.5,0.3,0.7l3,3.9c0,0.1,0.1,0.1,0.1,0.2l3.7,3.7c0.2,0.2,0.3,0.4,0.4,0.6
					l3.6,9.9c0,0.1,0,0.1,0.1,0.2l1.6,3.1c0.2,0.4,0.6,0.7,1,0.8l1.5,0.4c0.9,0.2,1.8-0.3,2-1.1v-0.1l0,0c0-0.1,0-0.2,0-0.3l0.3-3.6
					c0-0.2,0-0.3,0.1-0.5l2.6-6.6c0.1-0.2,0.2-0.4,0.4-0.6l3.9-3.9c0.3-0.3,0.5-0.7,0.5-1.1l0.1-7.8c0-0.3-0.1-0.6-0.2-0.9l-2.5-4
					c-0.2-0.3-0.4-0.5-0.7-0.6l-6.2-2.9C64.2,38.1,64.1,38.1,64,38z"/>
				<path id="Pfad_306" class="st4" d="M114.2,29.4l-1.8-0.7c-0.2-0.1-0.4-0.1-0.6-0.1H98.9h-0.1L93,28.1c-0.5,0-1,0.1-1.3,0.5
					L90.4,30c-0.1,0.1-0.1,0.1-0.2,0.2L87,34.9c-0.2,0.3-0.3,0.6-0.3,1l0.2,6.6c0,0.4,0.1,0.7,0.4,1l2.8,3.3
					c0.3,0.3,0.7,0.5,1.1,0.6l4.8,0.4c0.1,0,0.1,0,0.2,0l2,0.4c0.6,0.1,1.1,0.5,1.2,1.1l1.4,4.1c0.1,0.4,0.1,0.9-0.1,1.3l-0.9,1.6
					c-0.2,0.3-0.2,0.7-0.2,1.1c0.3,1.5,1.1,5.3,1.1,5.6s0.2,5.6,0.4,8c0,0.7,0.6,1.3,1.3,1.5l2.7,0.6c0.6,0.1,1.1,0,1.5-0.4l8.8-8.9
					c0.3-0.3,0.4-0.7,0.5-1l0.8-12.9l0.5-9.6c0-0.1,0-0.3,0-0.4l-2-9.3C115.1,30,114.7,29.6,114.2,29.4z"/>
				<path id="Pfad_307" class="st4" d="M97.9,22.4l0.5-0.3c0.6-0.4,1.3-0.3,1.8,0l0.7,0.5c0.2,0.2,0.4,0.4,0.5,0.6l0.9,1.9
					c0.3,0.5,0.8,0.9,1.4,0.9l4.2,0.2c0.9,0,1.7-0.6,1.7-1.5c0-0.3,0-0.5-0.1-0.8l-1.1-2.4l3.2,3.8c0.5,0.5,1.2,0.7,1.9,0.4l0.2-0.1
					c0.6-0.3,1-0.9,1-1.6l-0.2-3.4c0-0.3-0.1-0.6-0.3-0.8c-1.3-1.7-7.3-10.4-12.3-13.1c-0.8-0.4-1.8-0.1-2.2,0.7
					c-0.1,0.2-0.2,0.5-0.2,0.7L99.3,13c0,0.1,0,0.2,0,0.2L99,14.8c-0.1,0.3-0.2,0.6-0.4,0.8l-1.8,2c-0.1,0.1-0.3,0.2-0.4,0.3
					l-3.6,1.9c-0.5,0.3-0.8,0.8-0.8,1.3l-0.2,2.1c0,0.5,0.2,1,0.5,1.3l0.4,0.4c0.6,0.6,1.5,0.6,2.2,0l2.8-2.4
					C97.7,22.5,97.8,22.5,97.9,22.4z"/>
			</g>
		</g>
	</g>
</g>
</svg>
