<?xml version="1.0" encoding="utf-8"?>
<!-- Generator: Adobe Illustrator 23.0.6, SVG Export Plug-In . SVG Version: 6.00 Build 0)  -->
<svg version="1.1" id="Layer_1" xmlns="http://www.w3.org/2000/svg" xmlns:xlink="http://www.w3.org/1999/xlink" x="0px" y="0px"
	 viewBox="0 0 1555.3 174.4" style="enable-background:new 0 0 1555.3 174.4;" xml:space="preserve">
<style type="text/css">
	.st0{fill:url(#SVGID_1_);}
</style>
<linearGradient id="SVGID_1_" gradientUnits="userSpaceOnUse" x1="1941.2446" y1="833.7822" x2="-613.4832" y2="-689.3682">
	<stop  offset="0" style="stop-color:#60308B"/>
	<stop  offset="1" style="stop-color:#A949A3"/>
</linearGradient>
<path class="st0" d="M1553.5,157.4c-2.6-6.7-7.7-12.1-14.3-14.9c11.9-14.9,9.5-36.6-5.3-48.5c-14.9-11.9-36.6-9.5-48.5,5.3
	c-0.3,0.4-0.7,0.9-1,1.3c-8.3-8.4-20.4-12-31.9-9.4c1.2-19-13.2-35.4-32.2-36.7c-5-0.3-10,0.4-14.7,2.2c-0.9,0.3-1.7,0.7-2.6,1.1
	c-0.6-32.6-27.5-58.5-60.1-57.9c-31.5,0.6-57,25.8-57.9,57.3c-0.4-0.2-0.8-0.4-1.3-0.5c-17.8-6.9-37.7,2-44.6,19.7
	c-1.8,4.7-2.6,9.7-2.2,14.7c-11.6-2.5-23.6,1-31.9,9.4c-11.2-15.4-32.8-18.8-48.2-7.6c-1.1,0.8-2.1,1.6-3.1,2.5
	c-0.6-0.5-1.1-1-1.8-1.5c-14.9-11.9-36.6-9.5-48.5,5.3c-0.3,0.4-0.7,0.9-1,1.3c-8.3-8.4-20.4-12-31.9-9.4
	c1.2-19-13.2-35.4-32.2-36.7c-5-0.3-10,0.4-14.7,2.2c-0.9,0.3-1.7,0.7-2.6,1.1c-0.6-32.6-27.5-58.5-60.1-57.9
	c-31.5,0.6-57,25.8-57.9,57.3c-0.4-0.2-0.8-0.4-1.3-0.5c-17.8-6.9-37.7,2-44.6,19.7c-1.8,4.7-2.6,9.7-2.2,14.7
	c-11.6-2.5-23.6,1-31.9,9.4c-11.2-15.4-32.8-18.8-48.2-7.6c0,0,0,0-0.1,0c-14.8-10.8-35.7-8.2-47.3,6.3c-0.3,0.4-0.7,0.9-1,1.3
	c-8.3-8.4-20.4-12-31.9-9.4c1.2-19-13.2-35.4-32.2-36.7c-5-0.3-10,0.4-14.7,2.2c-0.9,0.3-1.7,0.7-2.6,1.1
	C644.4,25.2,617.5-0.7,584.9,0c-31.5,0.6-57,25.8-57.9,57.3c-0.4-0.2-0.8-0.4-1.3-0.5c-17.8-6.9-37.7,2-44.6,19.7
	c-1.8,4.7-2.6,9.7-2.2,14.7c-11.6-2.5-23.6,1-31.9,9.4c-11.2-15.4-32.8-18.8-48.2-7.6c0,0,0,0-0.1,0c-14.8-10.8-35.7-8.2-47.3,6.3
	c-0.3,0.4-0.7,0.9-1,1.3c-8.3-8.4-20.4-12-31.9-9.4c1.2-19-13.2-35.4-32.2-36.7c-5-0.3-10,0.4-14.7,2.2c-0.9,0.3-1.7,0.7-2.6,1.1
	C268.4,25.2,241.5-0.7,208.9,0c-31.5,0.6-57,25.8-57.9,57.3c-0.4-0.2-0.8-0.4-1.3-0.5c-17.8-6.9-37.7,2-44.6,19.7
	c-1.8,4.7-2.6,9.7-2.2,14.7c-11.6-2.5-23.6,1-31.9,9.4c-11.2-15.4-32.8-18.8-48.2-7.6c-15.4,11.2-18.8,32.8-7.6,48.2
	c0.3,0.4,0.7,0.9,1,1.3c-12.3,5.4-18.7,19-15,31.9h376h43.2H753h43.2H1135h37.2h382C1555.9,168.8,1555.6,162.8,1553.5,157.4z"/>
</svg>
