<?xml version="1.0" encoding="utf-8"?>
<!-- Generator: Adobe Illustrator 23.0.6, SVG Export Plug-In . SVG Version: 6.00 Build 0)  -->
<svg version="1.1" id="Layer_1" xmlns="http://www.w3.org/2000/svg" xmlns:xlink="http://www.w3.org/1999/xlink" x="0px" y="0px"
	 viewBox="0 0 68.6 56.6" style="enable-background:new 0 0 68.6 56.6;" xml:space="preserve">
<path d="M14.1,37.8c0.3,2.5,0.9,4.2,1.9,5.3c1.7,1.9,4.9,2.8,9.6,2.8c2.7,0,4.9-0.4,6.6-1.2c1.6-0.8,2.4-2,2.4-3.7
	c0-1.6-0.7-2.8-2-3.6s-6.2-2.2-14.6-4.2c-6-1.5-10.3-3.4-12.8-5.6c-2.5-2.2-3.7-5.4-3.7-9.6c0-4.9,1.9-9.1,5.8-12.7
	C11.2,1.8,16.6,0,23.6,0c6.7,0,12.1,1.3,16.3,4s6.6,7.2,7.2,13.7H33.3c-0.2-1.8-0.7-3.2-1.5-4.2c-1.5-1.9-4.1-2.8-7.8-2.8
	c-3,0-5.2,0.5-6.5,1.4s-1.9,2.1-1.9,3.3c0,1.6,0.7,2.8,2.1,3.5s6.2,2,14.5,3.9c5.5,1.3,9.7,3.3,12.5,5.9c2.7,2.7,4.1,6,4.1,10
	c0,5.3-2,9.6-5.9,12.9s-10,5-18.2,5c-8.5,0-14.7-1.8-18.7-5.3s-6-8-6-13.5H14.1z M53.8,40.2h14.8v14.6H53.8V40.2z"/>
</svg>
