<?xml version="1.0" encoding="utf-8"?>
<!-- Generator: Adobe Illustrator 23.0.6, SVG Export Plug-In . SVG Version: 6.00 Build 0)  -->
<svg version="1.1" id="Layer_1" xmlns="http://www.w3.org/2000/svg" xmlns:xlink="http://www.w3.org/1999/xlink" x="0px" y="0px"
	 viewBox="0 0 164.1 129.7" style="enable-background:new 0 0 164.1 129.7;" xml:space="preserve">
<style type="text/css">
	.st0{fill:#C8A06E;}
	.st1{fill:#A56941;}
	.st2{fill:#823214;}
	.st3{fill:#FFFFFF;}
</style>
<g id="Gruppe_120">
	<circle id="Ellipse_8" class="st0" cx="82.4" cy="46.8" r="46.8"/>
	<path id="Pfad_268" class="st1" d="M82.4,0c-1.7,0-3.4,0.1-5,0.3c21,2.5,35.9,22.2,32.2,43.4c-3,17.6-18.3,30.7-36.2,30.9
		c-19.3,0.2-35.3-14.1-37.5-32.8c-0.2,1.7-0.3,3.4-0.3,5c0,26.4,21.9,47.8,48.6,46.8c24.3-0.9,44-20.7,44.9-44.9
		C130.2,21.9,108.8,0,82.4,0L82.4,0L82.4,0z"/>
</g>
<path id="Pfad_269" class="st2" d="M62.1,88.9c11-2,24.2-7.6,37.2-16.5c13.5-9.2,23.9-19.8,29.7-29.5c-0.2-2.5-0.6-5-1.2-7.5
	c-4.1,9.8-14.7,22.2-31,33.3C81.1,79.4,66.2,84.6,55.7,85.2C57.7,86.6,59.8,87.9,62.1,88.9z"/>
<path id="Pfad_270" class="st1" d="M119.5,18.3c-3.2,10.2-14.1,23.9-32.1,36.1C69.6,66.5,52.8,71.5,42.2,70.8c1,1.6,2,3.1,3.1,4.6
	c0.6,0,1.2,0,1.8-0.1c11.9-0.9,27.4-6.8,42.8-17.2c16.2-11,27.9-24,32.6-35.2C121.6,21.3,120.6,19.7,119.5,18.3z"/>
<g id="Gruppe_121" transform="translate(6.63 18.269)">
	<path id="Pfad_271" class="st2" d="M116,4.6L116,4.6c-0.9-1.6-2-3.1-3.1-4.6c-1.5,4.7-4.6,10.2-9.4,16c0.1,1,0.1,2,0.1,3
		c0,1.3-0.1,2.6-0.2,3.9C109.2,16.7,113.5,10.4,116,4.6z"/>
	<path id="Pfad_272" class="st2" d="M47.7,51.4c-4,1-8,1.4-12.1,1.2c1,1.6,2,3.1,3.1,4.6c0.6,0,1.2,0,1.8-0.1
		c4.6-0.4,9.2-1.3,13.6-2.7C51.9,53.5,49.7,52.5,47.7,51.4z"/>
</g>
<path id="Pfad_273" class="st1" d="M112.2,10.7c-1.2-1-2.4-1.9-3.7-2.8c-4.5,9.6-14.8,21.4-30.4,32c-15.9,10.8-30.9,16-41.5,16.5
	c0.3,1.5,0.7,3,1.2,4.5h0.1c11.9-0.9,27.4-6.8,42.7-17.2C95.7,33.4,106.9,21.4,112.2,10.7z"/>
<g id="Gruppe_122" transform="translate(1.001 7.971)">
	<path id="Pfad_274" class="st2" d="M107.5,0c-1.4,2.9-3,5.6-4.9,8.2c0.9,1.3,1.8,2.7,2.5,4.2c2.3-3,4.4-6.2,6.1-9.6
		C110,1.8,108.8,0.9,107.5,0z"/>
	<path id="Pfad_275" class="st2" d="M39.7,48.1c-1.4,0.2-2.8,0.3-4.1,0.4c0.3,1.5,0.7,3,1.2,4.5h0.1c1.9-0.1,3.7-0.4,5.6-0.7
		C41.4,50.9,40.5,49.5,39.7,48.1z"/>
</g>
<path id="Pfad_276" class="st3" d="M13.2,4.1l1.4,3.6c0.3,0.7,0.8,1.2,1.5,1.5l3.4,1.4c1,0.4,1.8,1.3,1.8,2.4c0,1.2-0.7,2.2-1.7,2.6
	L16,17c-0.7,0.3-1.2,0.8-1.5,1.5L13.1,22c-0.4,1-1.3,1.8-2.4,1.8c-1.2,0-2.2-0.7-2.6-1.7l-1.4-3.6c-0.3-0.7-0.8-1.2-1.5-1.5
	l-3.4-1.4c-1-0.4-1.8-1.3-1.8-2.4C0,12,0.7,11,1.7,10.6l3.6-1.4C6,8.9,6.5,8.4,6.8,7.7l1.4-3.4c0.4-1,1.3-1.8,2.4-1.8
	C11.7,2.3,12.7,3,13.2,4.1z"/>
<path id="Pfad_277" class="st3" d="M146.1,115.5l1,2.6c0.2,0.5,0.6,0.9,1.1,1.1l2.5,1c0.7,0.3,1.2,0.9,1.3,1.6
	c0.1,0.9-0.4,1.7-1.2,2l-2.6,1c-0.5,0.2-0.9,0.6-1.1,1.1l-1,2.5c-0.3,0.7-0.9,1.2-1.6,1.3c-0.9,0.1-1.7-0.4-2-1.2l-1-2.6
	c-0.2-0.5-0.6-0.9-1.1-1.1l-2.5-1c-0.7-0.3-1.2-0.9-1.3-1.6c-0.1-0.9,0.4-1.7,1.2-2l2.6-1c0.5-0.2,0.9-0.6,1.1-1.1l1-2.5
	c0.3-0.7,0.9-1.2,1.6-1.3C145,114.2,145.8,114.7,146.1,115.5z"/>
<path id="Pfad_278" class="st3" d="M160.8,96.1l0.6,1.4c0.1,0.3,0.3,0.5,0.6,0.6l1.4,0.6c0.6,0.2,0.8,0.9,0.6,1.4
	c-0.1,0.3-0.3,0.5-0.6,0.6l-1.4,0.6c-0.3,0.1-0.5,0.3-0.6,0.6l-0.6,1.4c-0.2,0.6-0.9,0.8-1.4,0.6c-0.3-0.1-0.5-0.3-0.6-0.6l-0.6-1.4
	c-0.1-0.3-0.3-0.5-0.6-0.6l-1.4-0.6c-0.6-0.2-0.8-0.9-0.6-1.4c0.1-0.3,0.3-0.5,0.6-0.6l1.4-0.6c0.3-0.1,0.5-0.3,0.6-0.6l0.6-1.4
	c0.2-0.6,0.9-0.8,1.4-0.6C160.4,95.6,160.7,95.8,160.8,96.1z"/>
</svg>
