<?xml version="1.0" encoding="utf-8"?>
<!-- Generator: Adobe Illustrator 23.0.6, SVG Export Plug-In . SVG Version: 6.00 Build 0)  -->
<svg version="1.1" id="Layer_1" xmlns="http://www.w3.org/2000/svg" xmlns:xlink="http://www.w3.org/1999/xlink" x="0px" y="0px"
	 viewBox="0 0 204.8 162.4" style="enable-background:new 0 0 204.8 162.4;" xml:space="preserve">
<style type="text/css">
	.st0{fill:url(#Rechteck_48_1_);}
	.st1{fill:#C8A06E;}
	.st2{fill:#A56941;}
	.st3{fill:#823214;}
	.st4{fill:#FFFFFF;}
</style>
<g id="Gruppe_206" transform="translate(-282.173 -1120.791)">
	
		<linearGradient id="Rechteck_48_1_" gradientUnits="userSpaceOnUse" x1="185.5087" y1="1501.2507" x2="187.1646" y2="1500.4662" gradientTransform="matrix(204.828 0 0 -162.385 -37743.4453 244933.5)">
		<stop  offset="0" style="stop-color:#000C54"/>
		<stop  offset="0.127" style="stop-color:#0D105A"/>
		<stop  offset="0.364" style="stop-color:#301D6A"/>
		<stop  offset="0.682" style="stop-color:#693285"/>
		<stop  offset="1" style="stop-color:#A949A3"/>
	</linearGradient>
	<path id="Rechteck_48" class="st0" d="M282.2,1120.8H487v162.4l0,0H282.2l0,0V1120.8z"/>
	<g id="Gruppe_123" transform="translate(337.79 1137.542)">
		<g id="Gruppe_120">
			<circle id="Ellipse_8" class="st1" cx="46.8" cy="46.8" r="46.8"/>
			<path id="Pfad_268" class="st2" d="M46.8,0c-1.7,0-3.4,0.1-5,0.3C62.8,2.8,77.7,22.5,74,43.7c-3,17.6-18.3,30.7-36.2,30.9
				C18.5,74.8,2.5,60.5,0.3,41.8c-0.2,1.7-0.3,3.4-0.3,5c0,26.4,21.9,47.8,48.6,46.8c24.3-0.9,44-20.7,44.9-44.9
				C94.6,21.9,73.2,0,46.8,0C46.8,0,46.8,0,46.8,0L46.8,0z"/>
		</g>
		<path id="Pfad_269" class="st3" d="M26.5,88.9c11-2,24.2-7.6,37.2-16.5c13.5-9.2,23.9-19.8,29.7-29.5c-0.2-2.5-0.6-5-1.2-7.5
			c-4.1,9.8-14.7,22.2-31,33.3C45.5,79.4,30.6,84.6,20.1,85.2C22.1,86.6,24.2,87.9,26.5,88.9z"/>
		<path id="Pfad_270" class="st2" d="M83.9,18.3c-3.2,10.2-14.1,23.9-32.1,36.1C34,66.5,17.2,71.5,6.6,70.8c1,1.6,2,3.1,3.1,4.6
			c0.6,0,1.2,0,1.8-0.1c11.9-0.9,27.4-6.8,42.8-17.2c16.2-11,27.9-24,32.6-35.2C86,21.3,85,19.7,83.9,18.3z"/>
		<g id="Gruppe_121" transform="translate(6.63 18.269)">
			<path id="Pfad_271" class="st3" d="M80.4,4.6L80.4,4.6c-0.9-1.6-2-3.1-3.1-4.6c-1.5,4.7-4.6,10.2-9.4,16c0.1,1,0.1,2,0.1,3
				c0,1.3-0.1,2.6-0.2,3.9C73.6,16.7,77.9,10.4,80.4,4.6z"/>
			<path id="Pfad_272" class="st3" d="M12.1,51.4c-4,1-8,1.4-12.1,1.2c1,1.6,2,3.1,3.1,4.6c0.6,0,1.2,0,1.8-0.1
				c4.6-0.4,9.2-1.3,13.6-2.7C16.3,53.5,14.1,52.5,12.1,51.4z"/>
		</g>
		<path id="Pfad_273" class="st2" d="M76.6,10.7c-1.2-1-2.4-1.9-3.7-2.8c-4.5,9.6-14.8,21.4-30.4,32C26.6,50.7,11.6,55.9,1,56.4
			c0.3,1.5,0.7,3,1.2,4.5l0.1,0C14.2,60,29.7,54.1,45,43.7C60.1,33.4,71.3,21.4,76.6,10.7z"/>
		<g id="Gruppe_122" transform="translate(1.001 7.971)">
			<path id="Pfad_274" class="st3" d="M71.9,0c-1.4,2.9-3,5.6-4.9,8.2c0.9,1.3,1.8,2.7,2.5,4.2c2.3-3,4.4-6.2,6.1-9.6
				C74.4,1.8,73.2,0.9,71.9,0z"/>
			<path id="Pfad_275" class="st3" d="M4.1,48.1c-1.4,0.2-2.8,0.3-4.1,0.4c0.3,1.5,0.7,3,1.2,4.5l0.1,0c1.9-0.1,3.7-0.4,5.6-0.7
				C5.8,50.9,4.9,49.5,4.1,48.1z"/>
		</g>
	</g>
	<path id="Pfad_276" class="st4" d="M315.4,1141.6l1.4,3.6c0.3,0.7,0.8,1.2,1.5,1.5l3.4,1.4c1,0.4,1.8,1.3,1.8,2.4
		c0,1.2-0.7,2.2-1.7,2.6l-3.6,1.4c-0.7,0.3-1.2,0.8-1.5,1.5l-1.4,3.5c-0.4,1-1.3,1.8-2.4,1.8c-1.2,0-2.2-0.7-2.6-1.7l-1.4-3.6
		c-0.3-0.7-0.8-1.2-1.5-1.5l-3.4-1.4c-1-0.4-1.8-1.3-1.8-2.4c0-1.2,0.7-2.2,1.7-2.6l3.6-1.4c0.7-0.3,1.2-0.8,1.5-1.5l1.4-3.4
		c0.4-1,1.3-1.8,2.4-1.8C313.9,1139.8,314.9,1140.5,315.4,1141.6z"/>
	<path id="Pfad_277" class="st4" d="M448.3,1253l1,2.6c0.2,0.5,0.6,0.9,1.1,1.1l2.5,1c0.7,0.3,1.2,0.9,1.3,1.6
		c0.1,0.9-0.4,1.7-1.2,2l-2.6,1c-0.5,0.2-0.9,0.6-1.1,1.1l-1,2.5c-0.3,0.7-0.9,1.2-1.6,1.3c-0.9,0.1-1.7-0.4-2-1.2l-1-2.6
		c-0.2-0.5-0.6-0.9-1.1-1.1l-2.5-1c-0.7-0.3-1.2-0.9-1.3-1.6c-0.1-0.9,0.4-1.7,1.2-2l2.6-1c0.5-0.2,0.9-0.6,1.1-1.1l1-2.5
		c0.3-0.7,0.9-1.2,1.6-1.3C447.2,1251.7,448,1252.2,448.3,1253z"/>
	<path id="Pfad_278" class="st4" d="M463,1233.6l0.6,1.4c0.1,0.3,0.3,0.5,0.6,0.6l1.4,0.6c0.6,0.2,0.8,0.9,0.6,1.4
		c-0.1,0.3-0.3,0.5-0.6,0.6l-1.4,0.6c-0.3,0.1-0.5,0.3-0.6,0.6l-0.6,1.4c-0.2,0.6-0.9,0.8-1.4,0.6c-0.3-0.1-0.5-0.3-0.6-0.6
		l-0.6-1.4c-0.1-0.3-0.3-0.5-0.6-0.6l-1.4-0.6c-0.6-0.2-0.8-0.9-0.6-1.4c0.1-0.3,0.3-0.5,0.6-0.6l1.4-0.6c0.3-0.1,0.5-0.3,0.6-0.6
		l0.6-1.4c0.2-0.6,0.9-0.8,1.4-0.6C462.6,1233.1,462.9,1233.3,463,1233.6z"/>
</g>
</svg>
