<?xml version="1.0" encoding="utf-8"?>
<!-- Generator: Adobe Illustrator 23.0.6, SVG Export Plug-In . SVG Version: 6.00 Build 0)  -->
<svg version="1.1" id="Layer_1" xmlns="http://www.w3.org/2000/svg" xmlns:xlink="http://www.w3.org/1999/xlink" x="0px" y="0px"
	 viewBox="0 0 472.7 471.4" style="enable-background:new 0 0 472.7 471.4;" xml:space="preserve">
<style type="text/css">
	.st0{fill:#FFFFFF;}
	.st1{fill:none;stroke:#FFFFFF;stroke-width:1.5;stroke-linecap:round;stroke-linejoin:round;stroke-miterlimit:10;}
</style>
<path class="st0" d="M128.8,253.6c0,12-9.7,21.6-21.6,21.6c-12,0-21.6-9.7-21.6-21.6s9.7-21.6,21.6-21.6S128.8,241.7,128.8,253.6z"
	/>
<line class="st1" x1="75.6" y1="266" x2="20.2" y2="313.9"/>
<line class="st1" x1="426.7" y1="389.5" x2="350.1" y2="453.3"/>
<path class="st0" d="M339.5,460.2c0,6.2-5,11.2-11.2,11.2s-11.2-5-11.2-11.2s5-11.2,11.2-11.2C334.5,449.1,339.5,454.1,339.5,460.2z
	"/>
<line class="st1" x1="271.4" y1="390" x2="310.7" y2="448"/>
<line class="st1" x1="139.4" y1="263.9" x2="191.6" y2="322.4"/>
<line class="st1" x1="184.6" y1="361.8" x2="153.3" y2="408.1"/>
<path class="st0" d="M152.7,422.7c0,5.7-4.6,10.4-10.4,10.4c-5.7,0-10.4-4.6-10.4-10.4c0-5.7,4.6-10.4,10.4-10.4
	C148.1,412.3,152.7,417,152.7,422.7z"/>
<line class="st1" x1="78.2" y1="425.6" x2="125.1" y2="427.8"/>
<path class="st0" d="M70.5,421.4c0,4-3.2,7.2-7.2,7.2s-7.2-3.2-7.2-7.2s3.2-7.2,7.2-7.2C67.3,414.2,70.5,417.4,70.5,421.4z"/>
<line class="st1" x1="19.7" y1="345.8" x2="50.6" y2="415"/>
<line class="st1" x1="53.6" y1="149.7" x2="98.3" y2="227"/>
<path class="st0" d="M57.8,129.1c0,5.9-4.8,10.6-10.6,10.6c-5.9,0-10.6-4.8-10.6-10.6c0-5.9,4.8-10.6,10.6-10.6
	C53.1,118.5,57.8,123.2,57.8,129.1z"/>
<line class="st1" x1="49.3" y1="110.7" x2="76.3" y2="57.5"/>
<line class="st1" x1="108.2" y1="25.5" x2="194.8" y2="5"/>
<path class="st0" d="M220.3,7.8c0,4.3-3.5,7.8-7.8,7.8s-7.8-3.5-7.8-7.8s3.5-7.8,7.8-7.8S220.3,3.5,220.3,7.8z"/>
<line class="st1" x1="226.7" y1="16.3" x2="279.2" y2="75.2"/>
<path class="st0" d="M299.7,92.6c0,7.2-5.9,13.1-13.1,13.1s-13.1-5.9-13.1-13.1c0-7.3,5.9-13.1,13.1-13.1
	C293.9,79.5,299.7,85.3,299.7,92.6z"/>
<line class="st1" x1="289.8" y1="112.1" x2="287" y2="248.3"/>
<line class="st1" x1="280.9" y1="283.1" x2="270.3" y2="363.4"/>
<path class="st0" d="M275.4,376.2c0,3.7-3,6.7-6.6,6.7c-3.7,0-6.7-3-6.7-6.7s3-6.7,6.7-6.7C272.4,369.5,275.4,372.5,275.4,376.2z"/>
<g>
	<path class="st0" d="M114.7,33.9L103,33.5c-0.7,0-1.4-0.5-1.7-1.1l-4.7-9.8c-0.8-1.6-3.1-1.5-3.7,0.2l-3.5,10.3
		c-0.2,0.7-0.9,1.2-1.6,1.3l-11.5,1.8c-1.7,0.3-2.3,2.5-0.9,3.5l9.2,7.2c0.6,0.5,0.9,1.2,0.7,1.9l-2,10.9c-0.3,1.7,1.6,3,3.1,2
		l9.3-6.2c0.6-0.4,1.4-0.4,2-0.1l10,5.1c1.6,0.8,3.3-0.7,2.8-2.4l-3.2-10.6c-0.2-0.7,0-1.5,0.5-2l8.3-8.2
		C117.2,36.1,116.4,34,114.7,33.9z"/>
</g>
<g>
	<path class="st0" d="M296.1,255.8l-9.5,0.1c-0.6,0-1.1-0.3-1.4-0.9l-4.2-7.8c-0.7-1.3-2.6-1.1-3,0.3l-2.5,8.5
		c-0.2,0.6-0.7,1-1.2,1.1L265,259c-1.4,0.3-1.8,2.1-0.6,2.9l7.7,5.5c0.5,0.4,0.8,0.9,0.7,1.5l-1.2,8.9c-0.2,1.4,1.4,2.4,2.6,1.5
		l7.3-5.4c0.5-0.3,1.1-0.4,1.6-0.2l8.3,3.8c1.3,0.6,2.7-0.7,2.2-2l-3-8.5c-0.2-0.6-0.1-1.2,0.3-1.6l6.4-7
		C298.3,257.5,297.5,255.8,296.1,255.8z"/>
</g>
<g>
	<path class="st0" d="M212.6,346.4l-8.2-6.5c-0.5-0.4-0.8-1.1-0.6-1.7l1.8-9.6c0.3-1.6-1.5-2.7-2.8-1.8l-8.1,5.6
		c-0.5,0.4-1.3,0.4-1.9,0.1l-9.3-4.9c-1.4-0.7-3,0.6-2.6,2.1l2.8,10.1c0.2,0.7,0,1.3-0.5,1.8l-7.3,6.8c-1.1,1.1-0.4,3,1.2,3.1
		l10.1,0.5c0.7,0,1.2,0.4,1.5,1l4.5,9c0.7,1.4,2.8,1.3,3.3-0.2l3.3-9.4c0.2-0.6,0.8-1.1,1.4-1.2l10.4-1.5
		C213.3,349.3,213.8,347.3,212.6,346.4z"/>
</g>
<g>
	<path class="st0" d="M28.2,335.8l-4.7-6.6c-0.3-0.4-0.3-1-0.1-1.4l3.4-6.7c0.6-1.1-0.5-2.3-1.7-1.9l-7.2,2.4c-0.5,0.2-1,0-1.4-0.3
		l-5.8-5.6c-0.9-0.8-2.3-0.2-2.3,1l-0.1,8.1c0,0.5-0.3,1-0.7,1.2l-6.8,3.5c-1.1,0.6-1,2.1,0.2,2.5l7.4,2.5c0.5,0.2,0.8,0.6,0.9,1.1
		l1.4,7.7c0.2,1.2,1.8,1.6,2.5,0.6l4.5-6.2c0.3-0.4,0.8-0.6,1.3-0.6l8,1.1C28,338.1,28.9,336.8,28.2,335.8z"/>
</g>
<g>
	<path class="st0" d="M472.2,386.3l-9.6-13.6c-0.6-0.9-0.7-2-0.2-2.9l7-13.9c1.2-2.3-1-4.8-3.4-4l-14.8,4.9c-1,0.4-2.1,0.1-2.9-0.7
		l-12-11.6c-1.8-1.7-4.8-0.5-4.8,2l-0.2,16.6c0,1.1-0.6,2-1.5,2.5l-14.1,7.2c-2.2,1.1-2,4.4,0.4,5.2l15.2,5.2c1,0.3,1.7,1.2,1.9,2.2
		l2.8,15.8c0.5,2.5,3.6,3.2,5.1,1.2l9.3-12.8c0.6-0.9,1.6-1.3,2.7-1.1l16.5,2.3C472,391.2,473.6,388.4,472.2,386.3z"/>
</g>
</svg>
