<svg xmlns="http://www.w3.org/2000/svg" viewBox="0 0 281 73.8"><path d="M14.1 55c.3 2.5.9 4.2 1.9 5.3 1.7 1.9 4.9 2.8 9.6 2.8 2.7 0 4.9-.4 6.6-1.2 1.6-.8 2.4-2 2.4-3.7 0-1.6-.7-2.8-2-3.6-1.3-.8-6.2-2.2-14.6-4.2-6-1.5-10.3-3.4-12.8-5.6-2.5-2.2-3.7-5.4-3.7-9.6 0-4.9 1.9-9.1 5.8-12.7 3.9-3.5 9.3-5.3 16.3-5.3 6.7 0 12.1 1.3 16.3 4 4.2 2.7 6.6 7.2 7.2 13.7H33.3c-.2-1.8-.7-3.2-1.5-4.2-1.5-1.9-4.1-2.8-7.8-2.8-3 0-5.2.5-6.5 1.4-1.3.9-1.9 2.1-1.9 3.3 0 1.6.7 2.8 2.1 3.5 1.4.7 6.2 2 14.5 3.9 5.5 1.3 9.7 3.3 12.5 5.9 2.7 2.7 4.1 6 4.1 10 0 5.3-2 9.6-5.9 12.9s-10 5-18.2 5C16.2 73.8 10 72 6 68.5s-6-8-6-13.5h14.1zM67.7 55c.3 2.5.9 4.2 1.9 5.3 1.7 1.9 4.9 2.8 9.6 2.8 2.7 0 4.9-.4 6.6-1.2 1.6-.8 2.4-2 2.4-3.7 0-1.6-.7-2.8-2-3.6-1.3-.8-6.2-2.2-14.6-4.2-6-1.5-10.3-3.4-12.8-5.6-2.5-2.2-3.7-5.4-3.7-9.6 0-4.9 1.9-9.1 5.8-12.7 3.9-3.5 9.3-5.3 16.3-5.3 6.7 0 12.1 1.3 16.3 4 4.2 2.7 6.6 7.2 7.2 13.7H86.9c-.2-1.8-.7-3.2-1.5-4.2-1.5-1.9-4.1-2.8-7.8-2.8-3 0-5.2.5-6.5 1.4-1.3.9-1.9 2.1-1.9 3.3 0 1.6.7 2.8 2.1 3.5 1.4.7 6.2 2 14.5 3.9 5.5 1.3 9.7 3.3 12.5 5.9 2.7 2.7 4.1 6 4.1 10 0 5.3-2 9.6-5.9 12.9s-10 5-18.2 5c-8.4 0-14.6-1.8-18.6-5.3-4-3.5-6-8-6-13.5h14zM153.9 65.5c-4.5 5.5-11.3 8.3-20.5 8.3-9.1 0-16-2.8-20.5-8.3-4.5-5.5-6.7-12.2-6.7-20 0-7.7 2.2-14.3 6.7-20 4.5-5.6 11.3-8.4 20.5-8.4 9.1 0 16 2.8 20.5 8.4 4.5 5.6 6.7 12.3 6.7 20 .1 7.7-2.2 14.4-6.7 20zm-11.1-7.7c2.2-2.9 3.3-7 3.3-12.3 0-5.3-1.1-9.4-3.3-12.3-2.2-2.9-5.3-4.3-9.4-4.3-4.1 0-7.2 1.4-9.4 4.3s-3.3 7-3.3 12.3c0 5.3 1.1 9.4 3.3 12.3s5.3 4.3 9.4 4.3c4.1 0 7.2-1.4 9.4-4.3zM180.8 72h-13.9V0h13.9v72zM211.5 39.6c2.6-.3 4.4-.7 5.6-1.2 2-.8 3-2.2 3-4 0-2.2-.8-3.7-2.3-4.5s-3.8-1.2-6.8-1.2c-3.3 0-5.7.8-7.1 2.4-1 1.2-1.7 2.8-2 4.9h-13.4c.3-4.7 1.6-8.5 3.9-11.5 3.7-4.7 10-7 19-7 5.9 0 11 1.2 15.6 3.5 4.5 2.3 6.8 6.7 6.8 13.1v24.4c0 1.7 0 3.7.1 6.2.1 1.8.4 3.1.8 3.7.5.7 1.1 1.2 2.1 1.6v2h-15.1c-.4-1.1-.7-2.1-.9-3-.2-.9-.3-2-.4-3.2-1.9 2.1-4.2 3.9-6.7 5.3-3 1.7-6.4 2.6-10.2 2.6-4.8 0-8.8-1.4-12-4.1-3.2-2.8-4.7-6.6-4.7-11.7 0-6.5 2.5-11.3 7.6-14.2 2.8-1.6 6.9-2.7 12.3-3.4l4.8-.7zm8.5 6.5c-.9.6-1.8 1-2.7 1.3-.9.3-2.2.7-3.7 1l-3.2.6c-3 .5-5.1 1.2-6.4 1.9-2.2 1.3-3.3 3.2-3.3 5.9 0 2.4.7 4.1 2 5.2 1.3 1.1 3 1.6 4.9 1.6 3 0 5.8-.9 8.4-2.6s3.9-5 4-9.6v-5.3zM272.6 17.5c.2 0 .6 0 1.2.1v14.3c-.9-.1-1.7-.2-2.3-.2h-1.7c-5.6 0-9.4 1.8-11.3 5.5-1.1 2.1-1.6 5.2-1.6 9.5V72h-14V18.8h13.3V28c2.1-3.5 4-6 5.6-7.3 2.6-2.2 6-3.3 10.2-3.3.2.1.4.1.6.1zM266.2 57.4H281V72h-14.8V57.4z"/></svg>