<?xml version="1.0" encoding="utf-8"?>
<!-- Generator: Adobe Illustrator 23.0.6, SVG Export Plug-In . SVG Version: 6.00 Build 0)  -->
<svg version="1.1" id="Layer_1" xmlns="http://www.w3.org/2000/svg" xmlns:xlink="http://www.w3.org/1999/xlink" x="0px" y="0px"
	 viewBox="0 0 204.8 162.4" style="enable-background:new 0 0 204.8 162.4;" xml:space="preserve">
<style type="text/css">
	.st0{fill:url(#Rechteck_48_1_);}
	.st1{fill:#FF3C3C;}
	.st2{fill:#BE1423;}
	.st3{fill:#FFFFFF;}
</style>
<g id="Gruppe_205" transform="translate(-59.281 -1120.372)">
	
		<linearGradient id="Rechteck_48_1_" gradientUnits="userSpaceOnUse" x1="-37.3833" y1="1500.8317" x2="-35.7274" y2="1500.0471" gradientTransform="matrix(204.828 0 0 -162.385 7688.189 244865.0312)">
		<stop  offset="0" style="stop-color:#000C54"/>
		<stop  offset="0.127" style="stop-color:#0D105A"/>
		<stop  offset="0.364" style="stop-color:#301D6A"/>
		<stop  offset="0.682" style="stop-color:#693285"/>
		<stop  offset="1" style="stop-color:#A949A3"/>
	</linearGradient>
	<path id="Rechteck_48" class="st0" d="M59.3,1120.4h204.8v162.4l0,0H59.3l0,0V1120.4z"/>
	<circle id="Ellipse_4" class="st1" cx="161.2" cy="1190.8" r="36.6"/>
	<ellipse id="Ellipse_5" class="st2" cx="161.9" cy="1165.4" rx="8" ry="2"/>
	<path id="Pfad_241" class="st2" d="M152.6,1193.1c0,1.6-4.2,2.9-9.3,2.9s-9.3-1.3-9.3-2.9s4.2-2.9,9.3-2.9
		S152.6,1191.5,152.6,1193.1z"/>
	<path id="Pfad_242" class="st2" d="M158.3,1177.1c0,1.1-5.7,2-12.8,2s-12.8-0.9-12.8-2s5.7-2,12.8-2S158.3,1176,158.3,1177.1z"/>
	<path id="Pfad_243" class="st2" d="M177.9,1185.5c0,0.7-4.1,1.3-9.2,1.3s-9.2-0.6-9.2-1.3s4.1-1.3,9.2-1.3
		S177.9,1184.7,177.9,1185.5z"/>
	<path id="Pfad_244" class="st2" d="M168.7,1202.6c0,0.6-3.5,1.2-7.8,1.2s-7.8-0.5-7.8-1.2s3.5-1.1,7.8-1.1S168.7,1202,168.7,1202.6
		z"/>
	<path id="Pfad_245" class="st2" d="M161.2,1154.2c-1.3,0-2.6,0.1-3.9,0.2c16.5,2,28.1,17.3,25.3,33.8c-2.3,14-14.6,24.4-28.7,24.4
		c-15,0-27.3-11.2-29.1-25.7c-0.1,1.3-0.2,2.6-0.2,3.9c0,21.1,17.8,38,39.2,36.5c18.1-1.2,32.7-15.9,33.9-33.9
		C199.2,1172,182.2,1154.2,161.2,1154.2z"/>
	<path id="Pfad_246" class="st3" d="M88.7,1152.6l1,2.5c0.2,0.5,0.6,0.9,1.1,1.1l2.5,1c0.7,0.3,1.2,0.9,1.3,1.6
		c0.1,0.9-0.4,1.7-1.2,2l-2.5,1c-0.5,0.2-0.9,0.6-1.1,1.1l-1,2.5c-0.3,0.7-0.9,1.2-1.6,1.3c-0.9,0.1-1.7-0.4-2-1.2l-1-2.5
		c-0.2-0.5-0.6-0.9-1.1-1.1l-2.5-1c-0.7-0.3-1.2-0.9-1.3-1.6c-0.1-0.9,0.4-1.7,1.2-2l2.5-1c0.5-0.2,0.9-0.6,1.1-1.1l1-2.5
		c0.3-0.7,0.9-1.2,1.6-1.3C87.6,1151.3,88.4,1151.8,88.7,1152.6z"/>
	<path id="Pfad_247" class="st3" d="M107.4,1233.9l0.6,1.5c0.1,0.3,0.4,0.5,0.6,0.6l1.5,0.6c0.6,0.2,0.9,0.9,0.6,1.5
		c-0.1,0.3-0.4,0.5-0.6,0.6l-1.5,0.6c-0.3,0.1-0.5,0.3-0.6,0.6l-0.6,1.5c-0.2,0.6-0.9,0.9-1.5,0.6c-0.3-0.1-0.5-0.4-0.6-0.6
		l-0.6-1.5c-0.1-0.3-0.4-0.5-0.6-0.6l-1.5-0.6c-0.6-0.2-0.9-0.9-0.6-1.5c0.1-0.3,0.3-0.5,0.6-0.6l1.5-0.6c0.3-0.1,0.5-0.4,0.6-0.6
		l0.6-1.5c0.2-0.6,0.9-0.9,1.5-0.6C107.1,1233.4,107.3,1233.6,107.4,1233.9z"/>
	<path id="Pfad_248" class="st3" d="M240,1171.8l0.6,1.5c0.1,0.3,0.4,0.5,0.6,0.6l1.5,0.6c0.6,0.2,0.9,0.9,0.6,1.5
		c-0.1,0.3-0.4,0.5-0.6,0.6l-1.5,0.6c-0.3,0.1-0.5,0.4-0.6,0.6l-0.6,1.5c-0.2,0.6-0.9,0.9-1.5,0.6c-0.3-0.1-0.5-0.4-0.6-0.6
		l-0.6-1.5c-0.1-0.3-0.4-0.5-0.6-0.6l-1.5-0.6c-0.6-0.2-0.9-0.9-0.6-1.5c0.1-0.3,0.4-0.5,0.6-0.6l1.5-0.6c0.3-0.1,0.5-0.4,0.6-0.6
		l0.6-1.5c0.2-0.6,0.9-0.9,1.5-0.6C239.7,1171.2,239.9,1171.5,240,1171.8z"/>
	<path id="Pfad_249" class="st3" d="M229.6,1131.6l1.6,4c0.3,0.8,0.9,1.4,1.7,1.7l3.9,1.6c1.2,0.5,2.1,1.6,2.1,2.9
		c0,1.3-0.8,2.4-1.9,2.9l-4,1.6c-0.8,0.3-1.4,0.9-1.7,1.7l-1.6,3.9c-0.5,1.2-1.6,2.1-2.9,2.1c-1.3,0-2.4-0.8-2.9-1.9l-1.6-4
		c-0.3-0.8-0.9-1.4-1.7-1.7l-3.9-1.6c-1.2-0.5-2.1-1.6-2.1-2.9c0-1.3,0.8-2.4,1.9-2.9l4-1.6c0.8-0.3,1.4-0.9,1.7-1.7l1.6-3.9
		c0.5-1.2,1.6-2.1,2.9-2.1C228.1,1129.6,229.2,1130.4,229.6,1131.6z"/>
</g>
</svg>
