<?xml version="1.0" encoding="utf-8"?>
<!-- Generator: Adobe Illustrator 23.0.6, SVG Export Plug-In . SVG Version: 6.00 Build 0)  -->
<svg version="1.1" id="Layer_1" xmlns="http://www.w3.org/2000/svg" xmlns:xlink="http://www.w3.org/1999/xlink" x="0px" y="0px"
	 viewBox="0 0 164.1 112.4" style="enable-background:new 0 0 164.1 112.4;" xml:space="preserve">
<style type="text/css">
	.st0{fill:#FF3C3C;}
	.st1{fill:#BE1423;}
	.st2{fill:#FFFFFF;}
</style>
<ellipse id="Ellipse_4" transform="matrix(0.9985 -5.530037e-02 5.530037e-02 0.9985 -3.254 4.6233)" class="st0" cx="81.9" cy="61.1" rx="36.6" ry="36.6"/>
<ellipse id="Ellipse_5" class="st1" cx="82.6" cy="35.7" rx="8" ry="2"/>
<path id="Pfad_241" class="st1" d="M73.3,63.4c0,1.6-4.2,2.9-9.3,2.9s-9.3-1.3-9.3-2.9s4.2-2.9,9.3-2.9S73.3,61.8,73.3,63.4z"/>
<path id="Pfad_242" class="st1" d="M79,47.4c0,1.1-5.7,2-12.8,2s-12.8-0.9-12.8-2s5.7-2,12.8-2S79,46.3,79,47.4z"/>
<path id="Pfad_243" class="st1" d="M98.6,55.8c0,0.7-4.1,1.3-9.2,1.3s-9.2-0.6-9.2-1.3s4.1-1.3,9.2-1.3S98.6,55,98.6,55.8z"/>
<path id="Pfad_244" class="st1" d="M89.4,72.9c0,0.6-3.5,1.2-7.8,1.2s-7.8-0.5-7.8-1.2s3.5-1.1,7.8-1.1S89.4,72.3,89.4,72.9z"/>
<path id="Pfad_245" class="st1" d="M81.9,24.5c-1.3,0-2.6,0.1-3.9,0.2c16.5,2,28.1,17.3,25.3,33.8c-2.3,14-14.6,24.4-28.7,24.4
	c-15,0-27.3-11.2-29.1-25.7c-0.1,1.3-0.2,2.6-0.2,3.9c0,21.1,17.8,38,39.2,36.5c18.1-1.2,32.7-15.9,33.9-33.9
	C119.9,42.3,102.9,24.5,81.9,24.5z"/>
<path id="Pfad_246" class="st2" d="M9.4,22.9l1,2.5c0.2,0.5,0.6,0.9,1.1,1.1l2.5,1c0.7,0.3,1.2,0.9,1.3,1.6c0.1,0.9-0.4,1.7-1.2,2
	l-2.5,1c-0.5,0.2-0.9,0.6-1.1,1.1l-1,2.5c-0.3,0.7-0.9,1.2-1.6,1.3c-0.9,0.1-1.7-0.4-2-1.2l-1-2.5c-0.2-0.5-0.6-0.9-1.1-1.1l-2.5-1
	c-0.7-0.3-1.2-0.9-1.3-1.6c-0.1-0.9,0.4-1.7,1.2-2l2.5-1c0.5-0.2,0.9-0.6,1.1-1.1l1-2.5c0.3-0.7,0.9-1.2,1.6-1.3
	C8.3,21.6,9.1,22.1,9.4,22.9z"/>
<path id="Pfad_247" class="st2" d="M28.1,104.2l0.6,1.5c0.1,0.3,0.4,0.5,0.6,0.6l1.5,0.6c0.6,0.2,0.9,0.9,0.6,1.5
	c-0.1,0.3-0.4,0.5-0.6,0.6l-1.5,0.6c-0.3,0.1-0.5,0.3-0.6,0.6l-0.6,1.5c-0.2,0.6-0.9,0.9-1.5,0.6c-0.3-0.1-0.5-0.4-0.6-0.6l-0.6-1.5
	c-0.1-0.3-0.4-0.5-0.6-0.6l-1.5-0.6c-0.6-0.2-0.9-0.9-0.6-1.5c0.1-0.3,0.3-0.5,0.6-0.6l1.5-0.6c0.3-0.1,0.5-0.4,0.6-0.6l0.6-1.5
	c0.2-0.6,0.9-0.9,1.5-0.6C27.8,103.7,28,103.9,28.1,104.2z"/>
<path id="Pfad_248" class="st2" d="M160.7,42.1l0.6,1.5c0.1,0.3,0.4,0.5,0.6,0.6l1.5,0.6c0.6,0.2,0.9,0.9,0.6,1.5
	c-0.1,0.3-0.4,0.5-0.6,0.6l-1.5,0.6c-0.3,0.1-0.5,0.4-0.6,0.6l-0.6,1.5c-0.2,0.6-0.9,0.9-1.5,0.6c-0.3-0.1-0.5-0.4-0.6-0.6l-0.6-1.5
	c-0.1-0.3-0.4-0.5-0.6-0.6l-1.5-0.6c-0.6-0.2-0.9-0.9-0.6-1.5c0.1-0.3,0.4-0.5,0.6-0.6l1.5-0.6c0.3-0.1,0.5-0.4,0.6-0.6l0.6-1.5
	c0.2-0.6,0.9-0.9,1.5-0.6C160.4,41.5,160.6,41.8,160.7,42.1z"/>
<path id="Pfad_249" class="st2" d="M150.3,1.9l1.6,4c0.3,0.8,0.9,1.4,1.7,1.7l3.9,1.6c1.2,0.5,2.1,1.6,2.1,2.9s-0.8,2.4-1.9,2.9
	l-4,1.6c-0.8,0.3-1.4,0.9-1.7,1.7l-1.6,3.9c-0.5,1.2-1.6,2.1-2.9,2.1c-1.3,0-2.4-0.8-2.9-1.9l-1.6-4c-0.3-0.8-0.9-1.4-1.7-1.7
	l-3.9-1.6c-1.2-0.5-2.1-1.6-2.1-2.9s0.8-2.4,1.9-2.9l4-1.6c0.8-0.3,1.4-0.9,1.7-1.7l1.6-3.9c0.5-1.2,1.6-2.1,2.9-2.1
	C148.8-0.1,149.9,0.7,150.3,1.9z"/>
</svg>
