<?xml version="1.0" encoding="utf-8"?>
<!-- Generator: Adobe Illustrator 23.0.6, SVG Export Plug-In . SVG Version: 6.00 Build 0)  -->
<svg version="1.1" id="Layer_1" xmlns="http://www.w3.org/2000/svg" xmlns:xlink="http://www.w3.org/1999/xlink" x="0px" y="0px"
	 viewBox="0 0 204.5 162.1" style="enable-background:new 0 0 204.5 162.1;" xml:space="preserve">
<style type="text/css">
	.st0{fill:url(#Rechteck_48_1_);}
	.st1{fill:#FFDC8C;}
	.st2{fill:#FF965A;}
	.st3{fill:#FFBE82;}
	.st4{fill:#FFFFFF;}
</style>
<g id="Gruppe_202" transform="translate(-59.123 -851.368)">
	
		<linearGradient id="Rechteck_48_1_" gradientUnits="userSpaceOnUse" x1="-37.5405" y1="1231.8257" x2="-35.8847" y2="1231.041" gradientTransform="matrix(204.5 0 0 -162.129 7707.9692 200598.0781)">
		<stop  offset="0" style="stop-color:#000C54"/>
		<stop  offset="0.127" style="stop-color:#0D105A"/>
		<stop  offset="0.364" style="stop-color:#301D6A"/>
		<stop  offset="0.682" style="stop-color:#693285"/>
		<stop  offset="1" style="stop-color:#A949A3"/>
	</linearGradient>
	<path id="Rechteck_48" class="st0" d="M59.1,851.4h204.5v162.1l0,0H59.1l0,0V851.4z"/>
	<circle id="Ellipse_23" class="st1" cx="160.8" cy="917.6" r="37.7"/>
	<circle id="Ellipse_24" class="st2" cx="153.6" cy="891.5" r="5.3"/>
	<path id="Pfad_346" class="st2" d="M139.4,905c0,2.4-2.2,4.3-4.7,3.7c-1.4-0.3-2.5-1.4-2.8-2.8c-0.6-2.5,1.3-4.7,3.7-4.7l0,0
		C137.7,901.2,139.4,902.9,139.4,905z"/>
	<path id="Pfad_347" class="st2" d="M174.5,901.2c0,2.4-2.2,4.3-4.7,3.7c-1.4-0.3-2.5-1.4-2.8-2.8c-0.6-2.5,1.3-4.7,3.7-4.7l0,0
		C172.8,897.4,174.5,899.1,174.5,901.2z"/>
	<circle id="Ellipse_25" class="st2" cx="153.6" cy="930.5" r="3.8"/>
	<path id="Pfad_348" class="st2" d="M158.1,907.3c0,1.7-1.5,3-3.2,2.7c-1.1-0.2-2-1.1-2.2-2.2c-0.3-2.1,1.7-3.8,3.8-2.9
		C157.6,905.2,158.1,906.2,158.1,907.3L158.1,907.3z"/>
	<circle id="Ellipse_26" class="st2" cx="138" cy="922.4" r="6.3"/>
	<circle id="Ellipse_27" class="st2" cx="170.6" cy="919.3" r="6.3"/>
	<path id="Pfad_349" class="st2" d="M160.8,879.9c-1.4,0-2.7,0.1-4.1,0.2c16.9,2,28.9,17.8,26.1,34.8c-2.4,14.9-15.9,25.8-31,25.1
		c-14.8-0.7-26.8-11.9-28.6-26.5c-2.3,21.6,14,40.9,36.1,41.8c18.6,0.7,35.3-12.6,38.5-31c3.9-21.8-11.5-41.9-33.1-44.2
		C163.5,879.9,162.1,879.9,160.8,879.9L160.8,879.9z"/>
	<path id="Pfad_350" class="st3" d="M195.1,917.6c0,2.4-2.2,4.3-4.7,3.7c-1.4-0.3-2.5-1.4-2.8-2.8c-0.6-2.5,1.3-4.7,3.7-4.7l0,0
		C193.4,913.8,195.1,915.5,195.1,917.6z"/>
	<path id="Pfad_351" class="st3" d="M169.8,947.3c0,2.4-2.2,4.3-4.7,3.7c-1.4-0.3-2.5-1.4-2.8-2.8c-0.6-2.5,1.3-4.7,3.7-4.7l0,0
		C168.1,943.5,169.8,945.2,169.8,947.3z"/>
	<path id="Pfad_352" class="st3" d="M184.3,931c1.2,3-1.4,5.9-4.4,5.2c-1.4-0.3-2.5-1.4-2.8-2.8c-0.6-2.5,1.3-4.7,3.7-4.7h0
		C182.3,928.7,183.8,929.6,184.3,931z"/>
	<path id="Pfad_353" class="st3" d="M149.5,943.9c1,2.6-1.2,5-3.8,4.5c-1.2-0.3-2.2-1.3-2.4-2.5c-0.4-2.1,1.2-3.9,3.2-3.9h0
		C147.8,941.9,149.1,942.7,149.5,943.9z"/>
	<circle id="Ellipse_28" class="st3" cx="188.1" cy="903.8" r="2.6"/>
	<circle id="Ellipse_29" class="st3" cx="179.6" cy="945.2" r="2.6"/>
	<path id="Pfad_354" class="st4" d="M223,865.2l0.9,2.3c0.2,0.4,0.5,0.8,1,1l2.3,0.9c0.9,0.4,1.3,1.4,1,2.2c-0.2,0.4-0.5,0.8-1,1
		l-2.3,0.9c-0.4,0.2-0.8,0.5-1,1l-0.9,2.3c-0.4,0.9-1.4,1.3-2.3,1c-0.4-0.2-0.8-0.5-1-1l-0.9-2.3c-0.2-0.4-0.5-0.8-1-1l-2.3-0.9
		c-0.9-0.4-1.3-1.4-1-2.2c0.2-0.4,0.5-0.8,1-1l2.3-0.9c0.4-0.2,0.8-0.5,1-1l0.9-2.3c0.4-0.9,1.4-1.3,2.3-1
		C222.4,864.4,222.8,864.7,223,865.2z"/>
	<path id="Pfad_355" class="st4" d="M101.1,881.2l0.5,1.4c0.1,0.3,0.3,0.5,0.6,0.6l1.4,0.5c0.5,0.2,0.8,0.8,0.6,1.3
		c-0.1,0.3-0.3,0.5-0.6,0.6l-1.4,0.5c-0.3,0.1-0.5,0.3-0.6,0.6l-0.5,1.4c-0.2,0.5-0.8,0.8-1.3,0.6c-0.3-0.1-0.5-0.3-0.6-0.6
		l-0.5-1.4c-0.1-0.3-0.3-0.5-0.6-0.6l-1.4-0.5c-0.5-0.2-0.8-0.8-0.6-1.4c0.1-0.3,0.3-0.5,0.6-0.6l1.4-0.5c0.3-0.1,0.5-0.3,0.6-0.6
		l0.5-1.4c0.2-0.5,0.8-0.8,1.3-0.6C100.8,880.7,101,880.9,101.1,881.2z"/>
	<path id="Pfad_356" class="st4" d="M88,959.7l0.5,1.4c0.1,0.3,0.3,0.5,0.6,0.6l1.4,0.5c0.5,0.2,0.8,0.8,0.6,1.3
		c-0.1,0.3-0.3,0.5-0.6,0.6l-1.4,0.5c-0.3,0.1-0.5,0.3-0.6,0.6l-0.5,1.4c-0.2,0.5-0.8,0.8-1.3,0.6c-0.3-0.1-0.5-0.3-0.6-0.6
		l-0.5-1.4c-0.1-0.3-0.3-0.5-0.6-0.6l-1.4-0.5c-0.5-0.2-0.8-0.8-0.6-1.4c0.1-0.3,0.3-0.5,0.6-0.6l1.4-0.5c0.3-0.1,0.5-0.3,0.6-0.6
		l0.5-1.4c0.2-0.5,0.8-0.8,1.3-0.6C87.7,959.2,87.9,959.5,88,959.7z"/>
	<path id="Pfad_357" class="st4" d="M236.3,935.6l0.5,1.4c0.1,0.3,0.3,0.5,0.6,0.6l1.4,0.5c0.5,0.2,0.8,0.8,0.6,1.3
		c-0.1,0.3-0.3,0.5-0.6,0.6l-1.4,0.5c-0.3,0.1-0.5,0.3-0.6,0.6l-0.5,1.4c-0.2,0.5-0.8,0.8-1.4,0.6c-0.3-0.1-0.5-0.3-0.6-0.6
		l-0.5-1.4c-0.1-0.3-0.3-0.5-0.6-0.6l-1.4-0.5c-0.5-0.2-0.8-0.8-0.6-1.3c0.1-0.3,0.3-0.5,0.6-0.6l1.4-0.5c0.3-0.1,0.5-0.3,0.6-0.6
		l0.5-1.4c0.2-0.5,0.8-0.8,1.4-0.6C235.9,935.1,236.2,935.3,236.3,935.6z"/>
</g>
</svg>
