<?xml version="1.0" encoding="utf-8"?>
<!-- Generator: Adobe Illustrator 23.0.6, SVG Export Plug-In . SVG Version: 6.00 Build 0)  -->
<svg version="1.1" id="Layer_1" xmlns="http://www.w3.org/2000/svg" xmlns:xlink="http://www.w3.org/1999/xlink" x="0px" y="0px"
	 viewBox="0 0 156.5 103.2" style="enable-background:new 0 0 156.5 103.2;" xml:space="preserve">
<style type="text/css">
	.st0{fill:#FFDC8C;}
	.st1{fill:#FF965A;}
	.st2{fill:#FFBE82;}
	.st3{fill:#FFFFFF;}
</style>
<circle id="Ellipse_23" class="st0" cx="77.9" cy="53.5" r="37.7"/>
<circle id="Ellipse_24" class="st1" cx="70.7" cy="27.4" r="5.3"/>
<path id="Pfad_346" class="st1" d="M56.5,40.9c0,2.4-2.2,4.3-4.7,3.7c-1.4-0.3-2.5-1.4-2.8-2.8c-0.6-2.5,1.3-4.7,3.7-4.7l0,0
	C54.8,37.1,56.5,38.8,56.5,40.9z"/>
<path id="Pfad_347" class="st1" d="M91.6,37.1c0,2.4-2.2,4.3-4.7,3.7c-1.4-0.3-2.5-1.4-2.8-2.8c-0.6-2.5,1.3-4.7,3.7-4.7l0,0
	C89.9,33.3,91.6,35,91.6,37.1z"/>
<circle id="Ellipse_25" class="st1" cx="70.7" cy="66.4" r="3.8"/>
<path id="Pfad_348" class="st1" d="M75.2,43.2c0,1.7-1.5,3-3.2,2.7c-1.1-0.2-2-1.1-2.2-2.2c-0.3-2.1,1.7-3.8,3.8-2.9
	C74.7,41.1,75.2,42.1,75.2,43.2L75.2,43.2z"/>
<circle id="Ellipse_26" class="st1" cx="55.1" cy="58.3" r="6.3"/>
<circle id="Ellipse_27" class="st1" cx="87.7" cy="55.2" r="6.3"/>
<path id="Pfad_349" class="st1" d="M77.9,15.8c-1.4,0-2.7,0.1-4.1,0.2c16.9,2,28.9,17.8,26.1,34.8c-2.4,14.9-15.9,25.8-31,25.1
	C54.1,75.2,42.1,64,40.3,49.4C38,71,54.3,90.3,76.4,91.2c18.6,0.7,35.3-12.6,38.5-31c3.9-21.8-11.5-41.9-33.1-44.2
	C80.6,15.8,79.2,15.8,77.9,15.8L77.9,15.8z"/>
<path id="Pfad_350" class="st2" d="M112.2,53.5c0,2.4-2.2,4.3-4.7,3.7c-1.4-0.3-2.5-1.4-2.8-2.8c-0.6-2.5,1.3-4.7,3.7-4.7l0,0
	C110.5,49.7,112.2,51.4,112.2,53.5z"/>
<path id="Pfad_351" class="st2" d="M86.9,83.2c0,2.4-2.2,4.3-4.7,3.7c-1.4-0.3-2.5-1.4-2.8-2.8c-0.6-2.5,1.3-4.7,3.7-4.7l0,0
	C85.2,79.4,86.9,81.1,86.9,83.2z"/>
<path id="Pfad_352" class="st2" d="M101.4,66.9c1.2,3-1.4,5.9-4.4,5.2c-1.4-0.3-2.5-1.4-2.8-2.8c-0.6-2.5,1.3-4.7,3.7-4.7l0,0
	C99.4,64.6,100.9,65.5,101.4,66.9z"/>
<path id="Pfad_353" class="st2" d="M66.6,79.8c1,2.6-1.2,5-3.8,4.5c-1.2-0.3-2.2-1.3-2.4-2.5c-0.4-2.1,1.2-3.9,3.2-3.9l0,0
	C64.9,77.8,66.2,78.6,66.6,79.8z"/>
<circle id="Ellipse_28" class="st2" cx="105.2" cy="39.7" r="2.6"/>
<circle id="Ellipse_29" class="st2" cx="96.7" cy="81.1" r="2.6"/>
<path id="Pfad_354" class="st3" d="M140.1,1.1l0.9,2.3c0.2,0.4,0.5,0.8,1,1l2.3,0.9c0.9,0.4,1.3,1.4,1,2.2c-0.2,0.4-0.5,0.8-1,1
	L142,9.4c-0.4,0.2-0.8,0.5-1,1l-0.9,2.3c-0.4,0.9-1.4,1.3-2.3,1c-0.4-0.2-0.8-0.5-1-1l-0.9-2.3c-0.2-0.4-0.5-0.8-1-1l-2.3-0.9
	c-0.9-0.4-1.3-1.4-1-2.2c0.2-0.4,0.5-0.8,1-1l2.3-0.9c0.4-0.2,0.8-0.5,1-1l0.9-2.3c0.4-0.9,1.4-1.3,2.3-1
	C139.5,0.3,139.9,0.6,140.1,1.1z"/>
<path id="Pfad_355" class="st3" d="M18.2,17.1l0.5,1.4c0.1,0.3,0.3,0.5,0.6,0.6l1.4,0.5c0.5,0.2,0.8,0.8,0.6,1.3
	c-0.1,0.3-0.3,0.5-0.6,0.6L19.3,22c-0.3,0.1-0.5,0.3-0.6,0.6L18.2,24c-0.2,0.5-0.8,0.8-1.3,0.6c-0.3-0.1-0.5-0.3-0.6-0.6l-0.5-1.4
	c-0.1-0.3-0.3-0.5-0.6-0.6l-1.4-0.5c-0.5-0.2-0.8-0.8-0.6-1.4c0.1-0.3,0.3-0.5,0.6-0.6l1.4-0.5c0.3-0.1,0.5-0.3,0.6-0.6l0.5-1.4
	c0.2-0.5,0.8-0.8,1.3-0.6C17.9,16.6,18.1,16.8,18.2,17.1z"/>
<path id="Pfad_356" class="st3" d="M5.1,95.6L5.6,97c0.1,0.3,0.3,0.5,0.6,0.6l1.4,0.5c0.5,0.2,0.8,0.8,0.6,1.3
	c-0.1,0.3-0.3,0.5-0.6,0.6l-1.4,0.5c-0.3,0.1-0.5,0.3-0.6,0.6l-0.5,1.4c-0.2,0.5-0.8,0.8-1.3,0.6c-0.3-0.1-0.5-0.3-0.6-0.6l-0.5-1.4
	c-0.1-0.3-0.3-0.5-0.6-0.6L0.7,100c-0.5-0.2-0.8-0.8-0.6-1.4c0.1-0.3,0.3-0.5,0.6-0.6l1.4-0.5c0.3-0.1,0.5-0.3,0.6-0.6l0.5-1.4
	C3.4,95,4,94.7,4.5,94.9C4.8,95.1,5,95.4,5.1,95.6z"/>
<path id="Pfad_357" class="st3" d="M153.4,71.5l0.5,1.4c0.1,0.3,0.3,0.5,0.6,0.6l1.4,0.5c0.5,0.2,0.8,0.8,0.6,1.3
	c-0.1,0.3-0.3,0.5-0.6,0.6l-1.4,0.5c-0.3,0.1-0.5,0.3-0.6,0.6l-0.5,1.4c-0.2,0.5-0.8,0.8-1.4,0.6c-0.3-0.1-0.5-0.3-0.6-0.6l-0.5-1.4
	c-0.1-0.3-0.3-0.5-0.6-0.6l-1.4-0.5c-0.5-0.2-0.8-0.8-0.6-1.3c0.1-0.3,0.3-0.5,0.6-0.6l1.4-0.5c0.3-0.1,0.5-0.3,0.6-0.6l0.5-1.4
	c0.2-0.5,0.8-0.8,1.4-0.6C153,71,153.3,71.2,153.4,71.5z"/>
</svg>
