<?xml version="1.0" encoding="utf-8"?>
<!-- Generator: Adobe Illustrator 23.1.1, SVG Export Plug-In . SVG Version: 6.00 Build 0)  -->
<svg version="1.1" id="Layer_1" xmlns="http://www.w3.org/2000/svg" xmlns:xlink="http://www.w3.org/1999/xlink" x="0px" y="0px"
	 viewBox="0 0 370.5 371.6" style="enable-background:new 0 0 370.5 371.6;" xml:space="preserve">
<style type="text/css">
	.st0{fill:#401466;}
	.st1{fill:#2F4266;}
	.st2{fill:url(#SVGID_1_);}
	.st3{fill:url(#SVGID_2_);}
	.st4{fill:#3B4FC4;}
	.st5{fill:url(#SVGID_3_);}
	.st6{fill:#FFFFFF;}
	.st7{fill:url(#SVGID_4_);}
	.st8{fill:url(#SVGID_5_);}
	.st9{fill:url(#SVGID_6_);}
	.st10{fill:url(#SVGID_7_);}
	.st11{fill:url(#SVGID_8_);}
	.st12{fill:url(#SVGID_9_);}
	.st13{fill:url(#SVGID_10_);}
	.st14{fill:url(#SVGID_11_);}
	.st15{fill:url(#SVGID_12_);}
	.st16{fill:url(#SVGID_13_);}
	.st17{fill:url(#SVGID_14_);}
	.st18{fill:url(#SVGID_15_);}
	.st19{fill:url(#SVGID_16_);}
	.st20{fill:url(#SVGID_17_);}
	.st21{fill:url(#SVGID_18_);}
	.st22{fill:url(#SVGID_19_);}
	.st23{fill:url(#SVGID_20_);}
	.st24{fill:#53A2D3;}
	.st25{fill:#BCBEC0;}
	.st26{fill:#E6E7E8;}
</style>
<g id="BACKGROUND">
</g>
<path class="st0" d="M51.6,347.2c10.7,3.4,85.7,23.3,111.8,7c82.2-41,114.3-48.4,142-124.3c32.1-78.4,31.5-74.4-19.4-132.4
	c-14.3-23.5-64.9-6.1-115.7,5.9c-48.5,10.1-64.5,29.1-101.5,66.5C46.3,198,29.4,244.9,37,297.5C40.4,323.5,37.2,345.7,51.6,347.2z"
	/>
<path class="st1" d="M281,121c-4.1-1.7-68.3-18.4-87.2-6.1c-65.1,31.9-92.2,38.9-113.9,97.9c-26.4,63.5-25.3,61,14.3,106.1
	c11.9,19.5,51,5.5,91.9-4C331.6,275.8,292.1,110.7,281,121z"/>
<g>
	
		<linearGradient id="SVGID_1_" gradientUnits="userSpaceOnUse" x1="99.0558" y1="49.662" x2="292.9985" y2="262.8187" gradientTransform="matrix(0.9861 0.166 0.166 -0.9861 -41.3192 342.8621)">
		<stop  offset="0" style="stop-color:#5F67FF"/>
		<stop  offset="0.9704" style="stop-color:#2CA1FF"/>
		<stop  offset="1" style="stop-color:#2AA3FF"/>
	</linearGradient>
	<path class="st2" d="M97.1,302.3c3.4,1.4,55.7,15.1,71.2,4.8c52.6-26,74.1-31.2,91.6-78.8c21.8-51.4,20-50.8-11.1-86
		c-10.1-16.3-39.7-5.2-73.3,2.4C56.8,175.1,87.3,309.6,97.1,302.3z"/>
</g>
<linearGradient id="SVGID_2_" gradientUnits="userSpaceOnUse" x1="298.0714" y1="275.912" x2="88.3852" y2="30.4438" gradientTransform="matrix(0.9861 0.166 0.166 -0.9861 -41.3192 342.8621)">
	<stop  offset="0" style="stop-color:#49E2DE"/>
	<stop  offset="1" style="stop-color:#2AA3FF"/>
</linearGradient>
<path class="st3" d="M202.8,280.9c40.5-21.9,37.3-25.9,54.6-61.8c36-88.7-58.4-83.4-108-60.5c-62.2,50.1-63,87.8-51.1,134.6
	C156.1,318.3,177.7,294,202.8,280.9z"/>
<path class="st4" d="M117.4,280.3c31.8,15.4,55.4,0,68.9-6.6c0,0-6.1-2.4-8.6-4c46.2-3.4,65.9-32.7,74.3-62.3c0,0-4.5,2.3-8.1,3.6
	c25.8-71.5-45.1-61.9-74.4-44.7c0,0,5.3,1.1,9.6,2.3c-46.8,17.1-73.3,38.6-76.8,76.3c0,0,5.8-2.2,8.4-3.1
	C104,260.9,110.7,275.3,117.4,280.3z"/>
<linearGradient id="SVGID_3_" gradientUnits="userSpaceOnUse" x1="96.1559" y1="46.5418" x2="296.1046" y2="266.2995" gradientTransform="matrix(0.9861 0.166 0.166 -0.9861 -41.3192 342.8621)">
	<stop  offset="0" style="stop-color:#5F67FF"/>
	<stop  offset="0.9704" style="stop-color:#2CA1FF"/>
	<stop  offset="1" style="stop-color:#2AA3FF"/>
</linearGradient>
<path class="st5" d="M142.2,257.8c48.5,3,64.8-7.8,81.4-25.1c0,0-6.3,0.3-11.6,0.4c12.1-10.2,36.7-50.7,21.7-67.9
	c-3.9,17.5-10.7,7.4-27.5,7.1c-25.9,1-55.5,19.5-74.1,36.8c0,0,6.8,0.7,12.8,1.3c-15.4,13.8-40.4,50.9-10.2,56.4l-1.6-9.3
	C133,257.5,135.8,257.6,142.2,257.8z"/>
<path class="st6" d="M258.4,184.6c-0.8-4.7,7.7-10.2,11.4-5.8C270.6,185,263.7,189.3,258.4,184.6z"/>
<linearGradient id="SVGID_4_" gradientUnits="userSpaceOnUse" x1="112.641" y1="36.909" x2="300.8962" y2="243.8149" gradientTransform="matrix(0.9861 0.166 0.166 -0.9861 -41.3192 342.8621)">
	<stop  offset="0" style="stop-color:#5F67FF"/>
	<stop  offset="0.9704" style="stop-color:#2CA1FF"/>
	<stop  offset="1" style="stop-color:#2AA3FF"/>
</linearGradient>
<path class="st7" d="M91.1,313.7c2.1,1.6-7,9.4-6.3,2.5C85.7,314.3,86.6,312.8,91.1,313.7z"/>
<path class="st6" d="M78.8,334.8c1.2,0.8-4,4.5-2.7,0.6C76.4,335.4,76.4,334.6,78.8,334.8z"/>
<linearGradient id="SVGID_5_" gradientUnits="userSpaceOnUse" x1="170.9676" y1="-14.8312" x2="355.6508" y2="188.1486" gradientTransform="matrix(0.9861 0.166 0.166 -0.9861 -41.3192 342.8621)">
	<stop  offset="0" style="stop-color:#5F67FF"/>
	<stop  offset="0.9704" style="stop-color:#2CA1FF"/>
	<stop  offset="1" style="stop-color:#2AA3FF"/>
</linearGradient>
<path class="st8" d="M272.9,269.8c1.2,0.8-4,4.5-2.7,0.6C270.5,270.3,270.6,269.5,272.9,269.8z"/>
<path class="st6" d="M244.7,276.1c1.2,0.8-4,4.5-2.7,0.6C242.2,276.7,242.3,275.9,244.7,276.1z"/>
<linearGradient id="SVGID_6_" gradientUnits="userSpaceOnUse" x1="358.0002" y1="188.8073" x2="159.5827" y2="-43.4694" gradientTransform="matrix(0.9861 0.166 0.166 -0.9861 -41.3192 342.8621)">
	<stop  offset="0" style="stop-color:#49E2DE"/>
	<stop  offset="1" style="stop-color:#2AA3FF"/>
</linearGradient>
<path class="st9" d="M319.2,236.4c1.2,0.8-4,4.5-2.7,0.6C316.7,237,316.8,236.2,319.2,236.4z"/>
<linearGradient id="SVGID_7_" gradientUnits="userSpaceOnUse" x1="346.9659" y1="191.1586" x2="148.5502" y2="-41.1162" gradientTransform="matrix(0.9861 0.166 0.166 -0.9861 -41.3192 342.8621)">
	<stop  offset="0" style="stop-color:#49E2DE"/>
	<stop  offset="1" style="stop-color:#2AA3FF"/>
</linearGradient>
<path class="st10" d="M192.7,329.4c1.2,0.8-4,4.5-2.7,0.6C190.2,329.9,190.3,329.2,192.7,329.4z"/>
<path class="st6" d="M61.8,108.8c1.2,0.8-4,4.5-2.7,0.6C59.3,109.3,59.4,108.6,61.8,108.8z"/>
<path class="st6" d="M109.6,92.6c2.1,1.4-6.9,7.7-4.5,1C105.5,93.6,105.6,92.2,109.6,92.6z"/>
<path class="st6" d="M313,278.2c2.1,1.4-6.9,7.7-4.5,1C308.9,279.1,309,277.8,313,278.2z"/>
<path class="st6" d="M4.9,274.2c2.1,1.4-6.9,7.7-4.5,1C0.8,275.1,0.9,273.8,4.9,274.2z"/>
<path class="st6" d="M351.2,204.9c2.9,2-9.5,10.7-6.3,1.4C345.5,206.2,345.6,204.4,351.2,204.9z"/>
<linearGradient id="SVGID_8_" gradientUnits="userSpaceOnUse" x1="22.9889" y1="136.7935" x2="207.4153" y2="339.4911" gradientTransform="matrix(0.9861 0.166 0.166 -0.9861 -41.3192 342.8621)">
	<stop  offset="0" style="stop-color:#5F67FF"/>
	<stop  offset="0.9704" style="stop-color:#2CA1FF"/>
	<stop  offset="1" style="stop-color:#2AA3FF"/>
</linearGradient>
<path class="st11" d="M159.4,89.4c-1.2-0.9,4.3-4.3,2.7-0.4C161.9,89,161.8,89.7,159.4,89.4z"/>
<linearGradient id="SVGID_9_" gradientUnits="userSpaceOnUse" x1="67.117" y1="57.8503" x2="251.7982" y2="260.828" gradientTransform="matrix(0.9861 0.166 0.166 -0.9861 -41.3192 342.8621)">
	<stop  offset="0" style="stop-color:#5F67FF"/>
	<stop  offset="0.9704" style="stop-color:#2CA1FF"/>
	<stop  offset="1" style="stop-color:#2AA3FF"/>
</linearGradient>
<path class="st12" d="M6.6,319.1c1.2,0.8-4,4.5-2.7,0.6C4.2,319.6,4.2,318.8,6.6,319.1z"/>
<linearGradient id="SVGID_10_" gradientUnits="userSpaceOnUse" x1="73.9075" y1="72.6871" x2="258.5912" y2="275.6675" gradientTransform="matrix(0.9861 0.166 0.166 -0.9861 -41.3192 342.8621)">
	<stop  offset="0" style="stop-color:#5F67FF"/>
	<stop  offset="0.9704" style="stop-color:#2CA1FF"/>
	<stop  offset="1" style="stop-color:#2AA3FF"/>
</linearGradient>
<path class="st13" d="M58.9,271.7c1.2,0.8-4,4.5-2.7,0.6C56.5,272.2,56.5,271.5,58.9,271.7z"/>
<linearGradient id="SVGID_11_" gradientUnits="userSpaceOnUse" x1="190.8035" y1="344.7159" x2="-7.6108" y2="112.4428" gradientTransform="matrix(0.9861 0.166 0.166 -0.9861 -41.3192 342.8621)">
	<stop  offset="0" style="stop-color:#49E2DE"/>
	<stop  offset="1" style="stop-color:#2AA3FF"/>
</linearGradient>
<path class="st14" d="M63.3,152.8c1.2,0.8-4,4.5-2.7,0.6C60.9,153.3,60.9,152.5,63.3,152.8z"/>
<linearGradient id="SVGID_12_" gradientUnits="userSpaceOnUse" x1="252.0988" y1="310.5734" x2="53.6785" y2="78.2934" gradientTransform="matrix(0.9861 0.166 0.166 -0.9861 -41.3192 342.8621)">
	<stop  offset="0" style="stop-color:#49E2DE"/>
	<stop  offset="1" style="stop-color:#2AA3FF"/>
</linearGradient>
<path class="st15" d="M218.2,112.8c1.2,0.8-4,4.5-2.7,0.6C215.8,113.3,215.8,112.6,218.2,112.8z"/>
<linearGradient id="SVGID_13_" gradientUnits="userSpaceOnUse" x1="86.466" y1="79.9279" x2="271.1494" y2="282.908" gradientTransform="matrix(0.9861 0.166 0.166 -0.9861 -41.3192 342.8621)">
	<stop  offset="0" style="stop-color:#5F67FF"/>
	<stop  offset="0.9704" style="stop-color:#2CA1FF"/>
	<stop  offset="1" style="stop-color:#2AA3FF"/>
</linearGradient>
<path class="st16" d="M275,107.6c1.2,0.8-4,4.5-2.7,0.6C272.6,108.1,272.6,107.3,275,107.6z"/>
<linearGradient id="SVGID_14_" gradientUnits="userSpaceOnUse" x1="106.4447" y1="45.8331" x2="298.8365" y2="257.2852" gradientTransform="matrix(0.9861 0.166 0.166 -0.9861 -41.3192 342.8621)">
	<stop  offset="0" style="stop-color:#5F67FF"/>
	<stop  offset="0.9704" style="stop-color:#2CA1FF"/>
	<stop  offset="1" style="stop-color:#2AA3FF"/>
</linearGradient>
<path class="st17" d="M285.5,147.5c1.7,2.8-4.7,9.5-8.8,6.2C276.3,148.8,279.8,146.1,285.5,147.5z"/>
<path class="st6" d="M124,136.4c-2.2-1.5,6.4-9.8,6.1-2.9C129.3,135.4,128.4,137,124,136.4z"/>
<linearGradient id="SVGID_15_" gradientUnits="userSpaceOnUse" x1="114.7246" y1="33.1853" x2="303.0194" y2="240.1345" gradientTransform="matrix(0.9861 0.166 0.166 -0.9861 -41.3192 342.8621)">
	<stop  offset="0" style="stop-color:#5F67FF"/>
	<stop  offset="0.9704" style="stop-color:#2CA1FF"/>
	<stop  offset="1" style="stop-color:#2AA3FF"/>
</linearGradient>
<path class="st18" d="M136.5,282.7c2.3,1.4-6.2,10-6.1,3.1C131.1,283.8,132,282.2,136.5,282.7z"/>
<path class="st6" d="M130.6,222c2.3,1.4-6.2,10-6.1,3.1C125.2,223.1,126.1,221.5,130.6,222z"/>
<linearGradient id="SVGID_16_" gradientUnits="userSpaceOnUse" x1="84.7519" y1="73.5971" x2="270.9801" y2="278.2751" gradientTransform="matrix(0.9861 0.166 0.166 -0.9861 -41.3192 342.8621)">
	<stop  offset="0" style="stop-color:#5F67FF"/>
	<stop  offset="0.9704" style="stop-color:#2CA1FF"/>
	<stop  offset="1" style="stop-color:#2AA3FF"/>
</linearGradient>
<path class="st19" d="M212.2,159.7c-2.1-2.3,8.8-8.2,5.3-0.7C216.3,159.2,216.1,160.8,212.2,159.7z"/>
<linearGradient id="SVGID_17_" gradientUnits="userSpaceOnUse" x1="119.9934" y1="29.3306" x2="314.5751" y2="243.1895" gradientTransform="matrix(0.9861 0.166 0.166 -0.9861 -41.3192 342.8621)">
	<stop  offset="0" style="stop-color:#5F67FF"/>
	<stop  offset="0.9704" style="stop-color:#2CA1FF"/>
	<stop  offset="1" style="stop-color:#2AA3FF"/>
</linearGradient>
<path class="st20" d="M137.1,276.7c19.6,7.9,32.2,0.3,37.9-2.2C169.8,275.8,142.7,277.9,137.1,276.7z"/>
<linearGradient id="SVGID_18_" gradientUnits="userSpaceOnUse" x1="127.9834" y1="22.0552" x2="322.5708" y2="235.9205" gradientTransform="matrix(0.9861 0.166 0.166 -0.9861 -41.3192 342.8621)">
	<stop  offset="0" style="stop-color:#5F67FF"/>
	<stop  offset="0.9704" style="stop-color:#2CA1FF"/>
	<stop  offset="1" style="stop-color:#2AA3FF"/>
</linearGradient>
<path class="st21" d="M226.4,237.6c4.5-1.1,17.3-15.4,16.9-21C242,220,229.5,235,226.4,237.6z"/>
<linearGradient id="SVGID_19_" gradientUnits="userSpaceOnUse" x1="81.1869" y1="64.6475" x2="275.7665" y2="278.5041" gradientTransform="matrix(0.9861 0.166 0.166 -0.9861 -41.3192 342.8621)">
	<stop  offset="0" style="stop-color:#5F67FF"/>
	<stop  offset="0.9704" style="stop-color:#2CA1FF"/>
	<stop  offset="1" style="stop-color:#2AA3FF"/>
</linearGradient>
<path class="st22" d="M225,170.5c-19.5-11.8-31.6-4-36.6-2.8C192.8,166.3,220.7,168.6,225,170.5z"/>
<linearGradient id="SVGID_20_" gradientUnits="userSpaceOnUse" x1="74.8116" y1="70.4385" x2="269.3991" y2="284.3038" gradientTransform="matrix(0.9861 0.166 0.166 -0.9861 -41.3192 342.8621)">
	<stop  offset="0" style="stop-color:#5F67FF"/>
	<stop  offset="0.9704" style="stop-color:#2CA1FF"/>
	<stop  offset="1" style="stop-color:#2AA3FF"/>
</linearGradient>
<path class="st23" d="M113.1,239c1.9-23.1,10.5-22.2,19.4-25.7C125.3,215.9,113.7,231.9,113.1,239z"/>
<rect x="335.9" y="51.2" transform="matrix(0.5788 -0.8155 0.8155 0.5788 89.3275 313.3897)" class="st6" width="24.2" height="38.1"/>
<rect x="330.8" y="56.8" transform="matrix(0.5788 -0.8155 0.8155 0.5788 90.492 305.1662)" class="st24" width="19.7" height="16.4"/>
<rect x="345.5" y="67.3" transform="matrix(0.5788 -0.8155 0.8155 0.5788 88.0901 321.6009)" class="st24" width="19.7" height="16.4"/>
<rect x="266.3" y="1.8" transform="matrix(0.5788 -0.8155 0.8155 0.5788 100.2256 235.8092)" class="st6" width="24.2" height="38.1"/>
<rect x="261.2" y="7.5" transform="matrix(0.5788 -0.8155 0.8155 0.5788 101.3422 227.7009)" class="st24" width="19.7" height="16.4"/>
<rect x="276" y="18" transform="matrix(0.5788 -0.8155 0.8155 0.5788 99.065 244.1257)" class="st24" width="19.7" height="16.4"/>
<rect x="251.7" y="22.5" transform="matrix(0.5788 -0.8155 0.8155 0.5788 77.2242 232.5791)" class="st6" width="24.2" height="38.1"/>
<rect x="246.5" y="28.3" transform="matrix(0.5788 -0.8155 0.8155 0.5788 78.1938 224.3948)" class="st24" width="19.7" height="16.4"/>
<rect x="261.4" y="38.7" transform="matrix(0.5788 -0.8155 0.8155 0.5788 76.0204 240.9417)" class="st24" width="19.7" height="16.4"/>
<rect x="321.2" y="71.8" transform="matrix(0.5788 -0.8155 0.8155 0.5788 66.269 310.0967)" class="st6" width="24.2" height="38.1"/>
<rect x="316" y="77.6" transform="matrix(0.5788 -0.8155 0.8155 0.5788 67.3088 301.8837)" class="st24" width="19.7" height="16.4"/>
<rect x="330.9" y="88.1" transform="matrix(0.5788 -0.8155 0.8155 0.5788 64.9932 318.4465)" class="st24" width="19.7" height="16.4"/>
<path class="st25" d="M282,84.5c1-1.3,2.8-1.7,4.2-0.7c1.3,1,1.7,2.8,0.7,4.2c-1,1.3-2.8,1.7-4.2,0.7C281.3,87.8,281,86,282,84.5z"
	/>
<path class="st25" d="M286.5,75.2c1.5-2.1,4.4-2.6,6.5-1.1s2.6,4.4,1.1,6.5s-4.4,2.6-6.5,1.1C285.6,80.2,285.1,77.3,286.5,75.2z"/>
<rect x="282.2" y="78.5" transform="matrix(0.5788 -0.8155 0.8155 0.5788 56.2205 269.221)" class="st25" width="13" height="3.4"/>
<rect x="320.2" y="24.9" transform="matrix(0.5789 -0.8154 0.8154 0.5789 115.8772 277.5844)" class="st25" width="13" height="3.4"/>
<rect x="328.8" y="16" transform="matrix(0.5789 -0.8154 0.8154 0.5789 121.9743 278.4176)" class="st25" width="3.4" height="10.2"/>
<rect x="280.4" y="43.5" transform="matrix(0.5788 -0.8155 0.8155 0.5788 80.33 272.5166)" class="st6" width="47.2" height="30"/>
<polygon class="st25" points="321.2,75 314.2,70.1 315.4,68.3 322.4,73.3 "/>
<rect x="309.2" y="78.7" transform="matrix(0.5788 -0.8155 0.8155 0.5788 62.9363 287.9458)" class="st25" width="2" height="8.6"/>
<polygon class="st25" points="275.8,57.7 282.8,62.6 281.6,64.1 274.6,59.2 "/>
<polygon class="st25" points="284,46 291,50.9 289.8,52.7 282.8,47.7 "/>
<rect x="332.1" y="46.7" transform="matrix(0.5788 -0.8155 0.8155 0.5788 98.7596 293.1046)" class="st25" width="2" height="8.6"/>
<rect x="323.9" y="58.2" transform="matrix(0.5788 -0.8155 0.8155 0.5788 85.9433 291.2901)" class="st25" width="2" height="8.6"/>
<polygon class="st25" points="290.5,37 297.4,41.9 296.3,43.4 289.4,38.5 "/>
<polygon class="st25" points="298.7,25.4 305.7,30.4 304.5,31.9 297.5,26.9 "/>
<path class="st6" d="M329.9,48c-4.8,6.7-14.1,8.3-20.9,3.6c-6.7-4.8-8.3-14.1-3.6-20.9c4.8-6.7,14.1-8.3,20.9-3.6
	C333.1,31.9,334.7,41.3,329.9,48z"/>
<g>
	
		<rect x="264.4" y="90.6" transform="matrix(0.5787 -0.8156 0.8156 0.5787 29.3083 258.4175)" class="st25" width="0.7" height="20.4"/>
</g>
<g>
	
		<rect x="252.3" y="86.7" transform="matrix(0.5789 -0.8154 0.8154 0.5789 39.5623 250.6675)" class="st25" width="20.4" height="0.7"/>
</g>
<g>
	<rect x="256.3" y="92.9" transform="matrix(0.986 -0.167 0.167 0.986 -11.8311 45.8155)" class="st25" width="20.4" height="0.7"/>
</g>
<g>
	<path class="st6" d="M285.5,89.9c-1.6-9-10.1-15.1-19-13.5L272,109C281,107.5,287,98.9,285.5,89.9z"/>
</g>
<path class="st6" d="M256.1,92.7c1.2-0.2,2.3,0.6,2.6,1.8c0.2,1.2-0.6,2.3-1.8,2.6c-1.2,0.2-2.3-0.6-2.6-1.8
	C254.1,94,254.9,92.9,256.1,92.7z"/>
<path class="st26" d="M308.7,44c1.1-1.5,3.2-1.9,4.7-0.8l2.1,1.5c1.5,1.1,1.9,3.2,0.8,4.7l-17.1,24c-1.1,1.5-3.2,1.9-4.7,0.8
	l-2.1-1.5c-1.5-1.1-1.9-3.2-0.8-4.7L308.7,44z"/>
<path class="st4" d="M206.6,196.6c-23.3-5.5-33.2,0.3-44.1,10.2c0,0,3.1,0.3,5.8,0.6c-7.6,5.7-26.4,29.9-21.8,42.1
	c4.8-11,6.5-4,14.7-2.6c12.9,1.2,30.5-8.5,42.4-18.2c0,0-3.2-0.9-6.1-1.7c9.8-7.8,28.2-29.8,14.2-35.6l-0.7,6.1
	C211,197.5,209.7,197.1,206.6,196.6z"/>
<path class="st6" d="M181.6,207.6c-2.2-1.5,6.4-9.8,6.1-2.9C187,206.6,186.1,208.2,181.6,207.6z"/>
<g id="DESIGNED_BY_FREEPIK">
</g>
</svg>
