<?xml version="1.0" encoding="utf-8"?>
<!-- Generator: Adobe Illustrator 23.0.6, SVG Export Plug-In . SVG Version: 6.00 Build 0)  -->
<svg version="1.1" id="Layer_1" xmlns="http://www.w3.org/2000/svg" xmlns:xlink="http://www.w3.org/1999/xlink" x="0px" y="0px"
	 viewBox="0 0 127.4 129.6" style="enable-background:new 0 0 127.4 129.6;" xml:space="preserve">
<style type="text/css">
	.st0{fill:#C2C2C2;}
	.st1{fill:#D6D6D6;}
	.st2{fill:#F6F6F6;}
	.st3{opacity:0.15;fill:#230753;enable-background:new    ;}
	.st4{fill:#E3E3E3;}
</style>
<g>
	<path id="Pfad_50" class="st0" d="M49.9,110.7l5.1,0.6c3.9,0.5,6.8,4.1,6.3,8l-0.5,3.9c-0.5,3.9-4.1,6.8-8,6.3l-5.1-0.6
		c-3.9-0.5-6.8-4.1-6.3-8l0.5-3.9C42.3,113,45.9,110.2,49.9,110.7z"/>
	<path id="Rechteck_17" class="st0" d="M127.1,78.8l-3,7.9c-1.1,2.9-4.3,4.3-7.2,3.2l0,0l-6.8-2.6c-2.9-1.1-4.3-4.3-3.2-7.2l0,0
		l3-7.9c1.1-2.9,4.3-4.3,7.2-3.2l6.8,2.6C126.7,72.7,128.1,75.9,127.1,78.8z"/>
	<path id="Pfad_51" class="st1" d="M113.9,24.6l2.7,3.6c2.5,3.3,1.8,8.1-1.5,10.6l-2.6,1.9c-3.3,2.5-8.1,1.8-10.6-1.5l-2.6-3.6
		c-2.5-3.3-1.8-8.1,1.5-10.6l2.6-1.9C106.7,20.6,111.4,21.3,113.9,24.6z"/>
	<path id="Rechteck_18" class="st1" d="M62.2,18.6L54,18.3c-3.1-0.1-5.6-2.7-5.5-5.8l0.2-7c0.1-3.1,2.7-5.6,5.8-5.5l8.2,0.3
		c3.1,0.1,5.6,2.7,5.5,5.8l0,0l-0.2,7C68,16.3,65.4,18.7,62.2,18.6L62.2,18.6z"/>
	<path id="Pfad_52" class="st1" d="M25.1,36.3l-2.7,3.5c-3.1,4-8.9,4.6-12.9,1.5l0,0c-4-3.1-4.6-8.9-1.5-12.9l2.7-3.5
		c3.1-4,8.9-4.6,12.9-1.5l0,0C27.6,26.5,28.3,32.3,25.1,36.3z"/>
	<path id="Pfad_53" class="st2" d="M124.5,65.7c0,34.4-27.9,62.2-62.2,62.2c-34.4,0-62.2-27.9-62.2-62.2C0.1,31.3,28,3.5,62.3,3.5
		C96.7,3.5,124.5,31.4,124.5,65.7L124.5,65.7z"/>
	<path id="Pfad_54" class="st3" d="M62.3,102.2c-29.4,0-54.8-20.6-60.9-49.3c-7.1,33.6,14.4,66.7,48,73.8s66.7-14.4,73.8-48
		c1.8-8.5,1.8-17.3,0-25.7C117.1,81.6,91.7,102.2,62.3,102.2z"/>
	<path id="Pfad_55" class="st4" d="M47.3,29.9c1.1,2.5-1.1,5.8-4.9,7.4c-3.8,1.6-7.6,0.8-8.7-1.8s1.1-5.8,4.9-7.4
		S46.2,27.4,47.3,29.9z"/>
	<path id="Pfad_56" class="st4" d="M31.3,37.8C29.7,34,33,29,38.6,26.6c4.2-1.7,8.5-1.5,11.1,0.2c-2.4-2.5-7.3-3-12-1.1
		c-5.6,2.3-8.9,7.3-7.3,11.2c0.4,1,1.1,1.8,2,2.4C31.9,39,31.5,38.4,31.3,37.8z"/>
	<path id="Pfad_57" class="st3" d="M47.3,29.9c-0.3-0.6-0.7-1.1-1.2-1.5c0.7,2.5-1.4,5.6-5,7c-2.8,1.2-5.7,1-7.5-0.2
		c0,0.1,0.1,0.2,0.1,0.4c1.1,2.5,4.9,3.3,8.7,1.8S48.3,32.4,47.3,29.9z"/>
	<path id="Pfad_58" class="st4" d="M68.7,15.6c0.2,1.5-1.9,3-4.6,3.3c-2.7,0.3-5-0.7-5.2-2.2s1.9-3,4.6-3.3S68.6,14.1,68.7,15.6z"/>
	<path id="Pfad_59" class="st4" d="M81.6,37.9c-1.2-0.7-1.4-2.6-0.6-4.3c-0.1,0.2-0.2,0.3-0.3,0.5c-1.1,1.9-0.9,4.1,0.4,4.9
		c1.3,0.8,3.3-0.2,4.4-2.1c0.1-0.2,0.2-0.4,0.3-0.5C84.5,37.9,82.8,38.6,81.6,37.9z"/>
	<path id="Pfad_60" class="st3" d="M57.1,17.4c-0.3-2.4,3-4.8,7.3-5.2c1.7-0.2,3.3-0.1,4.9,0.4c-1.9-0.8-4-1.1-6-0.8
		C59,12.3,55.7,14.6,56,17c0.2,1.4,1.5,2.5,3.4,3.1C58.2,19.6,57.3,18.6,57.1,17.4z"/>
	<path id="Pfad_61" class="st3" d="M68.7,15.6c-0.1-1.3-1.9-2.2-4.1-2.2c1.2,0.4,2.1,1.1,2.2,2c0.2,1.5-1.9,3-4.6,3.3
		c-0.4,0-0.7,0.1-1.1,0.1c1,0.3,2,0.4,3,0.2C66.8,18.5,68.9,17.1,68.7,15.6z"/>
	<path id="Pfad_62" class="st4" d="M17.1,52.4c2.3,1.5,2.5,5.4,0.4,8.8s-5.7,4.9-8,3.5c-2.3-1.4-2.5-5.4-0.4-8.8S14.7,51,17.1,52.4z
		"/>
	<path id="Pfad_63" class="st3" d="M18.4,50.7c2.5,1.6,3,5.3,1.5,9c2.1-3.7,1.9-7.9-0.7-9.5c-1.4-0.8-3.2-0.8-4.6-0.1
		C15.9,49.8,17.3,50,18.4,50.7z"/>
	<path id="Pfad_64" class="st3" d="M7.8,66c-3.2-2-3.6-7.1-1.2-11.8c-0.3,0.3-0.5,0.7-0.7,1.1c-3.1,5-2.9,10.8,0.6,13
		c3.5,2.2,8.8-0.2,11.9-5.2c0.2-0.4,0.4-0.8,0.6-1.1C15.8,66.1,11,67.9,7.8,66z"/>
	<path id="Pfad_65" class="st3" d="M17.1,52.4c-2.3-1.5-5.9,0.1-8,3.5c-0.3,0.5-0.6,1.1-0.8,1.6c2.1-2.3,5-3.3,6.9-2
		s2.4,4.2,1.2,7.1c0.4-0.4,0.8-0.9,1.1-1.4C19.6,57.8,19.4,53.9,17.1,52.4z"/>
	<path id="Pfad_66" class="st4" d="M35.2,77.2c5,3.1,7,9,4.5,13.2s-8.7,4.9-13.8,1.8c-5.1-3.1-7-9-4.5-13.2S30.2,74,35.2,77.2z"/>
	<path id="Pfad_67" class="st3" d="M21.5,84.7c2.6-4.1,8.7-4.9,13.8-1.8c2.3,1.4,4.1,3.6,5.1,6.2c1.6-4-0.5-9.1-5.1-11.9
		c-5-3.1-11.2-2.4-13.8,1.8c-1.3,2.1-1.5,4.7-0.6,7C21,85.5,21.2,85.1,21.5,84.7z"/>
	<path id="Pfad_68" class="st3" d="M45.7,85.8c0.1,2.1-0.4,4.1-1.4,5.9c-3.5,6-12.2,7.4-19.6,3.2c-3.8-2.1-6.6-5.5-7.9-9.6
		C17,90.1,20.1,95,25.2,98c7.4,4.2,16.1,2.8,19.6-3.2C46.3,92,46.6,88.8,45.7,85.8z"/>
	<path id="Pfad_69" class="st3" d="M39.9,112.6c2-3.2,7.2-3.4,11.7-0.6c3.1,1.9,5,4.8,5.3,7.5c0.2-2.9-1.8-6.4-5.3-8.6
		c-4.5-2.8-9.8-2.5-11.7,0.6c-0.6,1-0.9,2.2-0.7,3.3C39.3,114,39.5,113.3,39.9,112.6z"/>
	<path id="Pfad_70" class="st3" d="M53.8,117c-0.1,0.4-0.2,0.9-0.5,1.3c-1.5,2.3-5.3,2.5-8.6,0.5c-1.5-0.9-2.7-2.2-3.4-3.8
		c-0.4,2.2,1.1,5,3.8,6.7c3.3,2.1,7.2,1.9,8.6-0.5C54.5,119.8,54.5,118.3,53.8,117z"/>
	<path id="Pfad_71" class="st4" d="M94.9,77.9c7.5,4.7,10.2,14,6,20.7s-13.7,8.4-21.3,3.7s-10.2-14-6-20.7S87.3,73.2,94.9,77.9z"/>
	<path id="Pfad_72" class="st3" d="M77.8,90c4.2-6.7,13.7-8.4,21.3-3.7c1.3,0.8,2.5,1.8,3.6,3c-0.8-4.8-3.7-8.9-7.8-11.4
		c-7.5-4.7-17.1-3.1-21.3,3.7c-3.4,5.5-2.3,12.7,2.4,17.8C75.4,96.1,76.1,92.8,77.8,90z"/>
	<path id="Pfad_73" class="st3" d="M107,87.5c0,4.1-1.1,8.1-3.3,11.5c-6.1,9.8-18.6,12.9-28,7.1c-4.5-2.8-7.6-7.3-8.7-12.5
		c0,6.8,3.4,13.1,9.2,16.7c9.4,5.8,21.9,2.7,28-7.1C107.1,98.6,108.1,92.9,107,87.5z"/>
	<path id="Pfad_74" class="st4" d="M49,58.9c-0.4,1.3-2.3,1.8-4.1,1.1s-3-2.2-2.5-3.4s2.3-1.8,4.1-1.1S49.4,57.6,49,58.9z"/>
	<path id="Pfad_75" class="st3" d="M49.8,56.8c0.4,0.6,0.5,1.4,0.2,2.1c-0.6,1.7-3.1,2.4-5.6,1.5c-1-0.3-2-1-2.7-1.8
		c0.7,1.2,1.8,2.1,3.2,2.5c2.5,0.9,5,0.2,5.6-1.5C50.8,58.7,50.5,57.6,49.8,56.8z"/>
	<path id="Pfad_76" class="st3" d="M43.2,57.5c0.4-1.3,2.3-1.8,4.1-1.1c0.5,0.2,0.9,0.4,1.3,0.7c-0.5-0.8-1.3-1.3-2.2-1.6
		c-1.8-0.6-3.7-0.1-4.1,1.1c-0.2,1.1,0.3,2.2,1.2,2.7C43.2,58.8,43,58.1,43.2,57.5z"/>
	<path id="Pfad_77" class="st3" d="M76.6,54.5c-1.2-0.5-2.5-0.2-3.3,0.7c0.6-0.1,1.2,0,1.8,0.2c1.5,0.4,2.5,1.9,2.1,3.5
		c-0.1,0.3-0.2,0.5-0.4,0.7c0.9-0.1,1.7-0.7,2-1.6C79.1,56.5,78.2,54.9,76.6,54.5z"/>
	<path id="Pfad_78" class="st3" d="M75.7,60.5c-3.3-0.9-5.4-3.9-4.6-6.7c0.1-0.5,0.3-0.9,0.6-1.3c-0.9,0.6-1.6,1.5-1.9,2.6
		c-0.8,2.8,1.3,5.7,4.6,6.7c2.4,0.8,5.1,0,6.7-2C79.6,60.8,77.6,61.1,75.7,60.5z"/>
	<path id="Pfad_79" class="st3" d="M109,59.3c0,0.5-0.1,1.1-0.5,1.5c-0.6,0.8-1.7,1.1-2.6,0.5c-0.1-0.1-0.3-0.2-0.3-0.4
		c0,0.4,0.2,0.8,0.5,1.1c0.9,0.5,2,0.3,2.5-0.5C109.2,60.8,109.3,60,109,59.3z"/>
	<path id="Pfad_80" class="st3" d="M82.1,33.7c0.9-0.6,2.1-0.5,2.7,0.4c0.3,0.4,0.3,0.9,0.1,1.4c0.5-0.6,0.6-1.4,0.2-2.1
		c-0.7-0.8-1.9-1-2.7-0.4c-0.5,0.3-0.8,0.7-1,1.2C81.7,34.1,81.9,33.9,82.1,33.7z"/>
	<path id="Pfad_81" class="st3" d="M108.5,41.7c-0.4-1-1.6-1.5-2.5-1.1c-0.5,0.1-0.9,0.4-1.1,0.8c0.2-0.2,0.4-0.3,0.7-0.3
		c1-0.4,2.1,0.1,2.5,1.1c0.2,0.5,0,1.1-0.4,1.5C108.4,43.3,108.7,42.5,108.5,41.7z"/>
	<path id="Pfad_82" class="st3" d="M84.1,21.9c0.3-1.3,2.3-1.9,4.6-1.4c0.6,0.1,1.1,0.3,1.7,0.6c-0.9-0.9-2-1.5-3.2-1.7
		c-2.3-0.5-4.3,0.2-4.6,1.4c-0.2,0.9,0.6,1.9,2,2.6C84.2,23,84.1,22.5,84.1,21.9z"/>
	<g id="Gruppe_49" transform="translate(3.523 86.309)">
		<g id="Gruppe_48" transform="translate(0.362)">
			<path id="Pfad_83" class="st3" d="M6.4,5.1C4.7,1.5,2.1-0.8,0.5,0C0.3,0.1,0.1,0.3,0,0.5C1,0.9,3.1,2.9,4.6,6
				c1.1,2.2,1.4,4.6,1,7c0.3,0.1,0.7,0.1,1-0.1C8.2,12.1,8.1,8.6,6.4,5.1z"/>
		</g>
		<path id="Pfad_84" class="st0" d="M5,5.9c1.6,3.4,2.3,6.6,1.4,7s-2.9-2-4.6-5.5s-2.3-6.6-1.4-7S3.3,2.5,5,5.9z"/>
		<path id="Pfad_85" class="st3" d="M5,5.9c-0.2-0.3-0.3-0.7-0.5-1c1.3,3,1.7,5.6,1,6C4.8,11.3,3,9.3,1.4,6.4c0.1,0.3,0.3,0.7,0.4,1
			c1.6,3.4,3.7,5.9,4.6,5.5S6.6,9.3,5,5.9z"/>
	</g>
	<path id="Pfad_86" class="st3" d="M107.6,44.6c-1.5,0.6-3.3-0.1-3.9-1.6c-0.2-0.8-0.1-1.7,0.5-2.4c-1,0.7-1.4,1.9-1.1,3
		c0.6,1.5,2.4,2.2,3.9,1.6c0.7-0.2,1.3-0.7,1.7-1.3C108.3,44.3,108,44.5,107.6,44.6z"/>
</g>
</svg>
