<?xml version="1.0" encoding="utf-8"?>
<!-- Generator: Adobe Illustrator 23.0.6, SVG Export Plug-In . SVG Version: 6.00 Build 0)  -->
<svg version="1.1" id="Layer_1" xmlns="http://www.w3.org/2000/svg" xmlns:xlink="http://www.w3.org/1999/xlink" x="0px" y="0px"
	 viewBox="0 0 146 109.8" style="enable-background:new 0 0 146 109.8;" xml:space="preserve">
<style type="text/css">
	.st0{fill:#FFFFFF;}
	.st1{fill:#1E87DC;}
	.st2{fill:#144B7D;}
	.st3{fill:#283D77;}
	.st4{fill:#0073AA;}
</style>
<path id="Pfad_246" class="st0" d="M7.9,1l0.8,2.1C8.9,3.6,9.2,3.9,9.6,4l2.1,0.8c0.9,0.4,1.3,1.4,1,2.2c-0.2,0.4-0.5,0.7-0.9,0.9
	L9.6,8.7C9.2,8.9,8.9,9.2,8.7,9.6l-0.8,2.1c-0.3,0.8-1.3,1.2-2.1,0.9c-0.4-0.2-0.7-0.5-0.9-0.9L4.1,9.6C3.9,9.2,3.6,8.9,3.2,8.7
	L1,7.9C0.2,7.6-0.2,6.6,0.1,5.8C0.3,5.4,0.6,5.1,1,4.9L3.2,4c0.4-0.2,0.7-0.5,0.9-0.9L4.9,1C5.2,0.2,6.2-0.2,7,0.1
	C7.4,0.3,7.7,0.6,7.9,1z"/>
<path id="Pfad_247" class="st0" d="M17.6,89.1l0.5,1.3c0.1,0.2,0.3,0.4,0.5,0.5l1.3,0.5c0.5,0.2,0.7,0.8,0.5,1.3
	c-0.1,0.2-0.3,0.4-0.5,0.5l-1.3,0.5c-0.2,0.1-0.4,0.3-0.5,0.5l-0.5,1.3c-0.2,0.5-0.8,0.7-1.3,0.5c-0.2-0.1-0.4-0.3-0.5-0.5l-0.5-1.3
	c-0.1-0.2-0.3-0.4-0.5-0.5l-1.3-0.5C13,93,12.8,92.4,13,91.9c0.1-0.2,0.3-0.4,0.5-0.5l1.3-0.5c0.2-0.1,0.4-0.3,0.5-0.5l0.5-1.3
	c0.2-0.5,0.8-0.7,1.3-0.5C17.3,88.6,17.5,88.8,17.6,89.1z"/>
<path id="Pfad_248" class="st0" d="M130.4,102.8l0.5,1.3c0.1,0.2,0.3,0.4,0.5,0.5l1.3,0.5c0.5,0.2,0.7,0.8,0.5,1.3
	c-0.1,0.2-0.3,0.4-0.5,0.5l-1.3,0.5c-0.2,0.1-0.4,0.3-0.5,0.5l-0.5,1.3c-0.2,0.5-0.8,0.7-1.3,0.5c-0.2-0.1-0.4-0.3-0.5-0.5l-0.5-1.3
	c-0.1-0.2-0.3-0.4-0.5-0.5l-1.3-0.5c-0.5-0.2-0.7-0.8-0.5-1.3c0.1-0.2,0.3-0.4,0.5-0.5l1.3-0.5c0.2-0.1,0.4-0.3,0.5-0.5l0.5-1.3
	c0.2-0.5,0.8-0.7,1.3-0.5C130.1,102.4,130.3,102.5,130.4,102.8z"/>
<path id="Pfad_249" class="st0" d="M138.2,12.1l1.4,3.4c0.3,0.7,0.8,1.2,1.4,1.4l3.3,1.3c1,0.4,1.7,1.3,1.7,2.3
	c0,1.2-0.6,2.1-1.6,2.5l-3.4,1.4c-0.7,0.3-1.2,0.8-1.4,1.4l-1.4,3.4c-0.5,1.3-2,2-3.4,1.4c-0.7-0.3-1.2-0.8-1.4-1.4l-1.4-3.4
	c-0.3-0.7-0.8-1.2-1.4-1.4l-3.3-1.3c-1-0.4-1.7-1.3-1.7-2.3c0-1.2,0.6-2.1,1.6-2.5l3.4-1.4c0.7-0.3,1.2-0.8,1.4-1.4l1.4-3.4
	c0.5-1.3,2-2,3.4-1.4C137.4,10.9,137.9,11.4,138.2,12.1z"/>
<g id="Gruppe_119" transform="translate(27.522 6.791)">
	<g id="Gruppe_116">
		<circle id="Ellipse_7" class="st1" cx="45.8" cy="45.8" r="45.8"/>
		<path id="Pfad_260" class="st2" d="M45.8,0c-1.6,0-3.3,0.1-4.9,0.3C61.5,2.8,76,22,72.5,42.6C69.5,60,54.2,73,36.6,73
			C17.8,73,2.5,59,0.3,40.8c-0.2,1.7-0.3,3.3-0.3,5c0,25.9,21.5,46.7,47.6,45.7c23.7-0.9,43.1-20.2,44-44C92.5,21.5,71.6,0,45.8,0
			L45.8,0z"/>
	</g>
	<path id="Pfad_261" class="st3" d="M25.9,87c10.8-2,23.7-7.5,36.4-16.1c13.2-9,23.4-19.3,29.1-28.9c-0.2-2.5-0.6-4.9-1.2-7.3
		c-4,9.6-14.3,21.7-30.3,32.6C44.5,77.7,30,82.8,19.6,83.3C21.6,84.7,23.7,86,25.9,87z"/>
	<path id="Pfad_262" class="st4" d="M82,17.9c-3,9.9-13.7,23.4-31.3,35.3C33.2,65,16.9,70,6.5,69.3c0.9,1.5,2,3,3.1,4.5
		c0.6,0,1.2,0,1.8-0.1C23,72.8,38.2,67,53.2,56.8C69,46.1,80.4,33.3,85.1,22.4C84.2,20.8,83.1,19.3,82,17.9z"/>
	<g id="Gruppe_117" transform="translate(6.486 17.871)">
		<path id="Pfad_263" class="st3" d="M78.6,4.5L78.6,4.5c-0.9-1.6-1.9-3-3.1-4.5c-1.4,4.6-4.5,10-9.2,15.6c0.1,1,0.1,2,0.1,3
			c0,1.3-0.1,2.5-0.2,3.8C72,16.3,76.2,10.1,78.6,4.5z"/>
		<path id="Pfad_264" class="st3" d="M11.8,50.2C8,51.2,4,51.6,0,51.4c0.9,1.5,2,3,3.1,4.5c0.6,0,1.2,0,1.8-0.1
			c4.5-0.4,9-1.3,13.3-2.7C15.9,52.4,13.8,51.4,11.8,50.2z"/>
	</g>
	<path id="Pfad_265" class="st4" d="M74.9,10.5c-1.2-1-2.4-1.9-3.6-2.7c-4.4,9.4-14.5,20.9-29.8,31.3C26,49.6,11.3,54.7,1,55.2
		c0.3,1.5,0.7,2.9,1.1,4.4h0.1C13.9,58.8,29,52.9,44,42.8C58.8,32.7,69.7,20.9,74.9,10.5z"/>
	<g id="Gruppe_118" transform="translate(0.98 7.798)">
		<path id="Pfad_266" class="st3" d="M70.3,0c-1.3,2.8-3,5.5-4.8,8c0.9,1.3,1.7,2.7,2.4,4.1c2.3-2.9,4.3-6.1,6-9.4
			C72.8,1.7,71.6,0.8,70.3,0z"/>
		<path id="Pfad_267" class="st3" d="M4,47c-1.4,0.2-2.7,0.3-4,0.4c0.3,1.5,0.7,2.9,1.1,4.4h0.1c1.8-0.1,3.7-0.4,5.5-0.7
			C5.7,49.8,4.8,48.4,4,47z"/>
	</g>
</g>
</svg>
