<?xml version="1.0" encoding="utf-8"?>
<!-- Generator: Adobe Illustrator 23.0.6, SVG Export Plug-In . SVG Version: 6.00 Build 0)  -->
<svg version="1.1" id="Layer_1" xmlns="http://www.w3.org/2000/svg" xmlns:xlink="http://www.w3.org/1999/xlink" x="0px" y="0px"
	 viewBox="0 0 183.9 90.9" style="enable-background:new 0 0 183.9 90.9;" xml:space="preserve">
<style type="text/css">
	.st0{fill:#F1F2F2;}
	.st1{fill:#FF4D26;}
	.st2{fill:#FFFFFF;}
	.st3{opacity:0.1;enable-background:new    ;}
	.st4{fill:#D1D3D4;}
	.st5{fill:#0096AF;}
</style>
<g id="Gruppe_198" transform="translate(0)">
	<g id="Satellite_Receiver_3" transform="translate(28.301 0)">
		<g id="Gruppe_166" transform="translate(20.329 88.803)">
			<g id="Gruppe_163" transform="translate(30.455)">
				<g id="Gruppe_162">
					<path id="Pfad_393" class="st0" d="M15.4-1v-20.6c0-1.7,1.5-3.1,3.1-3.1h11.6c1.7,0,3.1,1.1,3.6,2.7l5.9,20.9
						C40.1,0.1,39.3,1.5,38,2c-0.3,0.1-0.6,0.1-0.9,0.1H18.6C16.9,2.1,15.4,0.8,15.4-1z M18.6-22.4c-0.3,0-0.7,0.3-0.7,0.7V-1
						c0,0.3,0.3,0.7,0.7,0.7h18.6c0.1,0,0.1,0,0.2,0c0-0.1,0-0.1,0-0.2l-5.9-20.9c-0.2-0.4-0.7-0.9-1.2-0.9H18.6V-22.4z"/>
				</g>
			</g>
			<g id="Gruppe_165">
				<g id="Gruppe_164">
					<path id="Pfad_394" class="st0" d="M24.5,1.1C24,0.4,23.8-0.5,24-1.3l6-20.8c0.6-1.6,1.9-2.7,3.6-2.7h11.6
						c1.7,0,3.1,1.5,3.1,3.1V-1c0,1.7-1.5,3.1-3.1,3.1H26.6C25.8,2.1,25.1,1.8,24.5,1.1z M33.6-22.4c-0.6,0-1,0.4-1.2,0.9L26.5-0.6
						c0,0.1,0,0.1,0,0.2c0,0,0.1,0,0.2,0h18.6C45.7-0.4,46-0.7,46-1v-20.6c0-0.3-0.3-0.7-0.7-0.7L33.6-22.4L33.6-22.4z"/>
				</g>
			</g>
		</g>
		<rect id="Rechteck_80" x="65.1" y="45.6" class="st0" width="4.8" height="10.7"/>
		<path id="Pfad_395" class="st1" d="M54.3,23.8l3.1-2.9l-10.1-7.5l-10-7.6l7,10.4l7,10.4L54.3,23.8z"/>
		<path id="Pfad_396" class="st2" d="M35.8,8.6c1.1,1.2,3.1,1.3,4.4,0.1c1.2-1.1,1.3-3.1,0.1-4.4c-1.1-1.2-3.1-1.3-4.4-0.1
			C34.7,5.5,34.7,7.4,35.8,8.6L35.8,8.6z"/>
		<path id="Pfad_397" class="st3" d="M40.4,4.4c-0.1-0.1-0.3-0.3-0.6-0.4c0.3,1.7-0.8,3.4-2.5,3.6c-0.8,0.1-1.7,0-2.4-0.4
			c0.3,1.7,1.9,2.8,3.6,2.5c1.7-0.3,2.8-1.9,2.5-3.6C41.1,5.4,40.8,4.8,40.4,4.4L40.4,4.4z"/>
		<path id="Pfad_398" class="st4" d="M63.3,44.3c0,2.2,1.8,4.2,4.2,4.2c2.2,0,4.2-1.8,4.2-4.2c0-2.2-1.8-4.2-4.2-4.2l0,0
			C65.2,40.2,63.3,42,63.3,44.3z"/>
		<g id="Gruppe_167" transform="translate(42.699 72.487)">
			<path id="Pfad_399" class="st4" d="M24.8-20.3c3.9,0,7.1,3.1,7.1,7.1H17.7C17.7-17.1,20.8-20.3,24.8-20.3z"/>
		</g>
		<rect id="Rechteck_81" x="52.1" y="59.3" class="st0" width="30.7" height="5.3"/>
		<g id="Gruppe_168" transform="translate(0 0)">
			<path id="Pfad_400" class="st5" d="M70.8,41.3c-11.7,11-30.2,10.5-41.2-1.2L72.1,0C83.2,11.8,82.6,30.2,70.8,41.3z"/>
		</g>
		<path id="Pfad_401" class="st3" d="M78.7,11.2c0.2,16-12.6,29.3-28.7,29.6c-5.7,0.1-11.4-1.5-16.3-4.6l-4,3.8
			c11.1,11.7,29.5,12.2,41.2,1.2C79,33.6,82.1,21.9,78.7,11.2L78.7,11.2z"/>
	</g>
	<g id="Satellite_Receiver_2" transform="translate(107.072 60.948)">
		<g id="Gruppe_173" transform="translate(10.517 45.943)">
			<g id="Gruppe_170" transform="translate(15.756)">
				<g id="Gruppe_169">
					<path id="Pfad_402" class="st0" d="M0.2-17.6v-10.8C0.2-29.2,1-30,1.9-30H8c0.9,0,1.6,0.6,1.9,1.5l3,10.8
						c0.2,0.7-0.1,1.5-0.9,1.7c-0.3,0-0.4,0-0.5,0H1.9C1-16,0.2-16.7,0.2-17.6z M1.9-28.6c-0.2,0-0.3,0.1-0.3,0.3v10.7
						c0,0.2,0.1,0.3,0.3,0.3h9.7h0.1v-0.1l-3-10.8c-0.1-0.2-0.3-0.4-0.7-0.4L1.9-28.6z"/>
				</g>
			</g>
			<g id="Gruppe_172">
				<g id="Gruppe_171">
					<path id="Pfad_403" class="st0" d="M4.9-16.6c-0.2-0.3-0.3-0.8-0.2-1.2l3-10.8c0.2-0.8,1-1.3,1.9-1.5h6.1
						c0.9,0,1.6,0.8,1.7,1.7v10.7c0,0.9-0.7,1.7-1.7,1.7H6C5.5-16,5.2-16.1,4.9-16.6z M9.7-28.6c-0.2,0-0.6,0.2-0.7,0.4L6-17.4v0.1
						h0.1h9.7c0.2,0,0.3-0.1,0.3-0.3v-10.8c0-0.2-0.1-0.3-0.3-0.3L9.7-28.6L9.7-28.6z"/>
				</g>
			</g>
		</g>
		<rect id="Rechteck_82" x="25.9" y="6.5" class="st0" width="2.5" height="5.5"/>
		<path id="Pfad_404" class="st1" d="M20.4-4.8L22-6.4l-5.2-3.9l-5.2-3.9l3.6,5.4l3.6,5.4L20.4-4.8z"/>
		<path id="Pfad_405" class="st2" d="M10.8-12.5c0.6,0.7,1.6,0.7,2.2,0.1c0.7-0.6,0.7-1.6,0.1-2.2c-0.6-0.7-1.6-0.7-2.2-0.1
			C10.2-14.2,10.2-13.2,10.8-12.5C10.8-12.6,10.8-12.6,10.8-12.5z"/>
		<path id="Pfad_406" class="st3" d="M13.1-14.8C13-14.9,13-15,12.9-15c0.2,0.9-0.4,1.7-1.2,1.9c-0.4,0.1-0.9,0-1.2-0.2
			c0.2,0.9,1,1.5,1.9,1.2c0.9-0.2,1.5-1,1.2-1.9C13.5-14.3,13.3-14.5,13.1-14.8L13.1-14.8z"/>
		<path id="Pfad_407" class="st4" d="M25,5.9C25,7,25.9,8,27.1,8c1.1,0,2.1-0.9,2.1-2.1c0-1.1-0.9-2.1-2.1-2.1l0,0
			C25.9,3.7,25,4.6,25,5.9z"/>
		<g id="Gruppe_174" transform="translate(22.09 37.502)">
			<path id="Pfad_408" class="st4" d="M5-27.6c2,0,3.7,1.7,3.7,3.7l0,0H1.5C1.3-25.9,3-27.6,5-27.6L5-27.6z"/>
		</g>
		<rect id="Rechteck_83" x="19.2" y="13.6" class="st0" width="15.9" height="2.7"/>
		<g id="Gruppe_175" transform="translate(0 0)">
			<path id="Pfad_409" class="st5" d="M28.9,4.3c-6,5.7-15.6,5.4-21.3-0.7l22-20.8C35.2-11,35-1.4,28.9,4.3L28.9,4.3z"/>
		</g>
		<path id="Pfad_410" class="st3" d="M32.9-11.3C33.1-3,26.5,4,18.1,4.1c-3,0-5.9-0.8-8.4-2.4l-2,1.9C13.4,9.7,23,9.9,29,4.2
			C33.1,0.3,34.7-5.8,32.9-11.3L32.9-11.3z"/>
	</g>
	<g id="Satellite_Receiver_1" transform="translate(0 60.948)">
		<g id="Gruppe_180" transform="translate(10.517 45.943)">
			<g id="Gruppe_177" transform="translate(15.757)">
				<g id="Gruppe_176">
					<path id="Pfad_411" class="st0" d="M30.2-17.6v-10.8c0-0.9,0.7-1.6,1.6-1.7H38c0.9,0,1.6,0.6,1.9,1.5l3,10.8
						c0.2,0.7-0.1,1.5-0.9,1.7c-0.1,0-0.3,0.1-0.4,0.1h-9.7C31-16,30.2-16.7,30.2-17.6z M31.9-28.6c-0.2,0-0.3,0.1-0.3,0.3v10.7
						c0,0.2,0.1,0.3,0.3,0.3h9.7h0.1v-0.1l-3-10.8c-0.1-0.2-0.3-0.4-0.7-0.4L31.9-28.6z"/>
				</g>
			</g>
			<g id="Gruppe_179">
				<g id="Gruppe_178">
					<path id="Pfad_412" class="st0" d="M34.9-16.6c-0.2-0.3-0.3-0.8-0.2-1.2l3-10.8c0.2-0.8,1-1.3,1.9-1.5h6.1
						c0.9,0,1.7,0.8,1.7,1.7v10.7c0,0.9-0.7,1.7-1.7,1.7H36C35.7-16,35.2-16.1,34.9-16.6z M39.7-28.6c-0.2,0-0.6,0.2-0.7,0.4
						l-3,10.8v0.1h0.1h9.7c0.2,0,0.3-0.1,0.3-0.3v-10.8c0-0.2-0.1-0.3-0.3-0.3h-6.1V-28.6z"/>
				</g>
			</g>
		</g>
		<rect id="Rechteck_84" x="55.9" y="6.5" class="st0" width="2.5" height="5.5"/>
		<path id="Pfad_413" class="st1" d="M50.4-4.8L52-6.4l-5.2-3.9l-5.2-3.9l3.6,5.4l3.6,5.4L50.4-4.8z"/>
		<path id="Pfad_414" class="st2" d="M40.8-12.5c0.6,0.7,1.6,0.7,2.2,0.1c0.7-0.6,0.7-1.6,0.1-2.2c-0.6-0.7-1.6-0.7-2.2-0.1
			C40.2-14.2,40.2-13.2,40.8-12.5C40.8-12.6,40.8-12.6,40.8-12.5z"/>
		<path id="Pfad_415" class="st3" d="M43.1-14.8c-0.1-0.1-0.2-0.1-0.2-0.2c0.2,0.9-0.4,1.7-1.2,1.9c-0.4,0.1-0.9,0-1.2-0.2
			c0.2,0.9,1,1.5,1.9,1.2s1.5-1,1.2-1.9C43.5-14.3,43.4-14.5,43.1-14.8L43.1-14.8z"/>
		<path id="Pfad_416" class="st4" d="M55,5.9C55,7,55.9,8,57.2,8c1.1,0,2.1-0.9,2.1-2.1s-0.9-2.1-2.1-2.1l0,0C56,3.7,55,4.6,55,5.9z
			"/>
		<g id="Gruppe_181" transform="translate(22.09 37.502)">
			<path id="Pfad_417" class="st4" d="M35.1-27.6c2,0,3.7,1.7,3.7,3.7l0,0h-7.3C31.4-25.9,33-27.6,35.1-27.6z"/>
		</g>
		<rect id="Rechteck_85" x="49.2" y="13.6" class="st0" width="15.9" height="2.7"/>
		<g id="Gruppe_182" transform="translate(0 0)">
			<path id="Pfad_418" class="st5" d="M59,4.3C52.9,10,43.4,9.7,37.6,3.6l22-20.8C65.2-11,65-1.4,59,4.3L59,4.3z"/>
		</g>
		<path id="Pfad_419" class="st3" d="M63-11.3C63.1-3,56.5,3.9,48.2,4.1c-3,0-5.9-0.8-8.4-2.4l-2.1,2C43.4,9.8,52.9,10,59,4.3
			C63.1,0.3,64.7-5.8,63-11.3z"/>
	</g>
</g>
</svg>
