<svg xmlns="http://www.w3.org/2000/svg" xmlns:xlink="http://www.w3.org/1999/xlink" width="129.527" height="155.607" viewBox="0 0 129.527 155.607">
  <defs>
    <linearGradient id="linear-gradient" x1="84.013" y1="21.401" x2="85.035" y2="20.843" gradientUnits="objectBoundingBox">
      <stop offset="0" stop-color="#f1c13b"/>
      <stop offset="1" stop-color="#ff1200"/>
    </linearGradient>
  </defs>
  <g id="Gruppe_60" data-name="Gruppe 60" transform="translate(-71.794 -72.226)">
    <g id="Gruppe_54" data-name="Gruppe 54" transform="translate(71.794 118.328)">
      <path id="Pfad_87" data-name="Pfad 87" d="M92.016,163.223l47.233-64.7c4.612-5.317,14.146-4.671,21.191,1.436l1.78,1.542c7.043,6.109,9.036,15.456,4.425,20.772l-35.349,36.2a.933.933,0,0,1-1.593-.784l.569-3.935L73.356,204.18a.933.933,0,0,1-1.41-1.195l25.406-40.539L93.2,164.6A.933.933,0,0,1,92.016,163.223Z" transform="translate(-71.794 -94.919)" fill="#fff" opacity="0.06"/>
      <path id="Pfad_88" data-name="Pfad 88" d="M94.461,156.595l41.47-55.94c4.02-4.636,11.9-4.457,17.5.4l1.414,1.227c5.6,4.857,6.9,12.628,2.879,17.266l-30.575,31.639a.788.788,0,0,1-1.341-.693l.587-3.143L77.59,191.6a.787.787,0,0,1-1.19-1.01l22.4-34.692-3.317,1.851A.787.787,0,0,1,94.461,156.595Z" transform="translate(-67.183 -92.472)" fill="#fff" opacity="0.06"/>
      <path id="Pfad_89" data-name="Pfad 89" d="M99.03,138.7l26.394-36.043c2.592-2.992,7.9-2.678,11.789.7l.983.853c3.892,3.374,4.955,8.581,2.363,11.572l-19.673,20.189a.6.6,0,0,1-1.024-.512l.3-1.932L88.677,161.542a.6.6,0,0,1-.908-.768l14.02-22.239-1.995,1.05A.6.6,0,0,1,99.03,138.7Z" transform="translate(-55.418 -89.058)" fill="url(#linear-gradient)"/>
      <g id="Gruppe_53" data-name="Gruppe 53" transform="translate(32.323 11.544)" opacity="0.15">
        <g id="Gruppe_52" data-name="Gruppe 52">
          <path id="Pfad_90" data-name="Pfad 90" d="M120.715,104.541c2.592-2.99,7.9-2.676,11.789.7l.983.851a11.619,11.619,0,0,1,1.741,1.926,11.408,11.408,0,0,0-2.871-3.811l-.983-.853c-3.892-3.374-9.2-3.689-11.789-.7L93.472,138.318a.71.71,0,0,0,.9,1.048l1.367-.721Z" transform="translate(-81.902 -100.602)" fill="#230753"/>
          <path id="Pfad_91" data-name="Pfad 91" d="M90.753,139.446,102.885,120.2l-3.472,1.826L87.807,140.437a.621.621,0,0,0,.937.8Z" transform="translate(-87.705 -80.383)" fill="#230753"/>
        </g>
      </g>
    </g>
    <g id="Gruppe_59" data-name="Gruppe 59" transform="translate(128.229 72.226)">
      <path id="Pfad_92" data-name="Pfad 92" d="M122.978,119.6a1.8,1.8,0,0,0,2.519-.354l2.086-2.767a12.248,12.248,0,0,0-2.409-17.154h0a12.248,12.248,0,0,0-17.154,2.409l-2.086,2.767a1.8,1.8,0,0,0,.353,2.519Z" transform="translate(-93.388 -46.817)" fill="#ddd"/>
      <path id="Pfad_93" data-name="Pfad 93" d="M124.937,116.415,106.206,102.3a1.561,1.561,0,0,1-.307-2.184h0a1.561,1.561,0,0,1,2.184-.307l18.731,14.115a1.561,1.561,0,0,1,.307,2.184h0A1.557,1.557,0,0,1,124.937,116.415Z" transform="translate(-93.372 -44.097)" fill="#ff1200"/>
      <rect id="Rechteck_19" data-name="Rechteck 19" width="49.539" height="28.803" transform="translate(18.318 47) rotate(-52.996)" fill="#f4f2ed"/>
      <path id="Pfad_94" data-name="Pfad 94" d="M148.139,78.432a5.38,5.38,0,0,0-7.535-5.68l-17.337,6.911,11.5,8.671L146.27,97Z" transform="translate(-75.134 -72.226)" fill="#ff1200"/>
      <path id="Pfad_95" data-name="Pfad 95" d="M135.74,116.009a1.756,1.756,0,0,1-2.458.345L107.853,97.191a1.755,1.755,0,0,1-.343-2.458h0a1.755,1.755,0,0,1,2.456-.345l25.429,19.163a1.758,1.758,0,0,1,.345,2.458Z" transform="translate(-91.753 -49.73)" fill="#ff1200"/>
      <path id="Pfad_96" data-name="Pfad 96" d="M136.859,98.453a10.137,10.137,0,1,1-1.993-14.2A10.136,10.136,0,0,1,136.859,98.453Z" transform="translate(-79.923 -61.923)" fill="#ff1200"/>
      <rect id="Rechteck_20" data-name="Rechteck 20" width="3.12" height="28.803" transform="matrix(0.602, -0.799, 0.799, 0.602, 21.753, 42.443)" fill="#ff1200"/>
      <g id="Gruppe_56" data-name="Gruppe 56" transform="translate(0 24.799)">
        <path id="Pfad_97" data-name="Pfad 97" d="M134.446,84.433l-17.823,1.946a9.046,9.046,0,0,0-6.168,3.651L99.747,104.236l15.645-4.319a7.618,7.618,0,0,1,6.176,1.6Z" transform="translate(-99.395 -84.433)" fill="#ddd"/>
        <path id="Pfad_98" data-name="Pfad 98" d="M100.83,107.34h0a3.153,3.153,0,0,1-.622-4.415l10.761-14.278a9.856,9.856,0,0,1,6.4-3.309Z" transform="translate(-99.574 -83.498)" fill="#ff1200"/>
        <g id="Gruppe_55" data-name="Gruppe 55" transform="translate(15.653 0.721)">
          <path id="Pfad_99" data-name="Pfad 99" d="M118.335,84.977,107.279,99.645l.343-.093a6.037,6.037,0,0,1,1.4-.118l11.037-14.645Z" transform="translate(-107.279 -84.788)" fill="#ff1200"/>
        </g>
      </g>
      <g id="Gruppe_58" data-name="Gruppe 58" transform="translate(44.444 42.134)">
        <path id="Pfad_100" data-name="Pfad 100" d="M134.687,92.966l3.041,17.67a9.045,9.045,0,0,1-1.81,6.936l-10.706,14.206-.158-16.23a7.627,7.627,0,0,0-3.242-5.5Z" transform="translate(-121.08 -92.966)" fill="#ddd"/>
        <path id="Pfad_101" data-name="Pfad 101" d="M121.451,123.342h0a3.152,3.152,0,0,0,4.415-.62l10.761-14.278a9.859,9.859,0,0,0,1.418-7.064Z" transform="translate(-121.451 -84.286)" fill="#ff1200"/>
        <g id="Gruppe_57" data-name="Gruppe 57" transform="translate(3.685 6.501)">
          <path id="Pfad_102" data-name="Pfad 102" d="M134.306,96.166l-11.041,14.651a6.152,6.152,0,0,1,.288,1.43l0,.286L134.6,97.881Z" transform="translate(-123.265 -96.166)" fill="#ff1200"/>
        </g>
      </g>
      <path id="Pfad_103" data-name="Pfad 103" d="M134.638,95.207a8,8,0,1,1-1.78-10.034A8,8,0,0,1,134.638,95.207Z" transform="translate(-78.842 -60.834)" fill="#040028"/>
      <path id="Pfad_104" data-name="Pfad 104" d="M124.269,84.191c.191.041.382.091.569.15" transform="translate(-74.1 -59.884)" fill="none" stroke="#f4f2ed" stroke-linecap="round" stroke-linejoin="round" stroke-width="0.3"/>
      <path id="Pfad_105" data-name="Pfad 105" d="M121.766,85.369a6.283,6.283,0,0,1,4.222-1.231" transform="translate(-76.682 -59.957)" fill="none" stroke="#f4f2ed" stroke-linecap="round" stroke-linejoin="round" stroke-width="0.3"/>
    </g>
  </g>
</svg>
