<?xml version="1.0" encoding="utf-8"?>
<!-- Generator: Adobe Illustrator 23.0.6, SVG Export Plug-In . SVG Version: 6.00 Build 0)  -->
<svg version="1.1" id="Layer_1" xmlns="http://www.w3.org/2000/svg" xmlns:xlink="http://www.w3.org/1999/xlink" x="0px" y="0px"
	 viewBox="0 0 350.6 134.4" style="enable-background:new 0 0 350.6 134.4;" xml:space="preserve">
<style type="text/css">
	.st0{fill:#FFFFFF;}
	.st1{fill:#53A2D3;}
	.st2{fill:#BCBEC0;}
	.st3{fill:#E6E7E8;}
	.st4{fill:#E43D25;}
	.st5{fill:#F0512F;}
	.st6{fill:#9EDBF0;}
	.st7{opacity:0.1;fill:#010101;enable-background:new    ;}
</style>
<g id="Satellite_1_">
	
		<rect x="113.8" y="61.5" transform="matrix(0.5788 -0.8155 0.8155 0.5788 -14.7428 140.2003)" class="st0" width="29.1" height="45.8"/>
	
		<rect x="107.7" y="68.3" transform="matrix(0.5788 -0.8155 0.8155 0.5788 -13.3928 130.3688)" class="st1" width="23.7" height="19.7"/>
	
		<rect x="125.4" y="80.9" transform="matrix(0.5788 -0.8155 0.8155 0.5788 -16.1865 150.1501)" class="st1" width="23.7" height="19.7"/>
	
		<rect x="30.2" y="2.2" transform="matrix(0.5788 -0.8155 0.8155 0.5788 -1.6278 47.0502)" class="st0" width="29.1" height="45.8"/>
	<rect x="24" y="9" transform="matrix(0.5788 -0.8155 0.8155 0.5788 -0.2789 37.2183)" class="st1" width="23.7" height="19.7"/>
	
		<rect x="41.8" y="21.6" transform="matrix(0.5788 -0.8155 0.8155 0.5788 -3.0686 57.0004)" class="st1" width="23.7" height="19.7"/>
	
		<rect x="12.6" y="27.1" transform="matrix(0.5788 -0.8155 0.8155 0.5788 -29.3737 43.1729)" class="st0" width="29.1" height="45.8"/>
	
		<rect x="6.3" y="33.9" transform="matrix(0.5788 -0.8155 0.8155 0.5788 -28.0542 33.2604)" class="st1" width="23.7" height="19.7"/>
	
		<rect x="24.2" y="46.5" transform="matrix(0.5788 -0.8155 0.8155 0.5788 -30.7253 53.1351)" class="st1" width="23.7" height="19.7"/>
	
		<rect x="96.1" y="86.4" transform="matrix(0.5788 -0.8155 0.8155 0.5788 -42.517 136.2433)" class="st0" width="29.1" height="45.8"/>
	
		<rect x="89.9" y="93.2" transform="matrix(0.5788 -0.8155 0.8155 0.5788 -41.1703 126.4107)" class="st1" width="23.7" height="19.7"/>
	
		<rect x="107.8" y="105.9" transform="matrix(0.5788 -0.8155 0.8155 0.5788 -43.9634 146.3235)" class="st1" width="23.7" height="19.7"/>
	<path class="st2" d="M49,101.6c1.2-1.6,3.4-2,5.1-0.9c1.6,1.2,2,3.4,0.9,5.1c-1.2,1.6-3.4,2-5.1,0.9
		C48.2,105.5,47.8,103.3,49,101.6z"/>
	<path class="st2" d="M54.5,90.4c1.8-2.5,5.3-3.1,7.8-1.3c2.5,1.8,3.1,5.3,1.3,7.8c-1.8,2.5-5.3,3.1-7.8,1.3
		C53.4,96.4,52.8,92.9,54.5,90.4z"/>
	
		<rect x="49.3" y="94.3" transform="matrix(0.5788 -0.8155 0.8155 0.5788 -54.5293 87.1584)" class="st2" width="15.6" height="4.1"/>
	<rect x="95" y="29.9" transform="matrix(0.5789 -0.8154 0.8154 0.5789 17.2105 97.2847)" class="st2" width="15.6" height="4.1"/>
	
		<rect x="105.4" y="19.3" transform="matrix(0.5789 -0.8154 0.8154 0.5789 24.4963 98.2873)" class="st2" width="4.1" height="12.3"/>
	
		<rect x="47.1" y="52.3" transform="matrix(0.5788 -0.8155 0.8155 0.5788 -25.604 91.1947)" class="st0" width="56.8" height="36.1"/>
	<polygon class="st2" points="96.2,90.1 87.8,84.2 89.2,82.1 97.6,88.1 	"/>
	
		<rect x="81.7" y="94.7" transform="matrix(0.5788 -0.8155 0.8155 0.5788 -46.5241 109.6552)" class="st2" width="2.4" height="10.3"/>
	<polygon class="st2" points="41.6,69.3 50,75.2 48.6,77 40.2,71.1 	"/>
	<polygon class="st2" points="51.4,55.3 59.8,61.2 58.4,63.3 50,57.3 	"/>
	
		<rect x="109.2" y="56.1" transform="matrix(0.5788 -0.8155 0.8155 0.5788 -3.4255 115.828)" class="st2" width="2.4" height="10.3"/>
	
		<rect x="99.4" y="69.9" transform="matrix(0.5788 -0.8155 0.8155 0.5788 -18.8455 113.632)" class="st2" width="2.4" height="10.3"/>
	<polygon class="st2" points="59.3,44.4 67.6,50.3 66.2,52.1 57.9,46.2 	"/>
	<polygon class="st2" points="69.1,30.5 77.5,36.5 76.1,38.3 67.7,32.3 	"/>
	<path class="st0" d="M106.6,57.7c-5.8,8.1-17,10-25.1,4.3c-8.1-5.8-10-17-4.3-25.1c5.8-8.1,17-10,25.1-4.3
		C110.5,38.3,112.4,49.6,106.6,57.7z"/>
	<g>
		
			<rect x="27.9" y="108.9" transform="matrix(0.5787 -0.8156 0.8156 0.5787 -86.8558 74.1874)" class="st2" width="0.9" height="24.5"/>
	</g>
	<g>
		
			<rect x="13.3" y="104.2" transform="matrix(0.5789 -0.8154 0.8154 0.5789 -74.5662 64.8886)" class="st2" width="24.5" height="0.9"/>
	</g>
	<g>
		<rect x="18.2" y="111.6" transform="matrix(0.986 -0.167 0.167 0.986 -18.2847 6.6595)" class="st2" width="24.5" height="0.9"/>
	</g>
	<g>
		<path class="st0" d="M53.3,108.1C51.4,97.3,41.2,90,30.4,91.9L37,131C47.8,129.2,55.1,118.9,53.3,108.1z"/>
	</g>
	<path class="st0" d="M17.9,111.4c1.4-0.2,2.8,0.7,3.1,2.2c0.2,1.4-0.7,2.8-2.2,3.1c-1.4,0.2-2.8-0.7-3.1-2.2
		C15.5,113,16.5,111.7,17.9,111.4z"/>
	<path class="st3" d="M81.1,52.9c1.3-1.8,3.8-2.3,5.7-1l2.5,1.8c1.8,1.3,2.3,3.8,1,5.7L69.7,88.2c-1.3,1.8-3.8,2.3-5.7,1l-2.5-1.8
		c-1.8-1.3-2.3-3.8-1-5.7L81.1,52.9z"/>
</g>
<rect x="287" y="78.7" transform="matrix(0.9495 -0.3136 0.3136 0.9495 -13.4558 94.8656)" class="st0" width="2.3" height="21.1"/>
<path class="st0" d="M293.8,98.5c0.4,1.3-0.3,2.7-1.6,3.2c-1.3,0.4-2.7-0.3-3.2-1.6s0.3-2.7,1.6-3.2C292,96.5,293.4,97.2,293.8,98.5
	z"/>
<rect x="329.3" y="64.7" transform="matrix(0.9495 -0.3136 0.3136 0.9495 -6.9297 107.42)" class="st0" width="2.3" height="21.1"/>
<path class="st0" d="M336.1,84.5c0.4,1.3-0.3,2.7-1.6,3.2c-1.3,0.4-2.7-0.3-3.2-1.6c-0.4-1.3,0.3-2.7,1.6-3.2
	C334.2,82.5,335.7,83.2,336.1,84.5z"/>
<path class="st4" d="M306.4,72.1L257.3,80c0,0,6.3,14.6,51.6-0.3s41.6-30.5,41.6-30.5L306.4,72.1z"/>
<path class="st5" d="M350.3,48.4c2,6.1-17.2,18-43,26.5c-25.7,8.5-48.3,10.4-50.3,4.3s17.2-18,43-26.5S348.3,42.3,350.3,48.4z"/>
<path class="st5" d="M350.3,48.4c2,6.1-17.2,18-43,26.5c-25.7,8.5-48.3,10.4-50.3,4.3s17.2-18,43-26.5S348.3,42.3,350.3,48.4z"/>
<path class="st6" d="M317.5,36L317.5,36c-6.3-6.4-15.9-9.1-25.1-6.1c-9.1,3-15.3,10.9-16.5,19.8l0,0l0,0c-0.5,3.6-0.2,7.3,1,11
	c1.1,3.4,2.9,6.4,5.2,8.8c6.6-1.3,13.9-3.3,21.5-5.8c7.6-2.5,14.7-5.3,20.7-8.2c0.4-3.3,0-6.8-1.1-10.2
	C322.1,41.7,320.1,38.5,317.5,36z"/>
<path class="st6" d="M293.6,66.8L293.6,66.8L293.6,66.8z"/>
<path class="st7" d="M317.5,36L317.5,36c-0.7-0.7-1.5-1.4-2.3-2.1c-2-1.6-4.2-2.8-6.6-3.7c-4.1,2.9-7.2,6.1-9.4,9.5
	c1.8,0.6,3.4,2,4,3.9c1.1,3.2-0.7,6.6-3.9,7.7c-1.8,0.6-3.6,0.3-5.1-0.6c-2.3,8.8-0.7,16.1-0.7,16.1l0,0c3.3-0.9,6.7-1.9,10.1-3
	c7.6-2.5,14.7-5.3,20.7-8.2c0.4-3.3,0-6.8-1.1-10.2C322.1,41.7,320.1,38.5,317.5,36z"/>
<path class="st0" d="M272,72c0.3,1-1.2,2.4-3.4,3.1c-2.2,0.7-4.2,0.5-4.6-0.4c-0.3-1,1.2-2.4,3.4-3.1S271.7,71,272,72z"/>
<path class="st0" d="M339.8,49.6c0.3,1-1.2,2.4-3.4,3.1c-2.2,0.7-4.2,0.5-4.6-0.4c-0.3-1,1.2-2.4,3.4-3.1
	C337.4,48.4,339.4,48.6,339.8,49.6z"/>
<ellipse transform="matrix(0.9495 -0.3136 0.3136 0.9495 -9.1064 92.6072)" class="st0" cx="283.3" cy="74.6" rx="4.2" ry="1.9"/>
<ellipse transform="matrix(0.9495 -0.3136 0.3136 0.9495 -2.5802 105.1616)" class="st0" cx="325.6" cy="60.6" rx="4.2" ry="1.9"/>
<path class="st0" d="M309.5,67.9c0.3,1-1.2,2.4-3.4,3.1c-2.2,0.7-4.2,0.5-4.6-0.4c-0.3-1,1.2-2.4,3.4-3.1S309.1,66.9,309.5,67.9z"/>
</svg>
