<?xml version="1.0" encoding="utf-8"?>
<!-- Generator: Adobe Illustrator 23.0.6, SVG Export Plug-In . SVG Version: 6.00 Build 0)  -->
<svg version="1.1" id="Layer_1" xmlns="http://www.w3.org/2000/svg" xmlns:xlink="http://www.w3.org/1999/xlink" x="0px" y="0px"
	 viewBox="0 0 204.8 162.7" style="enable-background:new 0 0 204.8 162.7;" xml:space="preserve">
<style type="text/css">
	.st0{fill:url(#Rechteck_48_1_);}
	.st1{fill:#FABE9B;}
	.st2{fill:#D27350;}
	.st3{fill:#FFD23C;}
	.st4{fill:#FFFFFF;}
	.st5{clip-path:url(#SVGID_2_);}
</style>
<g id="Gruppe_207" transform="translate(-502.876 -1120.082)">
	
		<linearGradient id="Rechteck_48_1_" gradientUnits="userSpaceOnUse" x1="812.5608" y1="2.8818" x2="814.2178" y2="3.6668" gradientTransform="matrix(204.828 0 0 162.385 -165960.6719 684.3708)">
		<stop  offset="0" style="stop-color:#000C54"/>
		<stop  offset="0.127" style="stop-color:#0D105A"/>
		<stop  offset="0.364" style="stop-color:#301D6A"/>
		<stop  offset="0.682" style="stop-color:#693285"/>
		<stop  offset="1" style="stop-color:#A949A3"/>
	</linearGradient>
	<path id="Rechteck_48" class="st0" d="M502.9,1120.1h204.8v162.7l0,0H502.9l0,0V1120.1z"/>
	<g id="Gruppe_112" transform="translate(535.965 1120.082)">
		<circle id="Ellipse_6" class="st1" cx="69.1" cy="66.3" r="49.3"/>
		<path id="Pfad_250" class="st2" d="M113.4,44.8c-1.3-2.7-2.9-5.3-4.7-7.8c6.9,24-4.9,46.4-26.4,57.8C59,107.1,32.7,101,20.8,76.1
			c5.4,26.7,31.4,43.9,58.1,38.5s43.9-31.4,38.5-58.1C116.6,52.5,115.3,48.5,113.4,44.8L113.4,44.8z"/>
		<path id="Pfad_251" class="st3" d="M136.7,30.1c0.9,1.8,1.2,3.9,0.9,5.9c-0.1,0.4-0.1,0.8-0.2,1.1c-0.1,0.4-0.2,0.7-0.3,1
			c-0.2,0.6-0.4,1.2-0.7,1.7c-0.9,1.8-2,3.5-3.2,5.1c-2.2,2.7-4.5,5.1-7.1,7.4c-4.8,4.3-9.8,8.2-15.1,11.9
			C100.7,71.3,89.8,77.6,78.5,83c-5.6,2.7-11.3,5.2-17.1,7.5S49.7,95.1,43.7,97c-6.1,1.9-12.3,3.5-18.6,4.6c-3.4,0.6-6.8,1-10.2,1
			c-2,0-4.1-0.2-6-0.6c-0.6-0.1-1.2-0.3-1.8-0.5c-0.3-0.1-0.7-0.3-1-0.4c-0.4-0.2-0.7-0.3-1-0.5c-1.8-1-3.2-2.5-4.1-4.3
			c-0.8-1.8-1.1-3.9-0.8-5.9c0.1-0.4,0.1-0.7,0.3-1.1c0.1-0.3,0.2-0.7,0.3-1c0.2-0.6,0.5-1.2,0.7-1.7c0.9-1.8,2.1-3.4,3.4-4.9
			c2.2-2.5,4.7-4.9,7.3-7c4.9-4,10.1-7.6,15.5-11c5.3-3.4,10.7-6.4,16.1-9.4s11-5.8,16.5-8.4c11.2-5.3,22.5-10.3,34.2-14.6
			c5.9-2.2,12-4.1,18.2-5.5c3.3-0.8,6.7-1.2,10-1.4c2-0.1,4,0,6,0.4c0.6,0.1,1.2,0.3,1.8,0.5c0.3,0.1,0.7,0.3,1,0.4
			c0.4,0.1,0.7,0.3,1,0.5C134.4,26.9,135.8,28.4,136.7,30.1z M125.7,35.5c0.2,0.4,0.5,0.8,0.9,1c0.1,0,0,0,0,0s0,0-0.1,0
			s-0.2-0.1-0.4-0.1c-1-0.2-2.1-0.3-3.1-0.3c-2.7,0-5.4,0.3-8.1,0.8c-5.8,1-11.5,2.4-17.1,4.1c-11.5,3.6-22.6,8-33.3,13.4
			c-5.4,2.7-10.7,5.5-15.9,8.5S38.4,69,33.5,72.4c-4.8,3.3-9.5,6.9-13.8,10.8c-2,1.8-3.9,3.8-5.6,5.9c-0.7,0.8-1.2,1.7-1.7,2.7
			c-0.1,0.2-0.1,0.3-0.1,0.4s0,0,0,0.1c0,0,0,0.1,0,0c0.1-0.5,0-1-0.2-1.4c-0.2-0.5-0.5-0.9-0.9-1.1c-0.1,0,0,0,0,0s0,0,0.1,0
			s0.2,0.1,0.4,0.1c1,0.1,2,0.2,3.1,0.1c2.7-0.2,5.3-0.6,7.9-1.2c5.6-1.3,11.2-3,16.7-5c5.6-2,11.1-4.2,16.5-6.6s10.9-4.9,16.2-7.5
			c10.7-5.3,21.2-10.9,31.2-17.1c5-3,9.7-6.3,14.3-9.9c2.1-1.7,4.1-3.5,5.9-5.5c0.7-0.8,1.3-1.6,1.8-2.5c0.1-0.2,0.1-0.2,0.2-0.4
			c0-0.1,0,0,0-0.1l0,0C125.3,34.6,125.4,35.1,125.7,35.5L125.7,35.5z"/>
		<path id="Pfad_252" class="st1" d="M109.6,38.3C94.1,15.9,63.5,10.4,41.1,25.9C22.7,38.6,15.2,62.2,22.9,83.3
			C25.1,89.6,43.6,82,73,67.7C92.2,58.4,113.1,49.4,109.6,38.3z"/>
	</g>
	<path id="Pfad_259" class="st4" d="M675.4,1191.6l0.8,2c0.2,0.4,0.5,0.7,0.9,0.9l2,0.8c0.8,0.3,1.2,1.2,0.9,2
		c-0.2,0.4-0.5,0.7-0.9,0.9l-2,0.8c-0.4,0.2-0.7,0.5-0.9,0.9l-0.8,2c-0.3,0.8-1.2,1.2-2,0.9c-0.4-0.2-0.7-0.5-0.9-0.9l-0.8-2
		c-0.2-0.4-0.5-0.7-0.9-0.9l-2-0.8c-0.8-0.3-1.2-1.2-0.9-2c0.2-0.4,0.5-0.7,0.9-0.9l2-0.8c0.4-0.2,0.7-0.5,0.9-0.9l0.8-2
		c0.3-0.8,1.2-1.2,2-0.9C674.9,1190.9,675.3,1191.2,675.4,1191.6z"/>
	<path id="Pfad_254" class="st4" d="M536.8,1148.4l0.5,1.2c0.1,0.2,0.3,0.4,0.5,0.5l1.2,0.5c0.5,0.2,0.7,0.7,0.5,1.2
		c-0.1,0.2-0.3,0.4-0.5,0.5l-1.2,0.5c-0.2,0.1-0.4,0.3-0.5,0.5l-0.5,1.2c-0.2,0.5-0.7,0.7-1.2,0.5c-0.2-0.1-0.4-0.3-0.5-0.5
		l-0.5-1.2c-0.1-0.2-0.3-0.4-0.5-0.5l-1.2-0.5c-0.5-0.2-0.7-0.7-0.5-1.2c0.1-0.2,0.3-0.4,0.5-0.5l1.2-0.5c0.2-0.1,0.4-0.3,0.5-0.5
		l0.5-1.2c0.2-0.5,0.7-0.7,1.2-0.5C536.5,1148,536.7,1148.2,536.8,1148.4z"/>
	<path id="Pfad_255" class="st4" d="M534.4,1234.8l1.3,3.2c0.2,0.6,0.7,1.1,1.4,1.4l3.1,1.2c0.9,0.4,1.6,1.2,1.6,2.2
		c0,1.1-0.6,2-1.5,2.4l-3.2,1.3c-0.6,0.2-1.1,0.7-1.4,1.4l-1.2,3.1c-0.4,0.9-1.2,1.6-2.2,1.6c-1.1,0-2-0.6-2.4-1.5l-1.3-3.2
		c-0.2-0.6-0.7-1.1-1.4-1.4l-3.1-1.2c-0.9-0.4-1.6-1.2-1.6-2.2c0-1.1,0.6-2,1.5-2.4l3.2-1.3c0.6-0.2,1.1-0.7,1.4-1.4l1.2-3.1
		c0.4-0.9,1.2-1.6,2.2-1.6C533.1,1233.3,534,1233.9,534.4,1234.8z"/>
	<g id="Gruppe_115" transform="translate(555.83 1137.156)">
		<g>
			<g>
				<defs>
					<path id="SVGID_1_" d="M94,28.6L94,28.6C82.3,3.5,52.5-7.1,27.7,5C3,17-7.2,47.1,5.4,71.7l0,0L94,28.6z"/>
				</defs>
				<clipPath id="SVGID_2_">
					<use xlink:href="#SVGID_1_"  style="overflow:visible;"/>
				</clipPath>
				<g id="Gruppe_114" class="st5">
					<g id="Gruppe_113" transform="translate(-5.411 0.472)">
						<path id="Pfad_256" class="st2" d="M73.3,0c-0.8,0.9-1.6,1.7-2.5,2.6c-3.2,2.9-6.6,5.5-10.2,7.8c-7.3,4.7-14.8,9.1-22.6,13
							c-3.9,2-7.8,3.9-11.8,5.6s-8,3.4-12.1,4.7c-3.9,1.4-7.8,2.5-11.9,3.3c0,1.6-0.1,3.3-0.2,4.9c0.1,0,0.2,0,0.3,0
							c4.5-0.5,9-1.5,13.4-2.7c8.7-2.5,17.1-5.8,25.2-9.8c8.1-3.9,15.8-8.7,23-14.2c3.6-2.8,7-5.8,10.2-9.2c1.4-1.5,2.7-3,3.8-4.7
							C76.5,0.9,74.9,0.5,73.3,0z"/>
						<path id="Pfad_257" class="st2" d="M93.6,4.3c-0.1,0.1-0.1,0.2-0.2,0.2c-10.2,21-57.2,53.9-92.5,52c-0.3,2.6-0.6,5.1-0.9,7.7
							c42.4-2,90.2-32.6,99.5-58.4C97.6,5.2,95.6,4.7,93.6,4.3z"/>
					</g>
				</g>
			</g>
		</g>
	</g>
</g>
</svg>
