<?xml version="1.0" encoding="utf-8"?>
<!-- Generator: Adobe Illustrator 23.0.6, SVG Export Plug-In . SVG Version: 6.00 Build 0)  -->
<svg version="1.1" id="Layer_1" xmlns="http://www.w3.org/2000/svg" xmlns:xlink="http://www.w3.org/1999/xlink" x="0px" y="0px"
	 viewBox="0 0 157.6 115.5" style="enable-background:new 0 0 157.6 115.5;" xml:space="preserve">
<style type="text/css">
	.st0{fill:#FABE9B;}
	.st1{fill:#D27350;}
	.st2{fill:#FFD23C;}
	.st3{fill:#FFFFFF;}
	.st4{clip-path:url(#SVGID_2_);}
</style>
<circle id="Ellipse_6" class="st0" cx="82.6" cy="49.3" r="49.3"/>
<path id="Pfad_250" class="st1" d="M126.9,27.8c-1.3-2.7-2.9-5.3-4.7-7.8c6.9,24-4.9,46.4-26.4,57.8C72.5,90.1,46.2,84,34.3,59.1
	c5.4,26.7,31.4,43.9,58.1,38.5c26.7-5.4,43.9-31.4,38.5-58.1C130.1,35.5,128.8,31.5,126.9,27.8L126.9,27.8z"/>
<path id="Pfad_251" class="st2" d="M150.2,13.1c0.9,1.8,1.2,3.9,0.9,5.9c-0.1,0.4-0.1,0.8-0.2,1.1c-0.1,0.4-0.2,0.7-0.3,1
	c-0.2,0.6-0.4,1.2-0.7,1.7c-0.9,1.8-2,3.5-3.2,5.1c-2.2,2.7-4.5,5.1-7.1,7.4c-4.8,4.3-9.8,8.2-15.1,11.9
	C114.2,54.3,103.3,60.6,92,66c-5.6,2.7-11.3,5.2-17.1,7.5S63.2,78.1,57.2,80c-6.1,1.9-12.3,3.5-18.6,4.6c-3.4,0.6-6.8,1-10.2,1
	c-2,0-4.1-0.2-6-0.6c-0.6-0.1-1.2-0.3-1.8-0.5c-0.3-0.1-0.7-0.3-1-0.4c-0.4-0.2-0.7-0.3-1-0.5c-1.8-1-3.2-2.5-4.1-4.3
	c-0.8-1.8-1.1-3.9-0.8-5.9c0.1-0.4,0.1-0.7,0.3-1.1c0.1-0.3,0.2-0.7,0.3-1c0.2-0.6,0.5-1.2,0.7-1.7c0.9-1.8,2.1-3.4,3.4-4.9
	c2.2-2.5,4.7-4.9,7.3-7c4.9-4,10.1-7.6,15.5-11c5.3-3.4,10.7-6.4,16.1-9.4s11-5.8,16.5-8.4C85,23.6,96.3,18.6,108,14.3
	c5.9-2.2,12-4.1,18.2-5.5c3.3-0.8,6.7-1.2,10-1.4c2-0.1,4,0,6,0.4c0.6,0.1,1.2,0.3,1.8,0.5c0.3,0.1,0.7,0.3,1,0.4
	c0.4,0.1,0.7,0.3,1,0.5C147.9,9.9,149.3,11.4,150.2,13.1z M139.2,18.5c0.2,0.4,0.5,0.8,0.9,1c0.1,0,0,0,0,0s0,0-0.1,0
	s-0.2-0.1-0.4-0.1c-1-0.2-2.1-0.3-3.1-0.3c-2.7,0-5.4,0.3-8.1,0.8c-5.8,1-11.5,2.4-17.1,4.1C99.8,27.6,88.7,32,78,37.4
	c-5.4,2.7-10.7,5.5-15.9,8.5S51.9,52,47,55.4c-4.8,3.3-9.5,6.9-13.8,10.8c-2,1.8-3.9,3.8-5.6,5.9c-0.7,0.8-1.2,1.7-1.7,2.7
	c-0.1,0.2-0.1,0.3-0.1,0.4c0,0.1,0,0,0,0.1c0,0,0,0.1,0,0c0.1-0.5,0-1-0.2-1.4c-0.2-0.5-0.5-0.9-0.9-1.1c-0.1,0,0,0,0,0s0,0,0.1,0
	s0.2,0.1,0.4,0.1c1,0.1,2,0.2,3.1,0.1c2.7-0.2,5.3-0.6,7.9-1.2c5.6-1.3,11.2-3,16.7-5c5.6-2,11.1-4.2,16.5-6.6s10.9-4.9,16.2-7.5
	c10.7-5.3,21.2-10.9,31.2-17.1c5-3,9.7-6.3,14.3-9.9c2.1-1.7,4.1-3.5,5.9-5.5c0.7-0.8,1.3-1.6,1.8-2.5c0.1-0.2,0.1-0.2,0.2-0.4
	c0-0.1,0,0,0-0.1l0,0C138.8,17.6,138.9,18.1,139.2,18.5L139.2,18.5z"/>
<path id="Pfad_252" class="st0" d="M123.1,21.3C107.6-1.1,77-6.6,54.6,8.9C36.2,21.6,28.7,45.2,36.4,66.3
	c2.2,6.3,20.7-1.3,50.1-15.6C105.7,41.4,126.6,32.4,123.1,21.3z"/>
<path id="Pfad_259" class="st3" d="M152.9,54.5l0.8,2c0.2,0.4,0.5,0.7,0.9,0.9l2,0.8c0.8,0.3,1.2,1.2,0.9,2
	c-0.2,0.4-0.5,0.7-0.9,0.9l-2,0.8c-0.4,0.2-0.7,0.5-0.9,0.9l-0.8,2c-0.3,0.8-1.2,1.2-2,0.9c-0.4-0.2-0.7-0.5-0.9-0.9l-0.8-2
	c-0.2-0.4-0.5-0.7-0.9-0.9l-2-0.8c-0.8-0.3-1.2-1.2-0.9-2c0.2-0.4,0.5-0.7,0.9-0.9l2-0.8c0.4-0.2,0.7-0.5,0.9-0.9l0.8-2
	c0.3-0.8,1.2-1.2,2-0.9C152.4,53.8,152.8,54.1,152.9,54.5z"/>
<path id="Pfad_254" class="st3" d="M14.3,11.3l0.5,1.2c0.1,0.2,0.3,0.4,0.5,0.5l1.2,0.5c0.5,0.2,0.7,0.7,0.5,1.2
	c-0.1,0.2-0.3,0.4-0.5,0.5l-1.2,0.5c-0.2,0.1-0.4,0.3-0.5,0.5l-0.5,1.2c-0.2,0.5-0.7,0.7-1.2,0.5c-0.2-0.1-0.4-0.3-0.5-0.5l-0.5-1.2
	c-0.1-0.2-0.3-0.4-0.5-0.5l-1.2-0.5C9.9,15,9.7,14.5,9.9,14c0.1-0.2,0.3-0.4,0.5-0.5l1.2-0.5c0.2-0.1,0.4-0.3,0.5-0.5l0.5-1.2
	c0.2-0.5,0.7-0.7,1.2-0.5C14,10.9,14.2,11.1,14.3,11.3z"/>
<path id="Pfad_255" class="st3" d="M11.9,97.7l1.3,3.2c0.2,0.6,0.7,1.1,1.4,1.4l3.1,1.2c0.9,0.4,1.6,1.2,1.6,2.2
	c0,1.1-0.6,2-1.5,2.4l-3.2,1.3c-0.6,0.2-1.1,0.7-1.4,1.4l-1.2,3.1c-0.4,0.9-1.2,1.6-2.2,1.6c-1.1,0-2-0.6-2.4-1.5l-1.3-3.2
	c-0.2-0.6-0.7-1.1-1.4-1.4l-3.1-1.2C0.7,107.8,0,107,0,106c0-1.1,0.6-2,1.5-2.4l3.2-1.3c0.6-0.2,1.1-0.7,1.4-1.4l1.2-3.1
	c0.4-0.9,1.2-1.6,2.2-1.6C10.6,96.2,11.5,96.8,11.9,97.7z"/>
<g>
	<g>
		<g>
			<defs>
				<path id="SVGID_1_" d="M127.3,28.7L127.3,28.7C115.6,3.6,85.8-7,61,5.1c-24.7,12-34.9,42.1-22.3,66.7l0,0L127.3,28.7z"/>
			</defs>
			<clipPath id="SVGID_2_">
				<use xlink:href="#SVGID_1_"  style="overflow:visible;"/>
			</clipPath>
			<g id="Gruppe_114" class="st4">
				<g id="Gruppe_113" transform="translate(-5.411 0.472)">
					<path id="Pfad_256" class="st1" d="M106.6,0.1c-0.8,0.9-1.6,1.7-2.5,2.6c-3.2,2.9-6.6,5.5-10.2,7.8c-7.3,4.7-14.8,9.1-22.6,13
						c-3.9,2-7.8,3.9-11.8,5.6s-8,3.4-12.1,4.7c-3.9,1.4-7.8,2.5-11.9,3.3c0,1.6-0.1,3.3-0.2,4.9c0.1,0,0.2,0,0.3,0
						c4.5-0.5,9-1.5,13.4-2.7c8.7-2.5,17.1-5.8,25.2-9.8c8.1-3.9,15.8-8.7,23-14.2c3.6-2.8,7-5.8,10.2-9.2c1.4-1.5,2.7-3,3.8-4.7
						C109.8,1,108.2,0.6,106.6,0.1z"/>
					<path id="Pfad_257" class="st1" d="M126.9,4.4c-0.1,0.1-0.1,0.2-0.2,0.2c-10.2,21-57.2,53.9-92.5,52c-0.3,2.6-0.6,5.1-0.9,7.7
						c42.4-2,90.2-32.6,99.5-58.4C130.9,5.3,128.9,4.8,126.9,4.4z"/>
				</g>
			</g>
		</g>
	</g>
</g>
</svg>
