<?xml version="1.0" encoding="utf-8"?>
<!-- Generator: Adobe Illustrator 23.0.6, SVG Export Plug-In . SVG Version: 6.00 Build 0)  -->
<svg version="1.1" id="Telescope" xmlns="http://www.w3.org/2000/svg" xmlns:xlink="http://www.w3.org/1999/xlink" x="0px" y="0px"
	 viewBox="0 0 182.8 91.1" style="enable-background:new 0 0 182.8 91.1;" xml:space="preserve">
<style type="text/css">
	.st0{fill:#D2D3D4;}
	.st1{fill:#F15C4D;}
	.st2{fill:#9EDBF0;}
	.st3{fill:#7CD0E0;}
	.st4{fill:#F1607F;}
	.st5{fill:#002C40;}
	.st6{fill:#D8F0FA;}
	.st7{fill:#FFFFFF;}
</style>
<g>
	<g id="Gruppe_192" transform="translate(32.396 49.468)">
		<rect id="Rechteck_86" x="51.7" y="-13.5" class="st0" width="4" height="13.7"/>
		<rect id="Rechteck_87" x="51.7" y="0" class="st0" width="4" height="41.6"/>
		<path id="Pfad_427" class="st0" d="M35.9,41.5L47.3,0.3l3.9,1L40.1,41.5H35.9z"/>
		<path id="Pfad_428" class="st0" d="M71.8,41.5L60.4,0.3l-3.9,1l11.1,40.2H71.8z"/>
		<path id="Pfad_429" class="st1" d="M57.9,0.2c0,2.3-1.8,4.1-4.1,4.1s-4.1-1.8-4.1-4.1s1.8-4.1,4.1-4.1l0,0
			C56.1-3.8,57.9-1.9,57.9,0.2L57.9,0.2z"/>
		<rect id="Rechteck_88" x="46.8" y="-1.7" class="st1" width="14" height="4"/>
	</g>
	<g id="Gruppe_195" transform="translate(0 0)">
		
			<rect id="Rechteck_89" x="58.1" y="3.5" transform="matrix(0.341 -0.9401 0.9401 0.341 26.373 80.6087)" class="st2" width="25.2" height="36"/>
		
			<rect id="Rechteck_90" x="88.1" y="19.4" transform="matrix(0.341 -0.9401 0.9401 0.341 35.4769 114.5025)" class="st3" width="22.7" height="25.1"/>
		
			<rect id="Rechteck_91" x="118.5" y="27.9" transform="matrix(0.3411 -0.94 0.94 0.3411 42.9723 142.1981)" class="st4" width="8.9" height="25.1"/>
		<g id="Gruppe_193" transform="translate(0.082)">
			<path id="Pfad_430" class="st5" d="M54.8,0l1.5,0.6c1.4,0.5,2.1,1.9,1.5,3.3l-8.3,23c-0.5,1.4-1.9,2.1-3.3,1.5l-1.5-0.6L54.8,0z"
				/>
		</g>
		<g id="Gruppe_194" transform="translate(120.626 52.963)">
			<path id="Pfad_431" class="st5" d="M16.6-14.3c0.7,0.2,1,0.8,0.8,1.5L13.7-2.5c-0.3,0.6-1,0.8-1.6,0.6L11.8-2l4.4-12.4L16.6-14.3
				z"/>
		</g>
		
			<rect id="Rechteck_92" x="72.6" y="-4.9" transform="matrix(0.3411 -0.94 0.94 0.3411 37.3405 77.5702)" class="st6" width="2.9" height="34.1"/>
		
			<rect id="Rechteck_93" x="101" y="12.6" transform="matrix(0.3413 -0.9399 0.9399 0.3413 45.0156 112.0403)" class="st6" width="2.9" height="22.6"/>
		<path id="Pfad_432" class="st7" d="M49.8,13.9L49.8,13.9L49.8,13.9l4.9-13.7c0,0-2.1,0.5-6.6,13l0,0l0,0l0,0l0,0
			c-4.6,12.7-3.3,14.3-3.3,14.3L49.8,13.9L49.8,13.9L49.8,13.9z"/>
	</g>
</g>
</svg>
