<?xml version="1.0" encoding="utf-8"?>
<!-- Generator: Adobe Illustrator 23.1.1, SVG Export Plug-In . SVG Version: 6.00 Build 0)  -->
<svg version="1.1" id="Layer_1" xmlns="http://www.w3.org/2000/svg" xmlns:xlink="http://www.w3.org/1999/xlink" x="0px" y="0px"
	 viewBox="0 0 129.3 111.8" style="enable-background:new 0 0 129.3 111.8;" xml:space="preserve">
<style type="text/css">
	.st0{fill:#FFFFFF;}
	.st1{fill:#53A2D3;}
	.st2{fill:#BCBEC0;}
	.st3{fill:#E6E7E8;}
</style>
<g id="BACKGROUND">
</g>
<rect x="94.7" y="51.3" transform="matrix(0.5788 -0.8155 0.8155 0.5788 -12.3568 116.6932)" class="st0" width="24.2" height="38.1"/>
<rect x="89.6" y="56.8" transform="matrix(0.5788 -0.8155 0.8155 0.5788 -11.1654 108.4632)" class="st1" width="19.7" height="16.4"/>
<rect x="104.2" y="67.4" transform="matrix(0.5788 -0.8155 0.8155 0.5788 -13.5688 124.8586)" class="st1" width="19.7" height="16.4"/>
<rect x="25" y="1.8" transform="matrix(0.5788 -0.8155 0.8155 0.5788 -1.4072 39.063)" class="st0" width="24.2" height="38.1"/>
<rect x="19.9" y="7.6" transform="matrix(0.5788 -0.8155 0.8155 0.5788 -0.3428 30.9333)" class="st1" width="19.7" height="16.4"/>
<rect x="34.8" y="18" transform="matrix(0.5788 -0.8155 0.8155 0.5788 -2.5947 47.4391)" class="st1" width="19.7" height="16.4"/>
<rect x="10.4" y="22.5" transform="matrix(0.5788 -0.8155 0.8155 0.5788 -24.3904 35.8818)" class="st0" width="24.2" height="38.1"/>
<rect x="5.2" y="28.3" transform="matrix(0.5788 -0.8155 0.8155 0.5788 -23.4297 27.6783)" class="st1" width="19.7" height="16.4"/>
<rect x="20.2" y="38.7" transform="matrix(0.5788 -0.8155 0.8155 0.5788 -25.6337 44.2421)" class="st1" width="19.7" height="16.4"/>
<rect x="79.9" y="71.9" transform="matrix(0.5788 -0.8155 0.8155 0.5788 -35.3907 113.3353)" class="st0" width="24.2" height="38.1"/>
<rect x="74.8" y="77.7" transform="matrix(0.5788 -0.8155 0.8155 0.5788 -34.377 105.1769)" class="st1" width="19.7" height="16.4"/>
<rect x="89.6" y="88.2" transform="matrix(0.5788 -0.8155 0.8155 0.5788 -36.6668 121.7223)" class="st1" width="19.7" height="16.4"/>
<path class="st2" d="M40.7,84.6c1-1.3,2.8-1.7,4.2-0.7c1.3,1,1.7,2.8,0.7,4.2c-1,1.3-2.8,1.7-4.2,0.7C40,87.9,39.7,86.1,40.7,84.6z"
	/>
<path class="st2" d="M45.2,75.3c1.5-2.1,4.4-2.6,6.5-1.1s2.6,4.4,1.1,6.5s-4.4,2.6-6.5,1.1C44.3,80.3,43.8,77.4,45.2,75.3z"/>
<rect x="41" y="78.6" transform="matrix(0.5788 -0.8155 0.8155 0.5788 -45.455 72.5134)" class="st2" width="13" height="3.4"/>
<rect x="78.9" y="24.9" transform="matrix(0.5789 -0.8154 0.8154 0.5789 14.2522 80.8846)" class="st2" width="13" height="3.4"/>
<rect x="87.5" y="16.1" transform="matrix(0.5789 -0.8154 0.8154 0.5789 20.3008 81.6983)" class="st2" width="3.4" height="10.2"/>
<rect x="39.1" y="43.5" transform="matrix(0.5788 -0.8155 0.8155 0.5788 -21.2938 75.807)" class="st0" width="47.2" height="30"/>
<polygon class="st2" points="79.9,75.1 72.9,70.2 74.1,68.4 81.1,73.4 "/>
<rect x="67.9" y="78.8" transform="matrix(0.5788 -0.8155 0.8155 0.5788 -38.716 91.1846)" class="st2" width="2" height="8.6"/>
<polygon class="st2" points="34.5,57.8 41.5,62.7 40.3,64.2 33.3,59.3 "/>
<polygon class="st2" points="42.7,46.1 49.7,51 48.5,52.8 41.5,47.8 "/>
<rect x="90.9" y="46.7" transform="matrix(0.5788 -0.8155 0.8155 0.5788 -2.9096 96.4311)" class="st2" width="2" height="8.6"/>
<rect x="82.7" y="58.3" transform="matrix(0.5788 -0.8155 0.8155 0.5788 -15.7584 94.6131)" class="st2" width="2" height="8.6"/>
<polygon class="st2" points="49.2,37.1 56.1,42 55,43.5 48.1,38.6 "/>
<polygon class="st2" points="57.4,25.5 64.4,30.5 63.2,32 56.2,27 "/>
<path class="st0" d="M88.6,48.1c-4.8,6.7-14.1,8.3-20.9,3.6c-6.7-4.8-8.3-14.1-3.6-20.9c4.8-6.7,14.1-8.3,20.9-3.6
	C91.8,32,93.4,41.4,88.6,48.1z"/>
<g>
	
		<rect x="23.1" y="90.7" transform="matrix(0.5787 -0.8156 0.8156 0.5787 -72.3767 61.6453)" class="st2" width="0.7" height="20.4"/>
</g>
<g>
	<rect x="11" y="86.7" transform="matrix(0.5789 -0.8154 0.8154 0.5789 -62.0495 53.9902)" class="st2" width="20.4" height="0.7"/>
</g>
<g>
	<rect x="15.1" y="93" transform="matrix(0.986 -0.167 0.167 0.986 -15.2269 5.5274)" class="st2" width="20.4" height="0.7"/>
</g>
<g>
	<path class="st0" d="M44.2,90c-1.6-9-10.1-15.1-19-13.5l5.5,32.6C39.7,107.6,45.7,99,44.2,90z"/>
</g>
<path class="st0" d="M14.8,92.8c1.2-0.2,2.3,0.6,2.6,1.8c0.2,1.2-0.6,2.3-1.8,2.6c-1.2,0.2-2.3-0.6-2.6-1.8
	C12.8,94.1,13.6,93,14.8,92.8z"/>
<path class="st3" d="M67.4,44.1c1.1-1.5,3.2-1.9,4.7-0.8l2.1,1.5c1.5,1.1,1.9,3.2,0.8,4.7l-17.1,24c-1.1,1.5-3.2,1.9-4.7,0.8
	l-2.1-1.5c-1.5-1.1-1.9-3.2-0.8-4.7L67.4,44.1z"/>
<g id="DESIGNED_BY_FREEPIK">
</g>
</svg>
