<?xml version="1.0" encoding="utf-8"?>
<!-- Generator: Adobe Illustrator 23.0.6, SVG Export Plug-In . SVG Version: 6.00 Build 0)  -->
<svg version="1.1" id="Layer_1" xmlns="http://www.w3.org/2000/svg" xmlns:xlink="http://www.w3.org/1999/xlink" x="0px" y="0px"
	 viewBox="0 0 204.8 162.4" style="enable-background:new 0 0 204.8 162.4;" xml:space="preserve">
<style type="text/css">
	.st0{fill:url(#Rechteck_48_1_);}
	.st1{fill:#FFFFFF;}
	.st2{fill:#97F4EC;}
	.st3{fill:#54B5B7;}
</style>
<g id="Gruppe_208" transform="translate(-59.607 -1389.83)">
	
		<linearGradient id="Rechteck_48_1_" gradientUnits="userSpaceOnUse" x1="-37.0573" y1="1770.2897" x2="-35.4014" y2="1769.5051" gradientTransform="matrix(204.828 0 0 -162.385 7621.7407 288890.4375)">
		<stop  offset="0" style="stop-color:#000C54"/>
		<stop  offset="0.127" style="stop-color:#0D105A"/>
		<stop  offset="0.364" style="stop-color:#301D6A"/>
		<stop  offset="0.682" style="stop-color:#693285"/>
		<stop  offset="1" style="stop-color:#A949A3"/>
	</linearGradient>
	<path id="Rechteck_48" class="st0" d="M59.6,1389.8h204.8v162.4l0,0H59.6l0,0V1389.8z"/>
	<path id="Pfad_279" class="st1" d="M87.6,1409.9l0.9,2.2c0.2,0.4,0.5,0.7,0.9,0.9l2.1,0.9c0.8,0.3,1.2,1.3,0.9,2.1
		c-0.2,0.4-0.5,0.8-0.9,0.9l-2.1,0.9c-0.4,0.2-0.7,0.5-0.9,0.9l-0.9,2.2c-0.3,0.8-1.3,1.2-2.1,0.9c-0.4-0.2-0.8-0.5-0.9-0.9
		l-0.9-2.1c-0.2-0.4-0.5-0.7-0.9-0.9l-2.1-0.9c-0.8-0.3-1.2-1.3-0.9-2.1c0.2-0.4,0.5-0.7,0.9-0.9l2.1-0.9c0.4-0.2,0.7-0.5,0.9-0.9
		l0.9-2.2c0.3-0.8,1.3-1.2,2.1-0.9C87.1,1409.2,87.4,1409.5,87.6,1409.9z"/>
	<path id="Pfad_281" class="st1" d="M237.6,1429.1l1,2.6c0.2,0.5,0.6,0.9,1.1,1.1l2.5,1c0.7,0.3,1.2,0.9,1.3,1.7
		c0.1,0.9-0.5,1.7-1.2,2.1l-2.6,1c-0.5,0.2-0.9,0.6-1.1,1.1l-1,2.6c-0.3,0.7-0.9,1.2-1.7,1.3c-0.9,0.1-1.7-0.5-2.1-1.2l-1-2.6
		c-0.2-0.5-0.6-0.9-1.1-1.1l-2.5-1c-0.7-0.3-1.2-0.9-1.3-1.7c-0.1-0.9,0.4-1.8,1.2-2.1l2.6-1c0.5-0.2,0.9-0.6,1.1-1.1l1-2.6
		c0.3-0.7,0.9-1.2,1.7-1.3C236.4,1427.7,237.2,1428.3,237.6,1429.1z"/>
	<path id="Pfad_283" class="st1" d="M113.1,1498.6l0.9,2.2c0.2,0.4,0.5,0.8,0.9,0.9l2.2,0.9c0.8,0.3,1.3,1.3,0.9,2.1
		c-0.2,0.4-0.5,0.8-0.9,0.9l-2.2,0.9c-0.4,0.2-0.8,0.5-0.9,0.9l-0.9,2.2c-0.3,0.8-1.3,1.3-2.1,0.9c-0.4-0.2-0.8-0.5-0.9-0.9
		l-0.9-2.2c-0.2-0.4-0.5-0.8-0.9-0.9l-2.2-0.9c-0.8-0.3-1.3-1.3-0.9-2.1c0.2-0.4,0.5-0.8,0.9-0.9l2.2-0.9c0.4-0.2,0.8-0.5,0.9-0.9
		l0.9-2.2c0.3-0.8,1.3-1.3,2.1-0.9C112.6,1497.8,112.9,1498.2,113.1,1498.6z"/>
	<circle id="Ellipse_9" class="st2" cx="161.9" cy="1455.2" r="38.1"/>
	<path id="Pfad_282" class="st3" d="M161.9,1417.1c-1.4,0-2.7,0.1-4.1,0.2c17.1,2.1,29.2,17.9,26.3,35.1c-2.5,15-16,26.1-31.3,25.4
		c-15-0.7-27.1-12-28.9-26.7c-0.1,1.4-0.2,2.7-0.2,4.1c0,21.9,18.5,39.5,40.8,38c18.8-1.3,34-16.5,35.3-35.3
		C201.5,1435.7,183.9,1417.1,161.9,1417.1L161.9,1417.1z"/>
</g>
</svg>
