<?xml version="1.0" encoding="utf-8"?>
<!-- Generator: Adobe Illustrator 23.0.6, SVG Export Plug-In . SVG Version: 6.00 Build 0)  -->
<svg version="1.1" id="Layer_1" xmlns="http://www.w3.org/2000/svg" xmlns:xlink="http://www.w3.org/1999/xlink" x="0px" y="0px"
	 viewBox="0 0 163.8 101.6" style="enable-background:new 0 0 163.8 101.6;" xml:space="preserve">
<style type="text/css">
	.st0{fill:#FFFFFF;}
	.st1{fill:#97F4EC;}
	.st2{fill:#54B5B7;}
</style>
<path id="Pfad_279" class="st0" d="M7.9,0.9l0.9,2.2C9,3.5,9.3,3.8,9.7,4l2.1,0.9C12.6,5.2,13,6.2,12.7,7c-0.2,0.4-0.5,0.8-0.9,0.9
	L9.7,8.8C9.3,9,9,9.3,8.8,9.7l-0.9,2.2c-0.3,0.8-1.3,1.2-2.1,0.9c-0.4-0.2-0.8-0.5-0.9-0.9L4,9.8C3.8,9.4,3.5,9.1,3.1,8.9L1,8
	C0.2,7.7-0.2,6.7,0.1,5.9C0.3,5.5,0.6,5.2,1,5l2.1-0.9C3.5,3.9,3.8,3.6,4,3.2L4.9,1C5.2,0.2,6.2-0.2,7,0.1C7.4,0.2,7.7,0.5,7.9,0.9z
	"/>
<path id="Pfad_281" class="st0" d="M157.9,20.1l1,2.6c0.2,0.5,0.6,0.9,1.1,1.1l2.5,1c0.7,0.3,1.2,0.9,1.3,1.7
	c0.1,0.9-0.5,1.7-1.2,2.1l-2.6,1c-0.5,0.2-0.9,0.6-1.1,1.1l-1,2.6c-0.3,0.7-0.9,1.2-1.7,1.3c-0.9,0.1-1.7-0.5-2.1-1.2l-1-2.6
	c-0.2-0.5-0.6-0.9-1.1-1.1l-2.5-1c-0.7-0.3-1.2-0.9-1.3-1.7c-0.1-0.9,0.4-1.8,1.2-2.1l2.6-1c0.5-0.2,0.9-0.6,1.1-1.1l1-2.6
	c0.3-0.7,0.9-1.2,1.7-1.3C156.7,18.7,157.5,19.3,157.9,20.1z"/>
<path id="Pfad_283" class="st0" d="M33.4,89.6l0.9,2.2c0.2,0.4,0.5,0.8,0.9,0.9l2.2,0.9c0.8,0.3,1.3,1.3,0.9,2.1
	c-0.2,0.4-0.5,0.8-0.9,0.9l-2.2,0.9c-0.4,0.2-0.8,0.5-0.9,0.9l-0.9,2.2c-0.3,0.8-1.3,1.3-2.1,0.9c-0.4-0.2-0.8-0.5-0.9-0.9l-0.9-2.2
	c-0.2-0.4-0.5-0.8-0.9-0.9l-2.2-0.9c-0.8-0.3-1.3-1.3-0.9-2.1c0.2-0.4,0.5-0.8,0.9-0.9l2.2-0.9c0.4-0.2,0.8-0.5,0.9-0.9l0.9-2.2
	c0.3-0.8,1.3-1.3,2.1-0.9C32.9,88.8,33.2,89.2,33.4,89.6z"/>
<ellipse id="Ellipse_9" transform="matrix(3.327793e-02 -0.9994 0.9994 3.327793e-02 33.2902 126.8162)" class="st1" cx="82.2" cy="46.2" rx="38.1" ry="38.1"/>
<path id="Pfad_282" class="st2" d="M82.2,8.1c-1.4,0-2.7,0.1-4.1,0.2c17.1,2.1,29.2,17.9,26.3,35.1c-2.5,15-16,26.1-31.3,25.4
	c-15-0.7-27.1-12-28.9-26.7c-0.1,1.4-0.2,2.7-0.2,4.1c0,21.9,18.5,39.5,40.8,38c18.8-1.3,34-16.5,35.3-35.3
	C121.8,26.7,104.2,8.1,82.2,8.1L82.2,8.1z"/>
</svg>
