<?xml version="1.0" encoding="utf-8"?>
<!-- Generator: Adobe Illustrator 23.0.6, SVG Export Plug-In . SVG Version: 6.00 Build 0)  -->
<svg version="1.1" id="Layer_1" xmlns="http://www.w3.org/2000/svg" xmlns:xlink="http://www.w3.org/1999/xlink" x="0px" y="0px"
	 viewBox="0 0 204.8 162.4" style="enable-background:new 0 0 204.8 162.4;" xml:space="preserve">
<style type="text/css">
	.st0{fill:url(#Rechteck_48_1_);}
	.st1{fill:#FFFFFF;}
	.st2{fill:#FFAA50;}
	.st3{fill:#D77D14;}
	.st4{fill:#BC6917;}
	.st5{fill:#E69632;}
</style>
<g id="Gruppe_203" transform="translate(-281.607 -850.935)">
	
		<linearGradient id="Rechteck_48_1_" gradientUnits="userSpaceOnUse" x1="184.9427" y1="1231.3948" x2="186.5986" y2="1230.6101" gradientTransform="matrix(204.828 0 0 -162.385 -37628.0742 200843.0781)">
		<stop  offset="0" style="stop-color:#000C54"/>
		<stop  offset="0.127" style="stop-color:#0D105A"/>
		<stop  offset="0.364" style="stop-color:#301D6A"/>
		<stop  offset="0.682" style="stop-color:#693285"/>
		<stop  offset="1" style="stop-color:#A949A3"/>
	</linearGradient>
	<path id="Rechteck_48" class="st0" d="M281.6,850.9h204.8v162.4l0,0H281.6l0,0V850.9z"/>
	<path id="Pfad_300" class="st1" d="M459.5,964.3l1,2.6c0.2,0.5,0.6,0.9,1.1,1.1l2.5,1c0.7,0.3,1.2,0.9,1.3,1.7
		c0.1,0.9-0.4,1.7-1.2,2.1l-2.6,1c-0.5,0.2-0.9,0.6-1.1,1.1l-1,2.6c-0.3,0.7-0.9,1.2-1.7,1.3c-0.9,0.1-1.7-0.4-2.1-1.2l-1-2.6
		c-0.2-0.5-0.6-0.9-1.1-1.1l-2.5-1c-0.7-0.3-1.2-0.9-1.3-1.7c-0.1-0.9,0.4-1.7,1.2-2.1l2.6-1c0.5-0.2,0.9-0.6,1.1-1.1l1-2.5
		c0.3-0.7,0.9-1.2,1.7-1.3C458.4,962.9,459.2,963.5,459.5,964.3z"/>
	<path id="Pfad_317" class="st1" d="M454.7,872.1l0.5,1.3c0.1,0.3,0.3,0.5,0.6,0.6l1.3,0.5c0.5,0.2,0.8,0.8,0.6,1.3
		c-0.1,0.3-0.3,0.5-0.6,0.6l-1.3,0.5c-0.3,0.1-0.5,0.3-0.6,0.6l-0.5,1.3c-0.2,0.5-0.8,0.8-1.3,0.6c-0.3-0.1-0.5-0.3-0.6-0.6
		l-0.5-1.3c-0.1-0.3-0.3-0.5-0.6-0.6l-1.3-0.5c-0.5-0.2-0.8-0.8-0.6-1.3c0.1-0.3,0.3-0.5,0.6-0.6l1.3-0.5c0.3-0.1,0.5-0.3,0.6-0.6
		l0.5-1.3c0.2-0.5,0.8-0.8,1.3-0.6C454.4,871.6,454.6,871.8,454.7,872.1z"/>
	<path id="Pfad_301" class="st1" d="M333.2,941.2l0.6,1.5c0.1,0.3,0.3,0.5,0.6,0.6l1.5,0.6c0.6,0.2,0.8,0.9,0.6,1.4
		c-0.1,0.3-0.3,0.5-0.6,0.6l-1.5,0.6c-0.3,0.1-0.5,0.3-0.6,0.6l-0.6,1.5c-0.2,0.6-0.9,0.8-1.4,0.6c-0.3-0.1-0.5-0.3-0.6-0.6
		l-0.6-1.5c-0.1-0.3-0.3-0.5-0.6-0.6l-1.5-0.6c-0.6-0.2-0.8-0.9-0.6-1.4c0.1-0.3,0.3-0.5,0.6-0.6l1.5-0.6c0.3-0.1,0.5-0.3,0.6-0.6
		l0.6-1.5c0.2-0.6,0.9-0.8,1.4-0.6C332.8,940.7,333,940.9,333.2,941.2z"/>
	<path id="Pfad_302" class="st1" d="M311.3,878.5l-0.1,1.8c0,0.3,0.1,0.7,0.3,0.9l1.2,1.3c0.5,0.5,0.4,1.3,0,1.7
		c-0.2,0.2-0.6,0.4-0.9,0.3l-1.7-0.1c-0.3,0-0.7,0.1-0.9,0.3l-1.3,1.2c-0.5,0.5-1.3,0.4-1.7,0c-0.2-0.2-0.4-0.6-0.3-0.9l0.1-1.7
		c0-0.3-0.1-0.7-0.3-0.9l-1.2-1.3c-0.5-0.5-0.4-1.3,0-1.7c0.2-0.2,0.6-0.4,0.9-0.3l1.7,0.1c0.3,0,0.7-0.1,0.9-0.3l1.3-1.2
		c0.5-0.5,1.3-0.4,1.7,0C311.2,877.8,311.3,878.1,311.3,878.5z"/>
	<circle id="Ellipse_19" class="st2" cx="383.7" cy="919" r="40"/>
	<path id="Pfad_309" class="st3" d="M383.7,879.1c-1.4,0-2.9,0.1-4.3,0.2c17.9,2.2,30.6,18.8,27.6,36.9
		c-2.5,15.2-15.9,26.6-31.3,26.6c-16.4,0-29.8-12.2-31.7-28c-0.2,1.4-0.2,2.9-0.2,4.3c0,23,19.4,41.5,42.8,39.9
		c19.7-1.4,35.7-17.3,37-37C425.2,898.5,406.7,879.1,383.7,879.1L383.7,879.1L383.7,879.1z"/>
	<path id="Pfad_310" class="st4" d="M366.5,955.1c9.3-1.7,20.6-6.5,31.6-14c11.6-7.9,20.5-17,25.4-25.3c-0.2-2.2-0.5-4.3-1-6.4
		c-3.4,8.4-12.4,19-26.5,28.6c-13.4,9.1-26,13.5-35,14C362.8,953.1,364.6,954.2,366.5,955.1z"/>
	<path id="Pfad_311" class="st5" d="M415.4,894.7c-2.5,8.7-11.9,20.5-27.3,31c-15.3,10.3-29.5,14.7-38.5,14c0.8,1.4,1.7,2.7,2.7,3.9
		c0.6,0,1.1,0,1.7-0.1c10.1-0.7,23.3-5.8,36.3-14.6c13.9-9.4,23.9-20.7,27.9-30.2C417.3,897.3,416.4,896,415.4,894.7z"/>
	<g id="Gruppe_138" transform="translate(349.503 894.704)">
		<path id="Pfad_312" class="st4" d="M10.5,44c-3.4,0.8-7,1.2-10.5,1c0.4,0.7,0.8,1.3,1.3,2l0,0c0.4,0.6,0.9,1.3,1.4,1.9
			c0.6,0,1.1,0,1.7-0.1c4-0.3,7.9-1.1,11.6-2.3C14.1,45.8,12.2,45,10.5,44z"/>
		<path id="Pfad_313" class="st4" d="M68.6,3.9c-0.8-1.4-1.7-2.7-2.7-3.9c-1.2,4.1-3.9,8.8-8,13.9c0.1,0.8,0.1,1.6,0.1,2.4
			c0,1.2-0.1,2.4-0.2,3.5C62.8,14.4,66.5,8.9,68.6,3.9z"/>
	</g>
	<path id="Pfad_314" class="st5" d="M409.3,888.3c-1-0.8-2-1.6-3.1-2.4c-3.7,8.2-12.5,18.4-26,27.5c-13.6,9.2-26.4,13.6-35.4,14
		c0.3,1.3,0.6,2.5,1,3.8c0,0,0,0,0,0c10.2-0.7,23.5-5.7,36.6-14.6C395.3,907.9,404.8,897.5,409.3,888.3z"/>
	<g id="Gruppe_139" transform="translate(344.669 885.969)">
		<path id="Pfad_315" class="st4" d="M1,45.3c1.7-0.1,3.3-0.3,4.9-0.6c-0.9-1.1-1.7-2.3-2.4-3.5c-1.2,0.2-2.4,0.3-3.6,0.3l0,0
			c0.1,0.6,0.3,1.3,0.5,1.9l0,0C0.6,44.1,0.8,44.7,1,45.3C1,45.3,1,45.3,1,45.3z"/>
		<path id="Pfad_316" class="st4" d="M57.3,7.1c0.8,1.1,1.5,2.3,2.1,3.6c2-2.6,3.7-5.4,5.2-8.3c-1-0.8-2-1.6-3.1-2.4
			C60.3,2.5,58.9,4.9,57.3,7.1z"/>
	</g>
</g>
</svg>
