<?xml version="1.0" encoding="utf-8"?>
<!-- Generator: Adobe Illustrator 23.0.6, SVG Export Plug-In . SVG Version: 6.00 Build 0)  -->
<svg version="1.1" id="Layer_1" xmlns="http://www.w3.org/2000/svg" xmlns:xlink="http://www.w3.org/1999/xlink" x="0px" y="0px"
	 viewBox="0 0 161.3 107.4" style="enable-background:new 0 0 161.3 107.4;" xml:space="preserve">
<style type="text/css">
	.st0{fill:#FFFFFF;}
	.st1{fill:#FFAA50;}
	.st2{fill:#D77D14;}
	.st3{fill:#BC6917;}
	.st4{fill:#E69632;}
</style>
<path id="Pfad_300" class="st0" d="M155.3,92.9l1,2.6c0.2,0.5,0.6,0.9,1.1,1.1l2.5,1c0.7,0.3,1.2,0.9,1.3,1.7
	c0.1,0.9-0.4,1.7-1.2,2.1l-2.6,1c-0.5,0.2-0.9,0.6-1.1,1.1l-1,2.6c-0.3,0.7-0.9,1.2-1.7,1.3c-0.9,0.1-1.7-0.4-2.1-1.2l-1-2.6
	c-0.2-0.5-0.6-0.9-1.1-1.1l-2.5-1c-0.7-0.3-1.2-0.9-1.3-1.7c-0.1-0.9,0.4-1.7,1.2-2.1l2.6-1c0.5-0.2,0.9-0.6,1.1-1.1l1-2.5
	c0.3-0.7,0.9-1.2,1.7-1.3C154.2,91.5,155,92.1,155.3,92.9z"/>
<path id="Pfad_317" class="st0" d="M150.5,0.7L151,2c0.1,0.3,0.3,0.5,0.6,0.6l1.3,0.5c0.5,0.2,0.8,0.8,0.6,1.3
	c-0.1,0.3-0.3,0.5-0.6,0.6l-1.3,0.5c-0.3,0.1-0.5,0.3-0.6,0.6l-0.5,1.3c-0.2,0.5-0.8,0.8-1.3,0.6c-0.3-0.1-0.5-0.3-0.6-0.6l-0.5-1.3
	c-0.1-0.3-0.3-0.5-0.6-0.6L146.2,5c-0.5-0.2-0.8-0.8-0.6-1.3c0.1-0.3,0.3-0.5,0.6-0.6l1.3-0.5c0.3-0.1,0.5-0.3,0.6-0.6l0.5-1.3
	c0.2-0.5,0.8-0.8,1.3-0.6C150.2,0.2,150.4,0.4,150.5,0.7z"/>
<path id="Pfad_301" class="st0" d="M29,69.8l0.6,1.5c0.1,0.3,0.3,0.5,0.6,0.6l1.5,0.6c0.6,0.2,0.8,0.9,0.6,1.4
	c-0.1,0.3-0.3,0.5-0.6,0.6l-1.5,0.6c-0.3,0.1-0.5,0.3-0.6,0.6L29,77.2c-0.2,0.6-0.9,0.8-1.4,0.6c-0.3-0.1-0.5-0.3-0.6-0.6l-0.6-1.5
	c-0.1-0.3-0.3-0.5-0.6-0.6l-1.5-0.6c-0.6-0.2-0.8-0.9-0.6-1.4c0.1-0.3,0.3-0.5,0.6-0.6l1.5-0.6c0.3-0.1,0.5-0.3,0.6-0.6l0.6-1.5
	c0.2-0.6,0.9-0.8,1.4-0.6C28.6,69.3,28.8,69.5,29,69.8z"/>
<path id="Pfad_302" class="st0" d="M7.1,7.1L7,8.9c0,0.3,0.1,0.7,0.3,0.9l1.2,1.3c0.5,0.5,0.4,1.3,0,1.7c-0.2,0.2-0.6,0.4-0.9,0.3
	L5.9,13c-0.3,0-0.7,0.1-0.9,0.3l-1.3,1.2c-0.5,0.5-1.3,0.4-1.7,0c-0.2-0.2-0.4-0.6-0.3-0.9l0.1-1.7c0-0.3-0.1-0.7-0.3-0.9L0.3,9.7
	c-0.5-0.5-0.4-1.3,0-1.7c0.2-0.2,0.6-0.4,0.9-0.3l1.7,0.1c0.3,0,0.7-0.1,0.9-0.3l1.3-1.2c0.5-0.5,1.3-0.4,1.7,0
	C7,6.4,7.1,6.7,7.1,7.1z"/>
<circle id="Ellipse_19" class="st1" cx="79.5" cy="47.6" r="40"/>
<path id="Pfad_309" class="st2" d="M79.5,7.7c-1.4,0-2.9,0.1-4.3,0.2c17.9,2.2,30.6,18.8,27.6,36.9C100.3,60,86.9,71.4,71.5,71.4
	c-16.4,0-29.8-12.2-31.7-28c-0.2,1.4-0.2,2.9-0.2,4.3c0,23,19.4,41.5,42.8,39.9c19.7-1.4,35.7-17.3,37-37
	C121,27.1,102.5,7.7,79.5,7.7L79.5,7.7L79.5,7.7z"/>
<path id="Pfad_310" class="st3" d="M62.3,83.7c9.3-1.7,20.6-6.5,31.6-14c11.6-7.9,20.5-17,25.4-25.3c-0.2-2.2-0.5-4.3-1-6.4
	c-3.4,8.4-12.4,19-26.5,28.6c-13.4,9.1-26,13.5-35,14C58.6,81.7,60.4,82.8,62.3,83.7z"/>
<path id="Pfad_311" class="st4" d="M111.2,23.3c-2.5,8.7-11.9,20.5-27.3,31C68.6,64.6,54.4,69,45.4,68.3c0.8,1.4,1.7,2.7,2.7,3.9
	c0.6,0,1.1,0,1.7-0.1c10.1-0.7,23.3-5.8,36.3-14.6C100,48.1,110,36.8,114,27.3C113.1,25.9,112.2,24.6,111.2,23.3z"/>
<path id="Pfad_312" class="st3" d="M55.8,67.3c-3.4,0.8-7,1.2-10.5,1c0.4,0.7,0.8,1.3,1.3,2l0,0c0.4,0.6,0.9,1.3,1.4,1.9
	c0.6,0,1.1,0,1.7-0.1c4-0.3,7.9-1.1,11.6-2.3C59.4,69.1,57.5,68.3,55.8,67.3z"/>
<path id="Pfad_313" class="st3" d="M113.9,27.2c-0.8-1.4-1.7-2.7-2.7-3.9c-1.2,4.1-3.9,8.8-8,13.9c0.1,0.8,0.1,1.6,0.1,2.4
	c0,1.2-0.1,2.4-0.2,3.5C108.1,37.7,111.8,32.2,113.9,27.2z"/>
<path id="Pfad_314" class="st4" d="M105.1,16.9c-1-0.8-2-1.6-3.1-2.4C98.3,22.7,89.5,32.9,76,42c-13.6,9.2-26.4,13.6-35.4,14
	c0.3,1.3,0.6,2.5,1,3.8l0,0c10.2-0.7,23.5-5.7,36.6-14.6C91.1,36.5,100.6,26.1,105.1,16.9z"/>
<path id="Pfad_315" class="st3" d="M41.5,59.8c1.7-0.1,3.3-0.3,4.9-0.6c-0.9-1.1-1.7-2.3-2.4-3.5c-1.2,0.2-2.4,0.3-3.6,0.3l0,0
	c0.1,0.6,0.3,1.3,0.5,1.9l0,0C41.1,58.6,41.3,59.2,41.5,59.8L41.5,59.8z"/>
<path id="Pfad_316" class="st3" d="M97.8,21.6c0.8,1.1,1.5,2.3,2.1,3.6c2-2.6,3.7-5.4,5.2-8.3c-1-0.8-2-1.6-3.1-2.4
	C100.8,17,99.4,19.4,97.8,21.6z"/>
</svg>
