<?xml version="1.0" encoding="utf-8"?>
<!-- Generator: Adobe Illustrator 23.0.6, SVG Export Plug-In . SVG Version: 6.00 Build 0)  -->
<svg version="1.1" id="Layer_1" xmlns="http://www.w3.org/2000/svg" xmlns:xlink="http://www.w3.org/1999/xlink" x="0px" y="0px"
	 viewBox="0 0 497.8 458.9" style="enable-background:new 0 0 497.8 458.9;" xml:space="preserve">
<style type="text/css">
	.st0{fill:none;stroke:#FFFFFF;stroke-width:1.5;stroke-linecap:round;stroke-linejoin:round;stroke-miterlimit:10;}
	.st1{fill:#FFFFFF;}
</style>
<line class="st0" x1="383.7" y1="357.1" x2="441.9" y2="403.8"/>
<line class="st0" x1="299.9" y1="288.8" x2="349.6" y2="329.7"/>
<path class="st1" d="M380.3,343.1c0,7.6-6.2,13.8-13.8,13.8s-13.8-6.2-13.8-13.8c0-7.6,6.2-13.8,13.8-13.8
	C374.1,329.3,380.3,335.4,380.3,343.1z"/>
<line class="st0" x1="302.8" y1="392.7" x2="350.9" y2="358"/>
<circle class="st1" cx="287" cy="403.2" r="10"/>
<path class="st1" d="M295.2,277.3c0,3.7-3,6.8-6.8,6.8s-6.7-3-6.7-6.8c0-3.7,3-6.7,6.7-6.7S295.2,273.6,295.2,277.3z"/>
<line class="st0" x1="384.4" y1="330.4" x2="406.1" y2="302.9"/>
<line class="st0" x1="420.2" y1="56.3" x2="420.2" y2="268.8"/>
<path class="st1" d="M425.5,39.6c0,5-4.1,9.1-9.1,9.1s-9.1-4.1-9.1-9.1s4.1-9.1,9.1-9.1C421.4,30.5,425.5,34.6,425.5,39.6z"/>
<line class="st0" x1="372.6" y1="11.7" x2="402" y2="29.3"/>
<line class="st0" x1="344.5" y1="21.1" x2="322.8" y2="41.1"/>
<path class="st1" d="M316.3,49c0,6.3-5.1,11.4-11.4,11.4s-11.4-5.1-11.4-11.4s5.1-11.4,11.4-11.4S316.3,42.7,316.3,49z"/>
<line class="st0" x1="299.3" y1="68.1" x2="289.9" y2="263.5"/>
<line class="st0" x1="261.1" y1="11.7" x2="289.9" y2="38.1"/>
<path class="st1" d="M252.9,7.6c0,4.2-3.4,7.6-7.6,7.6s-7.6-3.4-7.6-7.6s3.4-7.6,7.6-7.6C249.5,0,252.9,3.4,252.9,7.6z"/>
<line class="st0" x1="236.5" y1="17.6" x2="207.7" y2="46.4"/>
<line class="st0" x1="200.7" y1="85.7" x2="200.7" y2="315.8"/>
<path class="st1" d="M217.1,339.9c0,8.4-6.8,15.2-15.2,15.2c-8.4,0-15.2-6.8-15.2-15.2c0-8.4,6.8-15.2,15.2-15.2
	S217.1,331.5,217.1,339.9z"/>
<path class="st1" d="M32.2,40.2c0,8.9-7.2,16.1-16.1,16.1S0,49.1,0,40.2s7.2-16.1,16.1-16.1S32.2,31.3,32.2,40.2z"/>
<line class="st0" x1="35.7" y1="24.6" x2="57.5" y2="10.6"/>
<path class="st1" d="M78.6,7.3c0,3.7-3,6.8-6.7,6.8s-6.8-3-6.8-6.8c0-3.7,3-6.7,6.8-6.7C75.6,0.6,78.6,3.6,78.6,7.3z"/>
<line class="st0" x1="79.2" y1="18.8" x2="93.3" y2="41.7"/>
<path class="st1" d="M110,61c0,7.3-5.9,13.2-13.2,13.2S83.6,68.3,83.6,61s5.9-13.2,13.2-13.2C104.1,47.8,110,53.7,110,61z"/>
<line class="st0" x1="95.6" y1="82.7" x2="85.6" y2="322.2"/>
<line class="st0" x1="115.6" y1="47.5" x2="156.6" y2="19.9"/>
<path class="st1" d="M172.3,14.7c0,2.7-2.2,4.9-4.9,4.9s-4.9-2.2-4.9-4.9s2.2-4.9,4.9-4.9C170.1,9.8,172.3,12,172.3,14.7z"/>
<line class="st0" x1="170" y1="26.2" x2="182.5" y2="53.2"/>
<g>
	<path class="st1" d="M211.8,48.2l-11.2,3c-0.7,0.2-1.5,0-2-0.6l-7.4-8c-1.2-1.3-3.4-0.5-3.5,1.3l-0.4,10.9c0,0.7-0.5,1.4-1.1,1.7
		l-10.5,5.1c-1.6,0.8-1.5,3,0.2,3.7l10.9,4.2c0.7,0.3,1.2,0.9,1.3,1.6l1.3,11c0.2,1.7,2.4,2.4,3.5,1l7.1-8.7
		c0.5-0.6,1.2-0.8,1.9-0.7l11,2c1.7,0.3,3-1.6,2-3.1l-6.2-9.2c-0.4-0.6-0.4-1.4-0.1-2.1l5.5-10.2C214.9,49.6,213.5,47.8,211.8,48.2z
		"/>
</g>
<g>
	<path class="st1" d="M95.7,325.2l-11.2,3c-0.7,0.2-1.5,0-2-0.6l-7.4-8c-1.2-1.3-3.4-0.5-3.5,1.3l-0.4,10.9c0,0.7-0.5,1.4-1.1,1.7
		l-10.5,5.1c-1.6,0.8-1.5,3,0.2,3.7l10.9,4.2c0.7,0.3,1.2,0.9,1.3,1.6l1.3,11c0.2,1.7,2.4,2.4,3.5,1l7.1-8.7
		c0.5-0.6,1.2-0.8,1.9-0.7l11,2c1.7,0.3,3-1.6,2-3.1l-6.2-9.2c-0.4-0.6-0.4-1.4-0.1-2.1l5.5-10.2C98.8,326.5,97.3,324.8,95.7,325.2z
		"/>
</g>
<g>
	<path class="st1" d="M365.6,5.8l-6.1,1.6c-0.4,0.1-0.8,0-1.1-0.3l-4-4.3c-0.6-0.7-1.8-0.3-1.9,0.7l-0.2,5.9c0,0.4-0.3,0.8-0.6,0.9
		L346,13c-0.8,0.4-0.8,1.6,0.1,2l5.9,2.2c0.4,0.1,0.6,0.5,0.7,0.9l0.7,5.9c0.1,0.9,1.3,1.3,1.9,0.6l3.9-4.7c0.3-0.3,0.6-0.4,1-0.4
		l6,1.1c0.9,0.2,1.6-0.9,1.1-1.7l-3.3-5c-0.2-0.3-0.2-0.8,0-1.1l3-5.5C367.3,6.5,366.5,5.5,365.6,5.8z"/>
</g>
<g>
	<path class="st1" d="M439,291.6l-8.2-6.7c-0.5-0.4-0.8-1.1-0.6-1.8l2-9.7c0.3-1.6-1.4-2.8-2.8-1.9l-8.3,5.5
		c-0.6,0.4-1.3,0.4-1.9,0.1l-9.3-5.1c-1.4-0.8-3,0.5-2.6,2.1l2.7,10.3c0.2,0.7,0,1.3-0.5,1.8L402,293c-1.2,1.1-0.5,3.1,1.1,3.2
		l10.2,0.6c0.7,0,1.2,0.4,1.5,1l4.4,9.2c0.7,1.5,2.8,1.4,3.4-0.2l3.5-9.5c0.2-0.6,0.8-1.1,1.5-1.2l10.6-1.2
		C439.7,294.6,440.3,292.6,439,291.6z"/>
</g>
<g>
	<path class="st1" d="M497.2,439.8l-11-17.9c-0.7-1.1-0.7-2.5,0-3.7l10-16.9c1.7-2.8-0.9-6.2-4-5.3l-19,5c-1.3,0.4-2.7-0.1-3.6-1.1
		l-14.2-15.5c-2.1-2.3-6-1-6.2,2.2l-1.5,20.9c-0.1,1.4-0.9,2.5-2.1,3l-18.3,7.9c-2.9,1.3-2.9,5.4,0.1,6.6l18.7,7.7
		c1.2,0.5,2,1.6,2.2,2.9l2.3,20.1c0.4,3.2,4.3,4.3,6.4,1.9l12.7-15.4c0.9-1,2.2-1.5,3.5-1.2l20.5,4.2
		C496.6,445.8,498.9,442.4,497.2,439.8z"/>
</g>
</svg>
